<svg id="Layer_1" data-name="Layer 1" xmlns="http://www.w3.org/2000/svg" viewBox="0 0 141.39 173.49"><title>avatar_icons</title><path d="M28.88,66.81c-.32-.31-.7-.66-1.12-1a4.68,4.68,0,0,1-.88-.48,1.3,1.3,0,0,0-.73-.29c-.42-.13-.72-.06-.88.19A1.48,1.48,0,0,0,25,66v.38a1,1,0,0,0,.24.67.74.74,0,0,0,.57.29,1.06,1.06,0,0,1,.95.48,11,11,0,0,1,.64,1l.24.29.24.29a3.79,3.79,0,0,0,.64.85h0c.22.19.48.16.81-.08a1.11,1.11,0,0,0,.63-1,3.45,3.45,0,0,0-.31-1.34A5.4,5.4,0,0,0,28.88,66.81Z"/><path d="M53.92,67.67a5.36,5.36,0,0,0,1.2-.19,3.33,3.33,0,0,0,1.37-.77,1.54,1.54,0,0,1,.56.1,1.35,1.35,0,0,0,.56.09.55.55,0,0,0,.48.19h.48a4,4,0,0,0,3.61-1.8h0q1.2-1.8-1.06-4.85l-.48-.58a1,1,0,0,0-.8.48,1.23,1.23,0,0,0-.16,1.05l.16.19c1,1.27,1.23,2.16.8,2.67a2.33,2.33,0,0,1-1.92.76H57.59a2.76,2.76,0,0,0-.72-.28,2.72,2.72,0,0,1-.73-.29A3.77,3.77,0,0,0,55,64a5.2,5.2,0,0,0-1-.09,1.78,1.78,0,0,0-1.44.57,2,2,0,0,0-.48,1.33,2.24,2.24,0,0,0,.4,1.33A1.55,1.55,0,0,0,53.92,67.67Z"/><path d="M62.66,78.63h0a43.54,43.54,0,0,0,7-11,4.8,4.8,0,0,1-.24-.76,3.92,3.92,0,0,1-.08-.76c-.1-.51-.29-.8-.56-.86s-1,.35-2.17,1.24a16.45,16.45,0,0,1-6.34,3,31.47,31.47,0,0,1-7.3.86,50.69,50.69,0,0,1-5.37-.28c-1.77-.19-3.4-.42-4.9-.67a5.12,5.12,0,0,1,.56-1c.27-.38.56-.83.88-1.33l.32-.38a.57.57,0,0,0,.16-.39,7.71,7.71,0,0,0,1-1.9c.22-.64.16-1.08-.16-1.33s-.77-.13-1.36.38a28.23,28.23,0,0,0-3,4.09c-.38.7-.72,1.43-1,2.19-.43,1-.8,2-1.12,3a8.79,8.79,0,0,0-.48,2.48,2.43,2.43,0,0,0,.16,1,.51.51,0,0,0,.48.38h0a.89.89,0,0,0,1.1-.58,8.44,8.44,0,0,0,.48-1.72v-.19a5.45,5.45,0,0,1,.56-1.71,1.28,1.28,0,0,1,1.2-.76v1a1.56,1.56,0,0,0-.16.57v.57a11,11,0,0,0,.88,4.47,7.34,7.34,0,0,0,3.13,3.34A17.86,17.86,0,0,0,49.58,83a11.23,11.23,0,0,0,3.21.47A12.8,12.8,0,0,0,62.66,78.63ZM48.94,74.24a16.87,16.87,0,0,1-4.33-2h-.24c-.06,0-.09-.06-.09-.19l4.1.38c1.33.13,2.64.19,3.93.19a40.71,40.71,0,0,0,4.81-.28h0a41.55,41.55,0,0,0,4.82-.85A12.21,12.21,0,0,1,57.84,74a13.23,13.23,0,0,1-4.41.76A12,12,0,0,1,48.94,74.24Z"/><path d="M4,144.26a19.09,19.09,0,0,0,5.21,2.29,21.51,21.51,0,0,0,5.7.76c.61,0,1.23,0,1.84-.09a16.38,16.38,0,0,1,1.85-.1,35.52,35.52,0,0,0,17-7.05,34.36,34.36,0,0,0,4.47-3.6c-.2.3-1.53,2.65-4,7l1.28,4.19L33.53,142c-.64.38-1.66,1-3.05,1.9s-2.84,1.91-4.33,3.05a32.54,32.54,0,0,0-4.25,3.43,15.43,15.43,0,0,0-3,3.62,6.42,6.42,0,0,0-.64,1.91,3.86,3.86,0,0,1-.24,2.57,1.44,1.44,0,0,1-.24.48.55.55,0,0,0-.16.38.65.65,0,0,1-.16.38,8.29,8.29,0,0,0-.32.86c-.11.31-.22.6-.32.86.32.88.56,1.62.72,2.19a6.54,6.54,0,0,0,.56,1.43,1.56,1.56,0,0,0,.4.76,1.18,1.18,0,0,0,.73.19,4.27,4.27,0,0,0,.79-.1c.32-.06.69-.16,1.12-.28a3.38,3.38,0,0,0,.72-.1,3,3,0,0,1,.73-.09,26,26,0,0,0,4,3.9A26.52,26.52,0,0,0,31,172.09a11.3,11.3,0,0,0,2.09,1,9.34,9.34,0,0,1,1.1.44H49.77l.21-.07c.41-.11.81-.24,1.21-.39.85-.38,1.2-.86,1-1.44a31.32,31.32,0,0,0-1.36-3.35l-5.94,1.92a10.14,10.14,0,0,0-1.21-.29,2.6,2.6,0,0,1-.88-.29c-.75-.13-1.1-.45-1-1s.24-1.67.56-3.46a30.56,30.56,0,0,0,6.9-6.72q3-4,5.78-8.26.8,2.28,1.68,4.67c.59,1.59,1.1,3.14,1.53,4.67q1,2.85,1.68,5.81a63.06,63.06,0,0,1,1.2,6.39l2.63,1.77H72.3L71.24,171A87.29,87.29,0,0,0,83,163.8a44,44,0,0,0,9.4-9.24,3.75,3.75,0,0,0,.72-1.52c.16-.63.3-1.27.4-1.91v-1a7.47,7.47,0,0,0-.8-3.71c-.54-1-1.34-.73-2.4.67A56.21,56.21,0,0,1,86.81,152a24.15,24.15,0,0,1-4.17,4.1,64,64,0,0,0-4.89-13.82,40,40,0,0,0-10.19-12.67l2.09-6.29a33.61,33.61,0,0,0-8-8.86,50.89,50.89,0,0,0-9.38-5.62,1.12,1.12,0,0,1,.48-.57,1.19,1.19,0,0,1,.63-.19,7.41,7.41,0,0,1,3.13,1,31.65,31.65,0,0,1,4.1,2.57,12.72,12.72,0,0,0,1,.76c.37.26.72.51,1,.76q2.25,1.72,3.93,3.24c1.13,1,1.85,1.65,2.17,1.91A12.33,12.33,0,0,0,74,121.4a21.53,21.53,0,0,0,6.42,1h1.28a5.08,5.08,0,0,0,1.28-.19,27.59,27.59,0,0,0,7.94-1.53,25,25,0,0,0,6.18-3,20.25,20.25,0,0,1,1.44-2.67,10.68,10.68,0,0,1,.72-1.71,6.51,6.51,0,0,1,.56-1h1.77a28.21,28.21,0,0,0,10.43-1.9q4.8-1.91,7.06-9.91a.5.5,0,0,1,.4-.19h.4a5.14,5.14,0,0,0,3-2.67,17.74,17.74,0,0,0,2-5c.1-.51.21-1,.32-1.52a7.23,7.23,0,0,0,.16-1.53,12.56,12.56,0,0,0-.08-1.62,3.35,3.35,0,0,0-.4-1.24c.21-.76.42-1.52.64-2.29a7.78,7.78,0,0,0,.32-2.09,9.51,9.51,0,0,0-.24-2,3.54,3.54,0,0,0-1.05-1.81c.22-.89.4-1.68.56-2.38a8,8,0,0,0,.24-1.81,4.57,4.57,0,0,0-1-3,8.77,8.77,0,0,0-3-2.1,6.14,6.14,0,0,1-1-.48,5.56,5.56,0,0,0-1.12-.48,4.55,4.55,0,0,1,1.93-.76,14.88,14.88,0,0,1,2.41-.19c.85,0,1.74,0,2.64.09s1.85.16,2.81.29,1.9.22,2.81.29,1.79.09,2.64.09a9,9,0,0,0,4.66-.76,4.11,4.11,0,0,0,2.08-3.81v-.38a1.79,1.79,0,0,1,.16-.57v-.77a4,4,0,0,0-.88-3A7.77,7.77,0,0,0,138,57.37a.91.91,0,0,1-.48-.1,1,1,0,0,0-.48-.09,21.66,21.66,0,0,0-3.2-.57,32.57,32.57,0,0,0-3.69-.19c-1.5,0-3,.06-4.58.19a31.69,31.69,0,0,0-4.73.76,49.25,49.25,0,0,0-11,3.52,17,17,0,0,0-7.62,6.2,9,9,0,0,0-.32.85,2.57,2.57,0,0,0-.16.86c0,.13,0,.19-.08.19s-.08.07-.08.19a3.94,3.94,0,0,1-.08.77,5.15,5.15,0,0,1-.24.76A23.24,23.24,0,0,1,99.4,75l-2.49,4.47C96.27,80.74,95.62,82,95,83.18a24.39,24.39,0,0,0-1.6,3.72,21.83,21.83,0,0,0-1,3.14,13.4,13.4,0,0,0-.4,3.15,12.85,12.85,0,0,0,.48,3.43A10,10,0,0,0,94,99.86a7.52,7.52,0,0,1,.64,1,5.18,5.18,0,0,0,.64,1c.75,1,1.44,2.07,2.08,3.15a6.71,6.71,0,0,1,1,3.52,8.72,8.72,0,0,1-.16,1.62,6.85,6.85,0,0,1-.64,1.81,33,33,0,0,0-2.32-7.72,12.35,12.35,0,0,0-3.94-5.05c-3,1.15-5.93,2.13-8.82,3a31.74,31.74,0,0,1-8.66,1.24,26.21,26.21,0,0,1-6.18-.76,23.14,23.14,0,0,1-6.34-2.67A12.11,12.11,0,0,0,59,98.63c-.8-.32-1.63-.6-2.48-.86a.51.51,0,0,1-.32-.1.62.62,0,0,0-.32-.09,6.48,6.48,0,0,0-.8-.38l-1-.38q9-1.33,14.28-10.1a48,48,0,0,0,6.58-19.06c.11-1,.19-2,.24-3s.08-1.94.08-3,0-2-.08-2.86-.13-1.77-.24-2.66a6,6,0,0,0-.08-1,5,5,0,0,1-.08-.86V50.7a7.16,7.16,0,0,1,.16-1.53V45.93a26.51,26.51,0,0,0-.16-3,21.53,21.53,0,0,0-.48-2.76,5.87,5.87,0,0,0-.48-1.43c-.21-.45-.42-.92-.64-1.43a8.59,8.59,0,0,1-.48-1,6.06,6.06,0,0,1-.48-.76,4.26,4.26,0,0,1,.8.09c.32.07.69.16,1.12.29h1a3.3,3.3,0,0,0,1.12-.19,1.12,1.12,0,0,0,.64-.57c.32-.89-.1-1.69-1.28-2.39a21.89,21.89,0,0,0-4-1.81c-1-.38-1.9-.73-2.81-1a6.14,6.14,0,0,1-2-1.05.63.63,0,0,1-.32-.1.32.32,0,0,1-.16-.28,16.32,16.32,0,0,1-1.2-3.72,19.65,19.65,0,0,1-.4-3.91V19.82a4,4,0,0,1,.16-1.14A15.93,15.93,0,0,1,65,16.39c.11-.76.21-1.53.32-2.29.11-1.14.21-2.26.32-3.33a29.36,29.36,0,0,0,.16-3,8.3,8.3,0,0,0-1.53-5.62Q62.57,0,57.27,0c-.75,0-1.58,0-2.48.1a20.57,20.57,0,0,0-3.13.48A80.81,80.81,0,0,0,27.27,8,65.14,65.14,0,0,0,6.41,25c-.54.12-1,.66-1.28,1.62a9.81,9.81,0,0,0-.48,3.14v.76a13.34,13.34,0,0,0,.56,2.58,4,4,0,0,0,1,1.81q.17.18,1.77,1.62t3.37,3.14c.1.13.21.26.32.38L15,43.26A8.6,8.6,0,0,1,16.52,45v.38a.4.4,0,0,1-.08.28.43.43,0,0,0-.08.29,3.09,3.09,0,0,0,.4,1.62,3.89,3.89,0,0,0,.89,1.05,3.76,3.76,0,0,0,.56.57,2.86,2.86,0,0,1,.4.38,13.43,13.43,0,0,0,.48,4,13.1,13.1,0,0,0,1.28,2.86A13.57,13.57,0,0,0,21.57,58c.48.57,1,1.24,1.52,2a10.44,10.44,0,0,0-2.8,4.1,14.22,14.22,0,0,0-1.05,5.43,12,12,0,0,0,.4,3,10.61,10.61,0,0,0,1.21,2.86,7.61,7.61,0,0,0,3.13,3,10.87,10.87,0,0,0,5.05,1h1.44a2,2,0,0,0,.64-.1,2.3,2.3,0,0,1,.64-.09A42.82,42.82,0,0,0,36,88.8a16.42,16.42,0,0,0,7,6.48l-3,2.86a1.06,1.06,0,0,0-.64-.77A3.66,3.66,0,0,0,38,97.18a8.32,8.32,0,0,0-1.12.1,11.23,11.23,0,0,0-1.28.28c-.32.13-.67.26-1,.38s-.73.26-1,.39a6.48,6.48,0,0,0-1,.38,6,6,0,0,0-.72.38l-2.89-9.91-3.05,7.06.32-6.1L12,92.61l1.12,5.53-7.54,3.24L8.81,114a3.6,3.6,0,0,0-1.75,1,1.78,1.78,0,0,0-.48,1.14,2.16,2.16,0,0,0,.08.67,2.91,2.91,0,0,1,.08.66,2.16,2.16,0,0,0,.08.67,2.51,2.51,0,0,1,.08.67A10.78,10.78,0,0,1,6,122.92q-.88,2.1-2,4.19a2,2,0,0,1-.32.57.62.62,0,0,0-.16.38A49.43,49.43,0,0,0,1,132.92a11.6,11.6,0,0,0-1,4.67,6.77,6.77,0,0,0,1,3.53A10.86,10.86,0,0,0,4,144.26Zm93.09-44-.72-.86a6.49,6.49,0,0,1-.72-1.05,12,12,0,0,1-1-2.38,8,8,0,0,1-.4-2.57,12.17,12.17,0,0,1,.32-2.76c.2-1,.47-1.94.79-3a26.7,26.7,0,0,1,1.53-3.62c.59-1.14,1.15-2.28,1.68-3.43s1.24-2,1.77-2.95l1.44-2.58a16.08,16.08,0,0,0,1.11-2.47A11.81,11.81,0,0,0,103.5,70q.48-3.81,5.54-6.2a46.2,46.2,0,0,1,11-3.52c2-.38,4-.67,5.94-.86s3.64-.28,5.14-.28c1.06,0,2,0,2.8.09a9.63,9.63,0,0,1,1.85.29,1.53,1.53,0,0,1,.56.09,1.54,1.54,0,0,0,.56.1,6.82,6.82,0,0,1,1.6.85,2.43,2.43,0,0,1,.64,2v.73A2.39,2.39,0,0,1,138,65.16a5,5,0,0,1-2.57.57,15,15,0,0,1-2.41-.19l-2.73-.38c-1-.12-1.92-.22-2.88-.28s-1.93-.1-2.89-.1a10.6,10.6,0,0,0-4.26.48,7.61,7.61,0,0,0-3.45,2.38,3,3,0,0,1-.88-.19l-1.2-.38a4.31,4.31,0,0,1-.88-.09,7.11,7.11,0,0,1-.89-.29,5.88,5.88,0,0,1-1.11-.1,5.2,5.2,0,0,0-1-.09,4.62,4.62,0,0,0-1.69.28,1.2,1.2,0,0,0-.72,1.24.71.71,0,0,0-.56-.19h-1a1.3,1.3,0,0,0-.73.29,1.15,1.15,0,0,0,0,1.43.89.89,0,0,0,.57.19c.1.13.18.19.24.19h1a2.73,2.73,0,0,1,1.12.67,3.47,3.47,0,0,1,.64,2,1,1,0,0,0,.24.66,2,2,0,0,0,.56.48,1.26,1.26,0,0,0,.32.29,1.26,1.26,0,0,1,.32.29,4.18,4.18,0,0,1,.88,1,2.59,2.59,0,0,1,.4,1.53v.38a.61.61,0,0,0-.16.28v.29a1,1,0,0,0,0,.76,1.12,1.12,0,0,0,.48.57.62.62,0,0,0,.16.39c.11.12.22.25.32.38a6.59,6.59,0,0,1,.64,1,2.71,2.71,0,0,1,.32,1.34,4,4,0,0,1-.16,1.14q-.17.57-.48,1.53a.5.5,0,0,0-.16.28v.29a.84.84,0,0,0,.32.66,1,1,0,0,0,.64.29.63.63,0,0,0,.32-.1,1,1,0,0,0,.32-.48,6.85,6.85,0,0,0,.64-1.81,9.67,9.67,0,0,0,.16-1.62,5.25,5.25,0,0,0-.32-2.57,5.51,5.51,0,0,0-1.6-2.19v-.29a.5.5,0,0,1,.16-.28v-.57a4.45,4.45,0,0,0-.72-2.58,6.33,6.33,0,0,0-2-1.81,12.48,12.48,0,0,0-.4-1.71,3.33,3.33,0,0,0-.56-1.15,27.79,27.79,0,0,1,3.29.19,18,18,0,0,1,2.81.58,4.28,4.28,0,0,1,.64.48,2.79,2.79,0,0,0,.8.48c.42.12.88.28,1.36.47a3.57,3.57,0,0,0,1.36.29,8.41,8.41,0,0,1,1.85.86,2,2,0,0,1,.72,1.81,6.53,6.53,0,0,1-.08.76,7.21,7.21,0,0,1-.24,1.14q-.15.76-1.2-.09c-.7-.57-1.48-1.24-2.33-2a1.47,1.47,0,0,0-.32-.29,1.22,1.22,0,0,1-.32-.28,11.74,11.74,0,0,0-2.41-1.72c-.74-.38-1.27-.26-1.59.38a1.06,1.06,0,0,0,.16,1.43,10.51,10.51,0,0,0,1.43,1.24,6.55,6.55,0,0,1,.8.38c.21.13.42.26.64.38l1.53,1a13.69,13.69,0,0,1,1.36,1.05,12.49,12.49,0,0,1,2.08,1.9,4,4,0,0,1,.8,2.67v1a3.42,3.42,0,0,1-.32,1.33,4.11,4.11,0,0,1-.64-.48,4.19,4.19,0,0,0-.63-.48c-.54-.5-1-1-1.44-1.43a2.94,2.94,0,0,1-.8-1.61.62.62,0,0,1,.16-.39v-.76a1.45,1.45,0,0,0-.32-1,.66.66,0,0,0-.8-.19,1,1,0,0,0-.56.19,1.41,1.41,0,0,0-.4.57,2.15,2.15,0,0,0-.16.86v.86a4,4,0,0,0,.8,2.67A6,6,0,0,0,120.34,85l.16.19c.53.38,1.09.83,1.68,1.34a3.38,3.38,0,0,1,1,2.29v.38a7.14,7.14,0,0,1-.25,1.71c-.16.64-.34,1.33-.56,2.1a10.9,10.9,0,0,1-.88,2.19c-.38.69-.73,1.3-1,1.81a2.21,2.21,0,0,0-.57.48c-.16.19-.29.28-.4.28a7.17,7.17,0,0,1,.08-1,5,5,0,0,0,.08-.86,2.12,2.12,0,0,0,.16-.86V94a24.61,24.61,0,0,0-.24-3.43,16.31,16.31,0,0,0-.88-3.43,1.35,1.35,0,0,0-.4-.57,1,1,0,0,0-.56-.19.93.93,0,0,0-.64.29,1.05,1.05,0,0,0-.32.85v.39a21.38,21.38,0,0,1,1,6.28,17.61,17.61,0,0,1-3,10.11,12.87,12.87,0,0,1-8.27,5.53,4.42,4.42,0,0,1-1.2.19h-3a4.47,4.47,0,0,1-1-.1,5,5,0,0,0-1-.09.84.84,0,0,1,.08-.38,1,1,0,0,0,.08-.38v-.57a8.66,8.66,0,0,0-1.12-4.29Q98.39,102.16,97.1,100.26ZM67,31.93h0a15,15,0,0,1,3.61,1h-1a18.25,18.25,0,0,0-3.21.29,20,20,0,0,0-3.21.85c-1.17.38-2.29.8-3.37,1.24s-2.14.93-3.21,1.43l-2.24,1.15a17,17,0,0,1-2.25,1c-.54.26-1.09.51-1.68.77s-1.15.5-1.69.76c-1.06.38-2.13.79-3.21,1.24s-2.14.85-3.21,1.24a26.23,26.23,0,0,1-2.88,1,22.07,22.07,0,0,1-2.89.58c-.64.13-1.37.25-2.17.38l-2.49.38a2.53,2.53,0,0,1-.63.28,2,2,0,0,1-.64.1c.85-.64,1.78-1.27,2.8-1.91s2-1.26,3-1.9q4.34-2.67,9.15-5.15a49.79,49.79,0,0,1,9.79-3.81,27.52,27.52,0,0,1,3.93-.86,28.63,28.63,0,0,1,3.93-.28A25.08,25.08,0,0,1,67,31.93Zm-37-4a7.16,7.16,0,0,1,1-1.43A33,33,0,0,1,38,21.64a60.18,60.18,0,0,1,8.66-3.71,55.72,55.72,0,0,1,6.58-1.81,45.27,45.27,0,0,1,5.78-.86,4.51,4.51,0,0,1,3,3.14,30,30,0,0,1,1,5.05v.38c.11,1,.24,2,.4,2.86a11.67,11.67,0,0,0,.72,2.47h-.8c-.64,0-1.31,0-2,.1s-1.42.16-2.16.28a38.32,38.32,0,0,0-12.68,3.91,112.84,112.84,0,0,0-11.72,6.78.9.9,0,0,1-.4.29,1.12,1.12,0,0,0-.4.28,6.78,6.78,0,0,1-.32-1.33c-.1-.63-.21-1.27-.32-1.91s-.42-1.49-.64-2.19-.48-1.11-.8-1.24a4.6,4.6,0,0,0-.4-.76,5.51,5.51,0,0,1-.4-.76,3.08,3.08,0,0,1-.32-.48,3.08,3.08,0,0,0-.32-.48,8.12,8.12,0,0,1-.56-1.24,3.79,3.79,0,0,1-.24-1.24A2.82,2.82,0,0,1,30,27.93ZM19.56,42a14.35,14.35,0,0,1-1.76-1.81,3.64,3.64,0,0,0-.4-.38,2.4,2.4,0,0,1-.4-.38c-.53-.76-1-1.4-1.44-1.9l-1-1.15c-.42-.38-.88-.79-1.36-1.24L11.88,34a9.64,9.64,0,0,0-1.37-1.34c-.48-.38-.93-.76-1.36-1.14a1.52,1.52,0,0,1-.24-.38,1,1,0,0,1-.08-.38.83.83,0,0,1,.32-1c.32-.26.64-.19,1,.19s1,.83,2,1.71,2.17,1.91,3.45,3.05a7.46,7.46,0,0,0,.72.77,8.39,8.39,0,0,1,.72.76,33.36,33.36,0,0,1,3.21,3.62h0q1.27,1.72.63,2.49C20.52,42.59,20.09,42.49,19.56,42Zm1.61,11.53c-.11-.38-.21-.76-.32-1.14a4.09,4.09,0,0,1-.16-1.15,5,5,0,0,1,.08-.86,4.89,4.89,0,0,0,.08-.85,12.36,12.36,0,0,1,2.25-4.1,30.28,30.28,0,0,1,3.53-3.72c.85-.76,1.68-1.46,2.49-2.09s1.46-1.15,2-1.53a10.8,10.8,0,0,1,.56,1.81h0c.16.7.3,1.36.4,2-.21.13-.46.29-.72.48s-.56.41-.88.67a35.5,35.5,0,0,0-5.3,4.57A20.52,20.52,0,0,0,21.17,53.57ZM40.25,89.31a34.58,34.58,0,0,1-6.42-12.48,1.13,1.13,0,0,0-.8-.77,5.74,5.74,0,0,0-1.6-.18h-4A10,10,0,0,1,25,75.21a4.52,4.52,0,0,1-1.92-1.62,14.53,14.53,0,0,1-.8-1.91,5.83,5.83,0,0,1-.32-1.9v-.57a10,10,0,0,1,1.6-4.77,5.39,5.39,0,0,1,3.05-2.67,2.09,2.09,0,0,1,1.84.1A3.86,3.86,0,0,1,30,63.68a8.06,8.06,0,0,0,1.92,2.67,3.19,3.19,0,0,0,1.93.76A3,3,0,0,0,36.49,66a7.81,7.81,0,0,0,1.68-2.86,9.92,9.92,0,0,0,.24-1,5,5,0,0,0,.08-.86,1.42,1.42,0,0,0-.08-1.05,1.38,1.38,0,0,0-.72-.67.42.42,0,0,1-.32-.19h-.32a1,1,0,0,0-1,.76l-.64,1.53a9.05,9.05,0,0,1-.4,1.14,3.83,3.83,0,0,1-.56,1c-.43.51-.8.45-1.12-.19a7,7,0,0,1-.64-2.29,6.19,6.19,0,0,0-.08-1.05,4.91,4.91,0,0,1-.08-.86v-.76a.62.62,0,0,1,.16-.38V58c0-.51-.13-.83-.4-1a3.05,3.05,0,0,0-1.2-.19H29.69c0,.13-.06.19-.16.19H28.25a4.9,4.9,0,0,1-1.6-.28,1.85,1.85,0,0,1-1.12-1,1.36,1.36,0,0,1-.24-.38,1,1,0,0,1-.08-.38,4.4,4.4,0,0,1-.24-.86,4.91,4.91,0,0,1-.08-.67,4,4,0,0,1,2.57-3.71,28.7,28.7,0,0,1,5.62-2c1.07-.26,2.09-.48,3.05-.67s1.86-.35,2.72-.48a3.07,3.07,0,0,1,.64-.29,2.3,2.3,0,0,1,.64-.09,1.62,1.62,0,0,1-.16.57v1.15a3.64,3.64,0,0,0,.32,1.62.87.87,0,0,0,1.12.47.83.83,0,0,0,.56-.47,2.56,2.56,0,0,0,.08-.67V47.66a4.62,4.62,0,0,1,.16-1.33,1.81,1.81,0,0,1,.64-1,4.35,4.35,0,0,1,2-1A11,11,0,0,1,47.34,44c.86,0,1.63,0,2.33.09a9.52,9.52,0,0,1,1.68.29.84.84,0,0,0,1-.19,1.16,1.16,0,0,0,.32-.76v-.38a1.79,1.79,0,0,0-.48-.67,2.48,2.48,0,0,0-1-.48c.75-.38,1.53-.76,2.33-1.14s1.58-.76,2.33-1.15l2.57-1.14L61,37.37c1.39-.51,2.78-1,4.18-1.34a15.06,15.06,0,0,1,4-.57,5.82,5.82,0,0,0,.4,1,5.82,5.82,0,0,1,.4,1.05l.64,1.14.64,1.14c.21.64.42,1.31.64,2a8.4,8.4,0,0,1,.32,2.39v1.14a4.36,4.36,0,0,1-.16,1.14,12.49,12.49,0,0,0-.24,1.72c-.06.64-.09,1.26-.09,1.9,0,1,.06,2.07.16,3.15s.22,2.13.32,3.14.22,2.06.32,3.15a31,31,0,0,1,.16,3.14v1.53a4.3,4.3,0,0,1-.08,1h0a4,4,0,0,0-.1.77,13,13,0,0,0-.24,1.52A13.5,13.5,0,0,1,72,69a51.73,51.73,0,0,1-6.74,16.86,15.64,15.64,0,0,1-13.64,7.91A13.66,13.66,0,0,1,40.25,89.31Zm4.84,6.76,1.6.38h0l1.6.38L19.42,122.56l.48-4.2Zm-19.5,5.62a12.12,12.12,0,0,1,.72-2.38A13.21,13.21,0,0,1,27.19,97c.38-.76.83-1.72,1.36-2.86l1.61,6.1c-.74.76-1.55,1.52-2.41,2.29l-2.56,2.28A30.28,30.28,0,0,1,25.59,101.69Zm-1.24-9-1,13.72A15.88,15.88,0,0,1,22,107.5a13.68,13.68,0,0,0-1.6,1.34l-1-13.72a1,1,0,0,1-.48.28,3.07,3.07,0,0,0-.64.29,26.91,26.91,0,0,0-2.64,1.43c-.49.31-.89,0-1.21-.86a2.79,2.79,0,0,0-.16-.86c-.1-.32-.21-.67-.32-1.05ZM7.53,102.74,18,98l1,11.81c-.74.51-1.41,1-2,1.34s-1.21.76-1.85,1.14a11.21,11.21,0,0,1-2.08,1,14.08,14.08,0,0,1-2.41.57ZM3.4,133.13q1-2.38,2.25-4.86l.16-.38A39.26,39.26,0,0,0,8,123.41a11.42,11.42,0,0,0,.89-4.28v-.86a2.52,2.52,0,0,0-.16-.86q-.16-.76.24-1a7.15,7.15,0,0,1,1-.38H11.1a6.53,6.53,0,0,0,1.59-.19c.53-.12,1-.25,1.44-.38A22.37,22.37,0,0,0,20,112.17q2.81-2.19,5.54-4.48c1.06-1,2.1-2,3.12-3s2-1.81,2.81-2.57a3.23,3.23,0,0,1,1-.86,6.35,6.35,0,0,0,1-.67,7.46,7.46,0,0,1,3.51-.76h1L20.21,115.51v-.29a.56.56,0,0,1,.16-.29v-.38a1.37,1.37,0,0,0-.16-.66,1.23,1.23,0,0,0-.48-.48c-.43,0-.77.57-1,1.71s-.51,2.42-.72,3.81a28,28,0,0,0-.4,3.53c-.06,1.08-.09,1.68-.09,1.81a.84.84,0,0,1-.08.38,1,1,0,0,0-.08.38.65.65,0,0,0-.16.38v.38a2.64,2.64,0,0,0,.32,1.33c.21.39.43.51.64.39a1.61,1.61,0,0,0,.57-.67,6,6,0,0,0,.4-1.62l19.57-17.34.86,4.76a46.32,46.32,0,0,0-4.33,7.43,68.64,68.64,0,0,0-3,7.81c.42.64.85,1.24,1.28,1.81a12.27,12.27,0,0,0,1.44,1.62,24,24,0,0,0,1.68,1.81c.59.57,1.21,1.17,1.85,1.81a41.06,41.06,0,0,1-8.27,5.81,37.94,37.94,0,0,1-9.7,3.72l-2.57.38a17,17,0,0,1-2.57.19,21,21,0,0,1-5.29-.66,15.37,15.37,0,0,1-4.82-2.2,5.5,5.5,0,0,1-2-2.09,7.71,7.71,0,0,1-.73-2.48A12,12,0,0,1,3.4,133.13Z"/><path d="M44.28,56A2,2,0,0,0,46,57.38a1.92,1.92,0,0,0,1.85-1.24,6.73,6.73,0,0,0,.56-2.77,7.31,7.31,0,0,0-.56-2.85A1.92,1.92,0,0,0,46,49.18a2,2,0,0,0-1.76,1.24,6,6,0,0,0-.64,2.76A6.71,6.71,0,0,0,44.28,56Z"/><path d="M64,54.9a1.67,1.67,0,0,0,1.6-1.24,7.06,7.06,0,0,0,.48-2.57,5.82,5.82,0,0,0-.4-2.86A1.83,1.83,0,0,0,64,46.89,1.65,1.65,0,0,0,62.42,48a6.76,6.76,0,0,0-.48,2.67,5.56,5.56,0,0,0,.4,2.85h0A1.83,1.83,0,0,0,64,54.9Z"/><path d="M60.9,45.09a.87.87,0,0,0,.88.09A.42.42,0,0,0,62.1,45q3.21-2.87,4.09-2.29a3.72,3.72,0,0,1,1.37,1.91v.19A3.29,3.29,0,0,0,68,46h0a1,1,0,0,0,.8.48.77.77,0,0,0,.72-.48,2.11,2.11,0,0,0,.24-1,3.27,3.27,0,0,0-.08-.76,3.84,3.84,0,0,1-.08-.76,10.57,10.57,0,0,0-1.27-1.91,2.79,2.79,0,0,0-2.25-1,7,7,0,0,0-2.25.48,9.18,9.18,0,0,0-2.88,2l-.32.38a.82.82,0,0,0-.16.57v.19A1,1,0,0,0,60.9,45.09Z"/></svg>