<svg id="Layer_1" data-name="Layer 1" xmlns="http://www.w3.org/2000/svg" viewBox="0 0 134.31 172.58"><title>avatar_icons</title><path d="M.64,140.48a7.58,7.58,0,0,0,1.66.57,7.83,7.83,0,0,0,1.67.18A7.06,7.06,0,0,0,8,140a14.64,14.64,0,0,0,3.41-3.3,14,14,0,0,0,3.81,1.6,15.84,15.84,0,0,0,3.81.47,14.3,14.3,0,0,0,6.51-1.6,18.16,18.16,0,0,0,5.72-4.62.78.78,0,0,0,.16-.47v-.47a20.35,20.35,0,0,0-.32-3c-.21-1.25-.48-2.57-.8-4-.09-.34-.17-.69-.23-1a4,4,0,0,0-.24-.84c-.32-1.26-.61-2.43-.87-3.49s-.46-1.86-.56-2.36c.53-.75,1-1.48,1.51-2.17l1.51-2.17c.42-.63.89-1.29,1.43-2a18.4,18.4,0,0,0,1.42-2.17l7.15,9.8a44,44,0,0,0-2.38,8,41.75,41.75,0,0,0-.8,8.2v2a11,11,0,0,0,.16,2c-.53.62-1.09,1.25-1.67,1.88s-1.14,1.26-1.67,1.89l-14,29H13.49v1.38H40.25a5.44,5.44,0,0,0,.15-.54,7.42,7.42,0,0,0,.08-1q.47-1.73.87-3.54a36.55,36.55,0,0,1,1-3.72c.32-.89.58-1.75.79-2.58a10.81,10.81,0,0,0,.32-2.77v-.94a1.5,1.5,0,0,0-.08-.47,2,2,0,0,1-.07-.48,28.32,28.32,0,0,0,3-4.43c.95-1.69,1.91-3.48,2.86-5.37a2.39,2.39,0,0,0,.32-.56c.1-.26.21-.51.31-.76a30.8,30.8,0,0,0,6,1.7,38.15,38.15,0,0,0,6.66.57,44.33,44.33,0,0,0,6.91-.57q3.57-.57,7.22-1.32l.16,7.54-7.49,19.29h26L95.25,171l-7.3-.19a17.15,17.15,0,0,0,.47-2.35,15.67,15.67,0,0,1,.48-2.36q1.11-7,1.75-13.86T91.28,139v-3.69c0-1.19,0-2.42-.16-3.68l4,3.21a8.12,8.12,0,0,0,.56-.75,5.51,5.51,0,0,0,.4-.76,22.39,22.39,0,0,0,1.51-3.86,34.06,34.06,0,0,0,.87-4.25,9.79,9.79,0,0,0-.71-.75,8.44,8.44,0,0,1-.72-.75q-.8-.57-1.59-1.23A11.9,11.9,0,0,1,94,121.05a34.53,34.53,0,0,1-2.93-2.74,27.34,27.34,0,0,1-2.46-2.92,27.46,27.46,0,0,0-1.19-3.87c-.48-1.19-1-2.35-1.51-3.48l18.57,14.9q1.91-3.78,3.81-7.64c1.27-2.58,2.54-5.12,3.81-7.64-1,.26-1.85.47-2.7.66a11.46,11.46,0,0,1-5.08,0c-.84-.19-1.69-.4-2.54-.66a16.71,16.71,0,0,1-3-1.6c-1.06-.69-2.17-1.47-3.34-2.35a29.94,29.94,0,0,0-5.16-3.3,17.49,17.49,0,0,0-5.63-1.8,2.62,2.62,0,0,0-1-.18h-2a4,4,0,0,0-1.19.18,4,4,0,0,0-1.19.19l-1,.38a1.31,1.31,0,0,0-.72-.47,2.31,2.31,0,0,1-.71-.29l9-8.1,2.22,3,20-18.85V73.25a6.7,6.7,0,0,0-.16-1.41,11.11,11.11,0,0,0-.08-1.41,9.89,9.89,0,0,0-.23-1.23l.31-.38.32-.37.24-.29.24-.28a26,26,0,0,0,1.82-2.46,5,5,0,0,0,.87-2.82v-.85a2.11,2.11,0,0,0-.31-1c1.48-1.38,2.9-2.83,4.28-4.34s2.71-3.07,4-4.71L121,49.77l1.59-1.88a1.93,1.93,0,0,0,.63-.1,3.07,3.07,0,0,1,.8-.09c.52-.12,1.13-.25,1.82-.38l2.14-.38a12.74,12.74,0,0,0,4.37-1.5,3.7,3.7,0,0,0,2-3.4,8.59,8.59,0,0,0-.08-1.13,6.09,6.09,0,0,0-.4-1.32,2.18,2.18,0,0,0-1.43-.85,9.33,9.33,0,0,0-2.23-.28h-4.12a8.29,8.29,0,0,0,.71-1,11.68,11.68,0,0,0,.72-1.41,9.56,9.56,0,0,0,.8-1.6c.21-.57.42-1.16.63-1.79a8.79,8.79,0,0,0,.48-1.42,6.62,6.62,0,0,0,.16-1.41,4.46,4.46,0,0,0-.56-2.26,3,3,0,0,0-1.83-1.32,15.69,15.69,0,0,0-2.14-.57,12.3,12.3,0,0,0-3.73-.09,11.32,11.32,0,0,1-1.43.09,18.8,18.8,0,0,0-3.65,1.13,29,29,0,0,0-3.33,1.7c-1.38-.25-2.78-.47-4.21-.66s-2.88-.41-4.37-.66a10.2,10.2,0,0,1-1.35-.09,12.81,12.81,0,0,1-1.5-.29l-2.86-.37L95.73,26h-.48a2.63,2.63,0,0,0-2.14,1.13,6.45,6.45,0,0,0-1.19,2.64v.38a4.14,4.14,0,0,0,1.74,3.77,8.55,8.55,0,0,0,4,1.32c.5.12,1,.21,1.51.28a12.26,12.26,0,0,0,1.35.1,5,5,0,0,1,1,.09,4.38,4.38,0,0,0,.8.1A10.94,10.94,0,0,0,100,39.88a15.46,15.46,0,0,0-.64,4.43c0,.75,0,1.48.08,2.17s.13,1.41.24,2.17,0,1.51.08,2.26.08,1.51.08,2.26v.38a2.24,2.24,0,0,0,.4.66.7.7,0,0,0,.55.28A17.72,17.72,0,0,1,105,57a11.41,11.41,0,0,1,3.1,3.86,4.59,4.59,0,0,1,.71,2.36,2.85,2.85,0,0,1-.71,1.6,2.46,2.46,0,0,1-.64.56,2.85,2.85,0,0,0-.63.57,22.55,22.55,0,0,0-3.49-7.64,9.65,9.65,0,0,0-5.72-4.05q-4,4.34-8,8.3A103.7,103.7,0,0,1,81.29,70l.48,6.41-8.26,7.17c.32-.88.66-1.79,1-2.73s.72-1.86,1-2.74a94.89,94.89,0,0,0,3-9.14A48.89,48.89,0,0,0,80.18,59h4A3.21,3.21,0,0,0,87,57.6a4.64,4.64,0,0,0,.8-3.11,5.07,5.07,0,0,0-.56-2.26,3.55,3.55,0,0,0-1.82-1.7,9.9,9.9,0,0,0,1.74-3.87,20.59,20.59,0,0,0,.48-4.43,14.07,14.07,0,0,0-.4-4.43,12.74,12.74,0,0,0-1.67-3.86,10.39,10.39,0,0,0-2.7-2.83A5.64,5.64,0,0,0,79.54,30h-.63l-1.27.38-.64.37a27.46,27.46,0,0,0-3.18-6.22A32.42,32.42,0,0,0,69.7,19.8c-.43-.38-.85-.79-1.27-1.23A10.36,10.36,0,0,0,67,17.35a12.32,12.32,0,0,0-3.81-6.51,16.1,16.1,0,0,0-6-3.49,5.85,5.85,0,0,0-.56-.28A1.35,1.35,0,0,0,56,7a.55.55,0,0,0-.16-.38,1.91,1.91,0,0,0-.47-.38.68.68,0,0,0-.16-.38.44.44,0,0,0-.32-.18,4.25,4.25,0,0,0-.55-.57,2.07,2.07,0,0,1-.4-.38,18.92,18.92,0,0,0-6.19-3.58A21.64,21.64,0,0,0,40.8,0a17.46,17.46,0,0,0-1.91.1c-.63.06-1.26.09-1.9.09A33.73,33.73,0,0,0,24.13,5.37a30.62,30.62,0,0,0-9.68,9.9.65.65,0,0,1-.16.38,1.47,1.47,0,0,0,.08,1.42,1.18,1.18,0,0,0,1,.66h.32a.48.48,0,0,0,.31-.19l.48-.57A27.29,27.29,0,0,1,26,7.45,28.77,28.77,0,0,1,38.26,3.4a2.37,2.37,0,0,1,1-.19h.95a14.12,14.12,0,0,1,1.59.09,12.12,12.12,0,0,0,1.59.1l1.59.38,1.58.37H44.77a27.17,27.17,0,0,0-18.34,7,75.47,75.47,0,0,0-14,16.4.62.62,0,0,1-.16.38.56.56,0,0,0-.16.28v.28a2,2,0,0,0,.48,1.32,1,1,0,0,0,1.11.38,2.4,2.4,0,0,1,.4-.38,2.4,2.4,0,0,0,.4-.38,5.78,5.78,0,0,0,.55-.75,4.51,4.51,0,0,0,.4-.75,6,6,0,0,0,.56-.76,6.64,6.64,0,0,1,.56-.75,30.29,30.29,0,0,0-1.75,5.65A39.46,39.46,0,0,0,14,38.28a6.89,6.89,0,0,0-.16,1.5v1.51a41.8,41.8,0,0,0,2.38,14,26.78,26.78,0,0,0,7.14,11.12,4.72,4.72,0,0,0-.71.56c-.27.26-.56.51-.87.76a17.9,17.9,0,0,0-1.35,1.41,2.18,2.18,0,0,0-.56,1.42,1.5,1.5,0,0,0,.08.47,1.11,1.11,0,0,0,.24.47,4.14,4.14,0,0,1,.55.38.75.75,0,0,0,.4.19,1.79,1.79,0,0,0,.72-.19,5,5,0,0,0,.87-.57,5.32,5.32,0,0,1,.48-.47,5.64,5.64,0,0,0,.63-.66l.87-1a3.47,3.47,0,0,1,.72-.66c.63.64,1.24,1.2,1.83,1.7a14.25,14.25,0,0,1,1.5,1.51,20.16,20.16,0,0,1,2.39,3.49A18.85,18.85,0,0,1,32.71,80c.11.38.32,1.1.64,2.17a32.87,32.87,0,0,0,1.27,3.48,24.1,24.1,0,0,0,1,2.46,18.48,18.48,0,0,0,1.19,2.07l.24.28.24.29-1,1.7L27.47,96A99.05,99.05,0,0,1,22,105.59a62.36,62.36,0,0,1-6.43,8.3L14,119.36l.79,3.21a1.7,1.7,0,0,0-.31-.29,1.08,1.08,0,0,1-.32-.28l-.64-.38-.63-.37a11.82,11.82,0,0,0-2.94-1.6c-.9-.32-1.51-.1-1.82.66s-.64,1.72-1,2.54-.63,1.61-1,2.36-.79,1.7-1.11,2.45-.64,1.51-1,2.26c-.12.26-.38.76-.8,1.51s-.85,1.51-1.27,2.26l-.32.76c-.11.25-.22.5-.32.75a15.94,15.94,0,0,0-1,2.17,5,5,0,0,0-.4,1.79,1.82,1.82,0,0,0,.16.76A1.14,1.14,0,0,0,.64,140.48ZM91.28,121a14.76,14.76,0,0,0,1.75,1.6,14,14,0,0,0,1.66,1.7h0c.58.5,1.19,1.07,1.82,1.7a19.31,19.31,0,0,1-.56,3.2,14.27,14.27,0,0,1-1.19,3L91,129a46.89,46.89,0,0,0-.55-5q-.41-2.35-.72-4.62C90.22,119.85,90.75,120.39,91.28,121ZM80.89,100.59a1.77,1.77,0,0,1,.56-.09h1.81a1.41,1.41,0,0,1,.72.19,14.53,14.53,0,0,1,5.55,1.51,23.81,23.81,0,0,1,4.93,3.2,42.61,42.61,0,0,0,6,3.68,14.7,14.7,0,0,0,6.67,1.6h1.43l-4.76,9.24-20-16a.46.46,0,0,1-.08.28.31.31,0,0,1-.24.1,8.58,8.58,0,0,0-1.51-2l-1.67-1.6A1.54,1.54,0,0,0,80.89,100.59Zm16-69.86a3,3,0,0,1-.64,1.13h0a1.78,1.78,0,0,1-1.44.56,1.28,1.28,0,0,1-.71-.75,3.32,3.32,0,0,1-.24-1.32,2.72,2.72,0,0,1,.16-.85,2.4,2.4,0,0,1,.48-.85c.63-.63,1.16-.69,1.58-.19a3.64,3.64,0,0,1,.8,1.89Zm14.36,2.83a16.12,16.12,0,0,1,2.3-2.07c.43-.25.82-.47,1.2-.66h0a11,11,0,0,1,1-.47l-4.92,6.41a.78.78,0,0,0-.4-.47,4.25,4.25,0,0,1-.56-.29A5.64,5.64,0,0,1,111.2,33.56ZM106.43,54.5a16,16,0,0,0-4-2.45c0-.63,0-1.23-.08-1.8a17,17,0,0,1-.08-1.79,12.2,12.2,0,0,1-.24-1.7c0-.63-.08-1.2-.08-1.7a16.57,16.57,0,0,1,.48-4,7,7,0,0,1,1.74-3.2,1.58,1.58,0,0,1,1.59-.57,6.06,6.06,0,0,1,1.91.76,14.8,14.8,0,0,1,1.27.85A6.78,6.78,0,0,1,110,40a14,14,0,0,0,.95,1c.32.32.58.6.79.85a4.85,4.85,0,0,1,.64,1,13.09,13.09,0,0,0,.8,1.41,7.4,7.4,0,0,0,1.19,2,1.18,1.18,0,0,0,1.51.47,1.58,1.58,0,0,0,.55-.57,1.42,1.42,0,0,0,.24-.75,4.07,4.07,0,0,0-.32-1.41,19.06,19.06,0,0,0-.79-1.79,10.49,10.49,0,0,1-.64-.85c-.21-.32-.42-.66-.63-1l-1.19-1.41-.87-1,6.51-8.67c-.11,0-.11,0,0-.1a.94.94,0,0,1,.47-.09h.16a.83.83,0,0,1,.64-.19,4.28,4.28,0,0,0,.87-.09,3.63,3.63,0,0,1,.87-.1,3,3,0,0,0,.72-.09,3.38,3.38,0,0,1,.71-.1,4.79,4.79,0,0,1,2.7.57,1.75,1.75,0,0,1,.79,1.51,5.48,5.48,0,0,1-.47,2.07,23.64,23.64,0,0,1-1.11,2.26,2.79,2.79,0,0,0-.32.47,6.65,6.65,0,0,0-.32.66c-.53.88-1,1.7-1.51,2.45a3.84,3.84,0,0,0-.71,1.89,1,1,0,0,0,.32.85,1.35,1.35,0,0,0,1,.28c1.37.13,2.72.22,4,.28h0c1.32.06,2.62.09,3.88.1-.11.75-.72,1.28-1.83,1.6a21.39,21.39,0,0,1-3.57.66h-.16c-1.06.12-2.06.25-3,.37a2.5,2.5,0,0,0-1.9,1l-1,1.22-1.19,1.42c-1.48,1.76-3,3.48-4.44,5.18s-3,3.3-4.61,4.81h-.16A14,14,0,0,0,106.43,54.5Zm-21.9,1.13a3.42,3.42,0,0,1-1.66.37H81.6a.42.42,0,0,1-.32-.19H80.17v-1.7a1.86,1.86,0,0,0,.47-.09,2.82,2.82,0,0,0,.64-.28,3.38,3.38,0,0,0,.71-.1,2.76,2.76,0,0,0,.72-.28h1a2.84,2.84,0,0,1,1.19.19h0c.27.13.4.44.4.94A1.22,1.22,0,0,1,84.53,55.63Zm-.71-7.46a3.8,3.8,0,0,1-3.65,2.17c0-1.38,0-2.67-.08-3.86a30.22,30.22,0,0,0-.4-3.68l5.4.37A12.41,12.41,0,0,1,83.82,48.17ZM81.91,33.94a9.92,9.92,0,0,1,2.54,4.15,7.43,7.43,0,0,1,.32.94h0a3.76,3.76,0,0,1,.15.94l-5.72-.19a23.19,23.19,0,0,0-.55-3.3c-.27-1.06-.51-2-.72-2.92A3,3,0,0,1,81.91,33.94ZM49.61,90.41a17.72,17.72,0,0,1-3.26.28,16.18,16.18,0,0,1-3.1-.28c-1-.19-2.09-.34-3.25-.47A35.23,35.23,0,0,1,43.49,89a16.46,16.46,0,0,1,3.5-.38c.63,0,1.35,0,2.14.09a7.81,7.81,0,0,1,2.46.66,1.54,1.54,0,0,1,.56.1,4.18,4.18,0,0,1,.56.28C51.65,90,50.61,90.22,49.61,90.41Zm-13.1-6.69a38.75,38.75,0,0,1-1.11-4v-.37c-.32-1.39-.69-2.74-1.11-4.06a12.87,12.87,0,0,0-1.9-3.68l-1.28-1.5c-.42-.51-.84-1-1.27-1.51-.74-.76-1.45-1.45-2.14-2.08s-1.4-1.32-2.14-2.07a39.2,39.2,0,0,1-5.08-6.13,23,23,0,0,1-3.18-9.14c-.21-1.38-.4-2.77-.55-4.15a33.82,33.82,0,0,1-.25-4.14V38.29a36.34,36.34,0,0,1,2.06-10A20.65,20.65,0,0,1,24,20a1.51,1.51,0,0,0,.64-1.41,2.41,2.41,0,0,0-.8-1.23,35.57,35.57,0,0,1,9.37-7.16A25.22,25.22,0,0,1,44.12,7.36a34.2,34.2,0,0,0-11,5.09,51.85,51.85,0,0,0-9.45,8.49,1.19,1.19,0,0,0-.31.94v.38a1.82,1.82,0,0,0,.47.66,1,1,0,0,0,.64.28,1.12,1.12,0,0,0,.4-.1.91.91,0,0,0,.4-.28,47.68,47.68,0,0,1,6.11-6,42.22,42.22,0,0,1,7.38-4.9c0,.12.06.19.16.19h-.16c0,.12-.06.18-.15.18a1.45,1.45,0,0,0-.72.57,1.42,1.42,0,0,0-.24.75,1.81,1.81,0,0,0,.56,1.32,1.07,1.07,0,0,0,1.35.19c.74-.37,1.45-.72,2.14-1a8.92,8.92,0,0,1,2.15-.66H44a37.39,37.39,0,0,0-12.7,7.36A76.37,76.37,0,0,0,20.64,32.06l-.16.19a1.45,1.45,0,0,0,.08,1.41.83.83,0,0,0,1,.47.62.62,0,0,0,.32-.09,1.43,1.43,0,0,0,.32-.28A62,62,0,0,1,35.8,20.37a28.07,28.07,0,0,1,16.75-5.85c.53,0,1.06,0,1.59.1a13.82,13.82,0,0,0,1.58.09l1.59.38,1.59.38a27.8,27.8,0,0,0-9.21,1.6A41.41,41.41,0,0,0,41,21.3a1.79,1.79,0,0,0-.56.57,1.42,1.42,0,0,0-.24.75,1.81,1.81,0,0,0,.56,1.32c.37.38.87.38,1.51,0a35.62,35.62,0,0,1,8.33-3.86,26.09,26.09,0,0,1,7.54-1.23,15.24,15.24,0,0,1,11.59,4.72q4.92,4.91,6.83,16-3.33-.37-6.67-.47t-6.66-.28h-.64a11,11,0,0,0-5.8,1.7,46.83,46.83,0,0,0-5.31,3.77,12.14,12.14,0,0,1-1.35,1,10.53,10.53,0,0,0-1.35,1,.75.75,0,0,0-.4.47q-.11.33-.24.66A1.56,1.56,0,0,0,48.57,49a1.28,1.28,0,0,0,1.59,0,12.14,12.14,0,0,1,1.35-1,10.53,10.53,0,0,0,1.35-1c1.06-.88,2.14-1.73,3.25-2.54a16.91,16.91,0,0,1,3.42-2v1.5a2,2,0,0,0-.16.76v.75A11.65,11.65,0,0,0,53.42,51a17.64,17.64,0,0,0-2,8.2,16.68,16.68,0,0,0,2,7.92,10.06,10.06,0,0,0,5.95,5.09v.38a1,1,0,0,0,.08.38,1.52,1.52,0,0,1,.08.56,9.05,9.05,0,0,0,.4,1.14.86.86,0,0,0,.87.56h.8a.59.59,0,0,0,.47.19h.64a5.16,5.16,0,0,0,1.74-.28h0a1,1,0,0,0,.63-1.22c-.11-2.39-.21-4.81-.32-7.26s-.16-4.87-.16-7.26c0-2.89.06-5.78.16-8.67s.21-5.78.32-8.67L77,42.8c.21,1.64.37,3.3.47,5s.16,3.55.15,5.56a57,57,0,0,1-1,10.84,82.11,82.11,0,0,1-2.54,9.9c-.52,1.63-1.08,3.24-1.66,4.81s-1.25,3.24-2,5l-3.17-1.13-5.72,7-2.22.37a1.43,1.43,0,0,0-.32-.28,1.22,1.22,0,0,1-.32-.28,6.6,6.6,0,0,0-.63-.66,2.81,2.81,0,0,0-.8-.47,16.81,16.81,0,0,0-4.92-2.27,20.86,20.86,0,0,0-5.55-.75h-1a4.41,4.41,0,0,0-1.19.19,11,11,0,0,0-3.17.47,17.19,17.19,0,0,0-3,1.22A12.44,12.44,0,0,1,36.51,83.72ZM62.62,65.14h0c0,2.57.13,5.12.23,7.63H61.59c-.1-1.14-.24-2.24-.4-3.3a21.45,21.45,0,0,1-.23-3.3q-.16-1.7-.24-3.3c-.06-1.07-.08-2.17-.08-3.3,0-1.39,0-2.77.08-4.15s.13-2.76.24-4.15.21-2.77.31-4.15.21-2.76.32-4.14h1.27c0,1.25,0,2.48-.08,3.67S62.7,49,62.7,50.15s-.16,2.49-.16,3.68v3.68C62.54,60,62.57,62.57,62.62,65.14Zm-3.89-.84c0,.88,0,1.73.08,2.54h0c0,.82.13,1.67.23,2.55a8.09,8.09,0,0,1-4.13-4,13,13,0,0,1-1.42-6,15.39,15.39,0,0,1,1.42-6.51,9.77,9.77,0,0,1,4.13-4.62c-.11,1.76-.21,3.58-.32,5.47s-.15,3.77-.15,5.66v2.54A16.9,16.9,0,0,0,58.73,64.3ZM6.67,130.67c1-2.51,2.11-5,3.17-7.54.53.37,1,.72,1.51,1l1.51,1a9.17,9.17,0,0,0,1.43,1,10.14,10.14,0,0,1,1.43,1l2,8.3a3.75,3.75,0,0,1-1.19-.19,3.29,3.29,0,0,0-1-.19,17.61,17.61,0,0,1-3.41-1.51,16.27,16.27,0,0,1-3.26-2.45,1.43,1.43,0,0,0-.32-.28.94.94,0,0,0-.47-.09,1,1,0,0,0-.48.18,2.85,2.85,0,0,0-.63.57.68.68,0,0,1-.16.38.5.5,0,0,0-.16.28v.28a1.76,1.76,0,0,0,.48,1.13,4.21,4.21,0,0,0,1.11.95,1,1,0,0,0,.4.28,1.12,1.12,0,0,1,.4.28,11.69,11.69,0,0,1-2.38,2.17,5.3,5.3,0,0,1-3,.85H3.17Q5.08,134.43,6.67,130.67Z"/></svg>