<svg id="Layer_1" data-name="Layer 1" xmlns="http://www.w3.org/2000/svg" viewBox="0 0 177.02 184.72"><defs><style>.cls-1{stroke:#000;stroke-miterlimit:10;stroke-width:0.5px;}</style></defs><title>avatar_icons</title><path class="cls-1" d="M69,75a29.33,29.33,0,0,0-1.58,9.69,35.16,35.16,0,0,0,.67,6.63,55.9,55.9,0,0,0,2,7.41v.2a2.68,2.68,0,0,0,.41.69c.17.2.48.17.92-.1a1.31,1.31,0,0,0,.5-.49,1.5,1.5,0,0,0,.17-.69,4.82,4.82,0,0,0-.17-1.19,13.35,13.35,0,0,0-.5-1.38v-.2c-.22-.53-.42-1-.58-1.49a3.74,3.74,0,0,1-.25-1.28V92a3.66,3.66,0,0,1,.16-1,11.79,11.79,0,0,1,2-4.45,4.3,4.3,0,0,1,3.5-2.08h.67a1,1,0,0,0,.5.2,5.69,5.69,0,0,1,4.08,3.66,20.45,20.45,0,0,1,1.25,6v3.07a8.7,8.7,0,0,1-.17,1.68.7.7,0,0,0,.25.59.72.72,0,0,0,.42.2,2.76,2.76,0,0,0,.75-.1,7.45,7.45,0,0,0,.91-.3c.44-.26.86-.52,1.25-.79a2.79,2.79,0,0,0,.91-1,.6.6,0,0,0,.17-.4v-.4c-.11-.39-.33-.56-.67-.49a6,6,0,0,0-1,.3c-.11.13-.19.2-.25.2s-.14.07-.25.2a5.45,5.45,0,0,0-.58.4.72.72,0,0,1-.42.2v-.59a1.79,1.79,0,0,1,.17-.6V94.17a18.28,18.28,0,0,0-1.66-6.82,7.44,7.44,0,0,0-4.83-4.25,1.22,1.22,0,0,0-.67-.2h-.66a5.34,5.34,0,0,0-3.92,1.78,11.55,11.55,0,0,0-2.58,3.95,10.61,10.61,0,0,1-.16-1.78V85.27a34.34,34.34,0,0,1,3.83-16.21A50.52,50.52,0,0,1,83,56.2l.16-.2A62.53,62.53,0,0,1,96.85,40.68q7.83-6.23,16.65-6.23a23.73,23.73,0,0,1,7.33,1.19,25.19,25.19,0,0,1,7.32,4c.44.4.83.43,1.17.1a1.74,1.74,0,0,0,.5-1.28,1.24,1.24,0,0,0-.17-.5h0a4.32,4.32,0,0,0-.33-.5,34.41,34.41,0,0,0-8-4.35,22.54,22.54,0,0,0-7.66-1.38q-9.17,0-17.23,6.72a93.41,93.41,0,0,0-14.9,15.82Q79.2,57.39,77,60.35c-1.45,2-2.72,3.89-3.83,5.73A46,46,0,0,0,69,75Z"/><path class="cls-1" d="M105.35,92.77a2.75,2.75,0,0,0,.5-.88c.11-.33.22-.69.33-1.09a5.26,5.26,0,0,1,.08-.89,6.71,6.71,0,0,0,.09-.89,4.73,4.73,0,0,0-.67-3.07A3,3,0,0,0,103,84.67h-.58a1.53,1.53,0,0,0-.75.2.31.31,0,0,0-.25.1l-.25.3-.16.2a1.22,1.22,0,0,0,.33.79.67.67,0,0,0,.83.2,2,2,0,0,1,2.17.4,3,3,0,0,1,.66,2v.49a.71.71,0,0,1-.16.49,3.65,3.65,0,0,1-.17,1.09,2.69,2.69,0,0,1-.5.89,12.29,12.29,0,0,0-1,2.18,5.3,5.3,0,0,0-.33,1.58,3.21,3.21,0,0,0,.33,1.58,2,2,0,0,0,.67.79l0,0a.62.62,0,0,0,.88,0c.28-.26.2-.79-.25-1.58a.75.75,0,0,1-.16-.5v-.49a2.29,2.29,0,0,1,.08-.69,5.13,5.13,0,0,1,.25-.69.56.56,0,0,1,.17-.4.59.59,0,0,0,.16-.4h0C105.12,93.18,105.22,93,105.35,92.77Z"/><polygon class="cls-1" points="8.63 184.33 8.64 184.32 8.61 184.32 8.61 184.33 8.63 184.33"/><path class="cls-1" d="M112.34,41a17.33,17.33,0,0,1,1.91.1,17.64,17.64,0,0,0,1.92.1c1.22.26,2.47.59,3.74,1a26,26,0,0,1,3.91,1.58H124c0,.13.06.2.17.2a.68.68,0,0,0,.66-.3A1.29,1.29,0,0,0,125,43a1.67,1.67,0,0,1-.25-.4h0a1,1,0,0,0-.42-.4,25.07,25.07,0,0,0-6-2.27,26,26,0,0,0-5.83-.69,27.15,27.15,0,0,0-14.31,4.15A58.94,58.94,0,0,0,85.37,54l-.17.2a1.52,1.52,0,0,0,.08,1.09.25.25,0,0,0,0,.07.52.52,0,0,0,.71.22c0-.13.06-.2.17-.2s.17-.06.17-.2A57.62,57.62,0,0,1,98.69,44.93,25.94,25.94,0,0,1,112.34,41Z"/><path class="cls-1" d="M100.51,101.88a5.22,5.22,0,0,0-1.16-1.09c-.34-.2-.5.17-.5,1.09v1.18a10.69,10.69,0,0,0,.83,3,3.61,3.61,0,0,0,2.16,1.58,1.12,1.12,0,0,0,.58.2h.84a.52.52,0,0,0,.42-.2q2.83-.58,5.25-4.85A25.56,25.56,0,0,0,112,93.57a10.41,10.41,0,0,1,.08-1.48,11.17,11.17,0,0,0,.08-1.29,15.27,15.27,0,0,0-1.25-6.22,8.14,8.14,0,0,0-4.41-4.26,3.09,3.09,0,0,0-.75-.3,4.7,4.7,0,0,0-.91-.1,7.89,7.89,0,0,0-1.09.1,6.64,6.64,0,0,0-1.08.3A10.36,10.36,0,0,0,98.94,83a13.19,13.19,0,0,0-2.58,3.86,1.14,1.14,0,0,0-.25.49,2.1,2.1,0,0,0-.09.5.94.94,0,0,0,.09.89.76.76,0,0,0,.58.3.75.75,0,0,0,.33-.1,1,1,0,0,0,.33-.5,10.77,10.77,0,0,1,2.75-4.94,5.48,5.48,0,0,1,3.75-1.58,5.69,5.69,0,0,1,4.83,2.37,10.45,10.45,0,0,1,2.16,6.92,19.67,19.67,0,0,1-.58,4.45h0a21.45,21.45,0,0,1-2.08,5.25,5,5,0,0,1-1.5,1.48,9.46,9.46,0,0,1-2,1.09,6.78,6.78,0,0,1-.83.3,2.18,2.18,0,0,1-.67.1,2.11,2.11,0,0,1-.66-.1,2.69,2.69,0,0,1-.67-.3l-.5-.59-.66-.79Z"/><path class="cls-1" d="M110.17,45.53h1.33a22.91,22.91,0,0,1,8.83,1.78,26.67,26.67,0,0,1,8,5.14l0,0a.64.64,0,0,0,.89,0,.94.94,0,0,0,.25-1h0l-.33-.4a30.06,30.06,0,0,0-8.49-5.43,23.59,23.59,0,0,0-9.15-1.88h-1.33a6.3,6.3,0,0,0-1.5.2,23.72,23.72,0,0,0-6.75,1.88,25.25,25.25,0,0,0-6.41,4,3.84,3.84,0,0,1-.25.3.46.46,0,0,0-.08.3,1.13,1.13,0,0,0,.33.89,1.22,1.22,0,0,0,.84.3c0-.13,0-.2.16-.2a22,22,0,0,1,6-4,22.47,22.47,0,0,1,6.32-1.78A4.61,4.61,0,0,1,110.17,45.53Z"/><path class="cls-1" d="M172.58,107.8a28.21,28.21,0,0,0-5.32-5.54l-5.16,6.33a4,4,0,0,1-.25-.69,1.69,1.69,0,0,1-.09-.49,3.51,3.51,0,0,1,.75-2.18c.5-.66,1-1.31,1.58-2l.67-.79.67-.79a2.53,2.53,0,0,0-1.17-.49,10.8,10.8,0,0,0-1.5-.1,8.35,8.35,0,0,0-2.92.59,11.66,11.66,0,0,0-3.41,2.18,66.71,66.71,0,0,1-8,6.72,14.57,14.57,0,0,1-8.49,3,10.7,10.7,0,0,1-4.74-1.19,16.07,16.07,0,0,1-4.75-3.76,12.6,12.6,0,0,1,4-2.07,13.39,13.39,0,0,1,3.5-.5c.56,0,1.11,0,1.66.1a13.37,13.37,0,0,0,1.67.1.42.42,0,0,0,.33.2h.5a17.58,17.58,0,0,0,2,.3,19.7,19.7,0,0,0,2.17.1h1.58a4.5,4.5,0,0,0,1.41-.2,5.94,5.94,0,0,0,3.17-1.38,4.88,4.88,0,0,0,1.33-2.37h.42a.54.54,0,0,0,.41-.2,13.32,13.32,0,0,0,2.66-.6,4.56,4.56,0,0,0,2.17-1.78,3.23,3.23,0,0,0,.33-.49,3.39,3.39,0,0,1,.34-.5h.5a8.46,8.46,0,0,0,1.66-.2,10.91,10.91,0,0,0,2-.59,16.89,16.89,0,0,0,2.5-1.38,6.74,6.74,0,0,0,1.83-1.78.32.32,0,0,0,.25-.1.55.55,0,0,0,.09-.3,3.58,3.58,0,0,0,1.74-.69,1.64,1.64,0,0,0,.59-1.29,2,2,0,0,0-.09-.49,2.35,2.35,0,0,1-.08-.7,7.64,7.64,0,0,0-1.58-1.68,6.66,6.66,0,0,0-2.58-1.28,2.11,2.11,0,0,1-.5-.1,1.71,1.71,0,0,0-.5-.1h-1.17a11.1,11.1,0,0,0-4,.69,18.69,18.69,0,0,0-3.67,1.88c-.66.53-1.39,1.08-2.16,1.68s-1.56,1.22-2.33,1.88a47.63,47.63,0,0,0-4.75-.5c-1.39-.06-2.69-.1-3.91-.1a21.52,21.52,0,0,0-4.24.4A14,14,0,0,0,136,95.94a22,22,0,0,0-3.91,3.36,58.92,58.92,0,0,0-4.58,5.53c-.45.14-.75-.29-.92-1.28a26.2,26.2,0,0,1-.25-4.06V97.22a18.64,18.64,0,0,1,.17-2.47V94c0-1,0-2,.08-2.87s.09-1.68.09-2.47V87.24a1.89,1.89,0,0,1-.17-.7v-.49a17.21,17.21,0,0,1-.17-2.27V80.32a22,22,0,0,1,.17-2.57c.11-.92.28-1.91.5-3a35.13,35.13,0,0,0,.67-4.45c.11-1.38.17-2.73.17-4Q128,57,122.9,52.64T108.34,47.3a1,1,0,0,0-.84.4,1.2,1.2,0,0,0-.33.79,1.92,1.92,0,0,0,.25,1,.85.85,0,0,0,.75.4q8.65,1,13.15,4.64t4.5,11.77a31.35,31.35,0,0,1-.25,3.75c-.17,1.32-.36,2.71-.58,4.15a30.09,30.09,0,0,0-.5,3.07c-.11,1-.23,1.94-.34,2.86v4.06a17.21,17.21,0,0,0,.17,2.27,18.05,18.05,0,0,1,.33,3.36v3q.15,6.73-2.69,10t-10,5.44a25.72,25.72,0,0,0-3.5,1.18,19.54,19.54,0,0,0-2,1q-2.16,1.59-.08,3.46c1.39,1.25,3.25,3.07,5.58,5.44a20.48,20.48,0,0,1-12.82,4.55,21,21,0,0,1-8.41-1.78,19.25,19.25,0,0,1-7.07-5.34,1.38,1.38,0,0,0-.34-.3.64.64,0,0,0-.33-.1.89.89,0,0,0-1.08.49,1.58,1.58,0,0,0-.09,1.49l.17.2a23.76,23.76,0,0,0,1.75,1.87,10.22,10.22,0,0,0,1.91,1.49h-2.5a9.92,9.92,0,0,1-1.33-.1,8.51,8.51,0,0,0-1.33-.1v-1.78a17.63,17.63,0,0,0-.17-2.18,14,14,0,0,0-.33-3.16c-.23-.92-.61-1.12-1.17-.59a15.79,15.79,0,0,0-1.33,1.38,2.66,2.66,0,0,1-1,.79.93.93,0,0,1-.91-.1A10.66,10.66,0,0,1,74,114.93a3.31,3.31,0,0,0,1.83-1.48,8.55,8.55,0,0,0,1-2.47,8.12,8.12,0,0,0,.25-1.19,7.81,7.81,0,0,0,.09-1.18h.33a1.56,1.56,0,0,0,1.25-.5,1.66,1.66,0,0,0,.41-1.09v-.4a3.84,3.84,0,0,0-.41-1,1,1,0,0,0-.92-.4,2.21,2.21,0,0,1-1.5-.7,2.29,2.29,0,0,1-.33-1.28v-.4a1.68,1.68,0,0,1,.17-.59v-.8a2.41,2.41,0,0,0-.25-1.08,1.11,1.11,0,0,0-1.08-.5,1.54,1.54,0,0,0-1.34.79,3.72,3.72,0,0,0-.5,2v.69a1.89,1.89,0,0,0,.17.7,6.93,6.93,0,0,0,.83,2.57,3.38,3.38,0,0,0,1.67,1.58,3.16,3.16,0,0,1-.25,1.18l-.58,1.39a.93.93,0,0,1-.09.4,1.67,1.67,0,0,1-.25.4,11.57,11.57,0,0,1-.75,1.78c-.28.53-.36.86-.25,1a13,13,0,0,0-5.66-2.48q-3-.48-6.16-.69a4.26,4.26,0,0,0,.17-1.18v-1c0-.56,0-1.12-.08-1.68a6.48,6.48,0,0,0-.42-1.49l.42-.49.41-.49a28.24,28.24,0,0,0,2.17-3.46A25.8,25.8,0,0,0,66,97.53,19.35,19.35,0,0,0,66.76,95,11.16,11.16,0,0,0,67,92.59a6.2,6.2,0,0,0-1.25-4c-.83-1-2.24-1.58-4.24-1.58H60.35a21.75,21.75,0,0,0,3.42-6.43Q65,77,66.18,73q.66-2.76,1.5-5.34a44.59,44.59,0,0,1,1.83-4.74c.89-1.85,1.61-3.49,2.17-5A32.93,32.93,0,0,0,73,53.64a25.61,25.61,0,0,0,.83-5.15q.16-2.76.17-6.32a10.35,10.35,0,0,0,1.66-3.46,14.82,14.82,0,0,0,.5-3.86A25.72,25.72,0,0,0,76,32.08c-.12-.93-.29-1.85-.5-2.77a49.73,49.73,0,0,0-2.17-6.62,46.1,46.1,0,0,0-2.83-5.83l-1-1.58-1-1.58A28.76,28.76,0,0,0,57,3.51,32.43,32.43,0,0,0,42.87.25,31.34,31.34,0,0,0,22.48,7.86q-9.24,7.62-10.24,22.25H11.07q-5.16-.21-8,5.14A24.53,24.53,0,0,0,.25,46.91,24,24,0,0,0,3,58.28q2.75,5.25,8.24,5.24a5.62,5.62,0,0,0,1.16-.1,2.48,2.48,0,0,0,.84-.3,5.28,5.28,0,0,1,.58-.3,1.18,1.18,0,0,1,.42-.1h.33a1.78,1.78,0,0,1,.75.2,2.71,2.71,0,0,1,.92,1.19A7.06,7.06,0,0,0,16,65.39a12.41,12.41,0,0,0-.09,1.49v1.58a13.61,13.61,0,0,0,1.5,4.74,10.62,10.62,0,0,0,2.66,3.36c.34.14.7.3,1.09.5s.75.36,1.08.49h.33c.11,0,.17.07.17.2.89.27,1.67.53,2.33.79s1.05.59,1.17,1A17.14,17.14,0,0,1,28,85a42,42,0,0,1,.42,6v2.77a6.62,6.62,0,0,0-3.66,2.67,14,14,0,0,0-2.17,4.45,1.27,1.27,0,0,0-.25.49,2.33,2.33,0,0,0-.08.69,4.39,4.39,0,0,0-.17,1.19v1a16,16,0,0,0,2.42,8.5,23.6,23.6,0,0,0,5.41,6.33c.11,0,.16,0,.16.1a.6.6,0,0,0,.17.3.47.47,0,0,0,.08.3.92.92,0,0,1,.09.49,5.75,5.75,0,0,1-.17,1.09c-.11.46-.22,1-.33,1.48s-.23.83-.34,1.29a6.1,6.1,0,0,0-.16,1.48,6.42,6.42,0,0,0,.41,2.17,8.32,8.32,0,0,0,1.59,2.57,10.7,10.7,0,0,1,3.74-1.87,14.45,14.45,0,0,1,3.58-.5,21.44,21.44,0,0,1,3.58.3c1.16.2,2.36.37,3.58.5,1,.26,2.05.49,3.16.69a18.66,18.66,0,0,0,3.33.3h2a4.81,4.81,0,0,0,.84-.1,6,6,0,0,0,1-.3l1.5-3.56c-.78-.4-1.17-.89-1.17-1.48a3.35,3.35,0,0,1,.67-1.88l.33-.4.33-.4c1,0,2,0,3-.1s2-.16,3-.3,2-.23,3-.3,2-.1,3-.1h1.67a1.3,1.3,0,0,0,.75.2H73c.11,0,.19.2.25.6a10.64,10.64,0,0,1,.08,1.38,10.12,10.12,0,0,1,.17,2,5,5,0,0,0,1,2,7.89,7.89,0,0,0,1.5,1.38,15.7,15.7,0,0,1,1.58,1.78,6.5,6.5,0,0,1,1.08,2.57,4.73,4.73,0,0,0,.08,1,4.52,4.52,0,0,0,.25.79c.22.66.37,1.09.42,1.29s-.36.36-1.25.49a.5.5,0,0,1-.33.2h-.5a13.9,13.9,0,0,0-2.08,1.38q-1.92,1.39-4.25,3a1.76,1.76,0,0,0-.5.4.47.47,0,0,1-.33.2c-1.45,1.19-2.75,2.24-3.92,3.16s-1.74,1.52-1.74,1.78a2.51,2.51,0,0,0,1.33,1.68,5.07,5.07,0,0,0,2.33.5,11.87,11.87,0,0,0,1.58-.1,14.19,14.19,0,0,0,1.58-.3,13,13,0,0,0,1.83-.5,16,16,0,0,1,1.67-.49c.66-.26,1.28-.5,1.83-.69s1-.36,1.33-.5a8.6,8.6,0,0,1-.66,1.19,16.54,16.54,0,0,1-1.17,1.58c-.12.27-.25.57-.42.89a4.39,4.39,0,0,1-.58.89,7,7,0,0,0-.58,1.39,4.32,4.32,0,0,0-.25,1.38,1.38,1.38,0,0,0,.16.69,4.34,4.34,0,0,0,.5.69,1.82,1.82,0,0,0,1.92.11,8,8,0,0,0,2.25-1.68c.33-.4.69-.79,1.08-1.19s.75-.79,1.08-1.19q1-1.18,1.83-2.37c.55-.79.94-1.32,1.17-1.58a8.82,8.82,0,0,1,1.5-.59c.77-.27,1.61-.6,2.5-1a8.36,8.36,0,0,0,1.25-.5c.38-.19.74-.36,1.08-.49a7.4,7.4,0,0,0,1.33-.79,1.1,1.1,0,0,0,.5-.79v-1.19a15.09,15.09,0,0,1,.91-5.24,37.91,37.91,0,0,1,2.08-4.65c.67-1.18.25-1.54-1.24-1.08A42.4,42.4,0,0,0,89,132.53a2.8,2.8,0,0,1-.66.3,1,1,0,0,0-.5.3c-1.45.66-2.7,1.29-3.75,1.88a10.28,10.28,0,0,1-1.75.89v-.59a.66.66,0,0,1,.17-.4v-1.78a3.9,3.9,0,0,1,.5-2.37c.33-.4,1.61-.6,3.83-.6h.33a4.72,4.72,0,0,0,1.92-.4,3.66,3.66,0,0,0,1.41-1,1.69,1.69,0,0,0,.5-1c0-.27-.28-.4-.83-.4a9.07,9.07,0,0,1-4.66-1.19,20.13,20.13,0,0,1-3.66-2.77h1.5a1.38,1.38,0,0,0,.75.2h2.5a5.66,5.66,0,0,0,1.58-.2,28.55,28.55,0,0,0,5.49,2.18,21.24,21.24,0,0,0,5.66.79,23.17,23.17,0,0,0,5.25-.6,19.54,19.54,0,0,0,5.08-2,13.7,13.7,0,0,0-1.17,2.76A1.38,1.38,0,0,0,109,128c.33.26.78.59,1.33,1s1.22.92,2,1.58a5.58,5.58,0,0,0,.42-1.39,1.6,1.6,0,0,1,.25-.79c.11-.39.25-.62.41-.69a2.16,2.16,0,0,1,.75-.1h1.67c-.88,1.72-1.58,3.13-2.08,4.25a16.94,16.94,0,0,0-1.08,3.27c-.11.52-.19,1-.25,1.48a13.5,13.5,0,0,0-.08,1.68c0,.79,0,1.68.08,2.67s.14,2.21.25,3.66a1,1,0,0,1-.25.79.93.93,0,0,1-.58.2,1.07,1.07,0,0,1-.5-.1,1,1,0,0,1-.34-.5,15.89,15.89,0,0,1-.66-3.06,25,25,0,0,1-.17-2.87V138a2.22,2.22,0,0,1,.17-.88v-2a29,29,0,0,1-6.49-1.78c-1.89-.79-3.73-1.65-5.5-2.57a26.17,26.17,0,0,0-2,4.25c-.56,1.51-1.06,3-1.5,4.45-.22.66-.41,1.35-.58,2.07S94,143,93.85,143.8a31.46,31.46,0,0,0,8.58,4.84,84.27,84.27,0,0,0,12.23,3.66l4.58-9.69q2.25-4.74,4.58-9.49a54.35,54.35,0,0,0,6.49,5.83,75.58,75.58,0,0,0,7.16,4.85q-1.66,2.76-3.41,5.14a14.88,14.88,0,0,1-4.41,3.95l.66,26.53a48.13,48.13,0,0,1-6.16-1.18q-3-.8-6-1.77a9.36,9.36,0,0,1-.08,1.18,4.55,4.55,0,0,1-.25,1c-.11.52-.2,1-.25,1.38a7.93,7.93,0,0,0-.09,1,3.39,3.39,0,0,0,.09.78,1.76,1.76,0,0,0,.41.79,2.32,2.32,0,0,0,.67.79l.27.22,1.51.9h41.48l.25-.6h0c.3-2.07.54-4.1.69-6.06.16-2.11.3-4.08.41-5.93a47.26,47.26,0,0,0-.33-5.83,20.59,20.59,0,0,0-1.16-4.84,6.87,6.87,0,0,0-.67-1l-.67-.8a2,2,0,0,1-.25-.39.26.26,0,0,0-.25-.2,1.4,1.4,0,0,0-.41-.6,2.28,2.28,0,0,1-.42-.4L163.44,142a32.44,32.44,0,0,0,6-8.5,24.59,24.59,0,0,0,2.5-10.28q1.33-2,2.59-4t2.23-4.06A34.87,34.87,0,0,0,172.58,107.8ZM165,96.24a8.9,8.9,0,0,1-2.25.7,3.27,3.27,0,0,1-.75.3,3.76,3.76,0,0,1-.75.1,17.77,17.77,0,0,1,1.09-1.49,7,7,0,0,1,.91-.89,3.69,3.69,0,0,1,.67-.3,2.45,2.45,0,0,1,.66-.1,9.24,9.24,0,0,1,1.17.1h0a10.21,10.21,0,0,1,1.33.3A10.12,10.12,0,0,1,165,96.24Zm-9.41-1.68A25.16,25.16,0,0,1,158,92.78,23.25,23.25,0,0,1,161.2,91a9.23,9.23,0,0,1,3.74-.79h1a.5.5,0,0,0,.42.2h.42a5.51,5.51,0,0,1,1.66.6,4,4,0,0,1,1,.79.66.66,0,0,1,.25.89c-.17.33-.58.49-1.25.49h-.75a2.62,2.62,0,0,1-.92-.2h-.33a.48.48,0,0,1-.33-.2h-.67a4.41,4.41,0,0,0-3.16,1.08,13.28,13.28,0,0,0-2.17,2.67.31.31,0,0,0-.25.1.46.46,0,0,0-.08.3,12.89,12.89,0,0,1-2.33,2.77,6.13,6.13,0,0,1-3.66,1.38,17.47,17.47,0,0,0-.17-2.17,17.2,17.2,0,0,0-.5-2.37C154,95.88,154.84,95.22,155.62,94.56ZM60.47,88.72a4.05,4.05,0,0,1,.92-.1,7.69,7.69,0,0,1,1.66.2h0a2.85,2.85,0,0,1,1.51,1,2.68,2.68,0,0,1,.75.89,6.71,6.71,0,0,1,.42,1.08.75.75,0,0,1,.16.5v.49a7.15,7.15,0,0,1-.25,1.78c-.16.66-.36,1.32-.58,2a8.37,8.37,0,0,1-.91,1.88,19.39,19.39,0,0,0-1.09,1.87c-.44.8-.89,1.52-1.33,2.18a11.11,11.11,0,0,0-1,1.78,7.52,7.52,0,0,0-.75-1.09,7,7,0,0,0-.91-.89,1.05,1.05,0,0,1,.58-.3,2.24,2.24,0,0,0,.91-.49,3.26,3.26,0,0,0,1.17-.6,1.06,1.06,0,0,0,.5-.79v-.4c0-.13,0-.2-.09-.2s-.14-.06-.25-.2h-.16a6.21,6.21,0,0,0-2.17.7c-1,.46-2.11,1-3.33,1.48a1,1,0,0,1-.41.3,1.69,1.69,0,0,1-.58.1,21,21,0,0,1-2.92,1.28,7.41,7.41,0,0,1-2.41.5h-.59a1.22,1.22,0,0,1-.58-.2c-.55-.26-.53-.82.08-1.68a24.9,24.9,0,0,1,2.25-2.66l.16-.2c.78-.79,1.47-1.55,2.08-2.28A3,3,0,0,0,54.23,95a1.1,1.1,0,0,0-.25-.69.78.78,0,0,0-.58-.3,5.86,5.86,0,0,0-1.92.5c-.83.33-1.64.69-2.41,1.08a18.5,18.5,0,0,0-2.16.89,4.12,4.12,0,0,1-1.84.5,1.81,1.81,0,0,1-1.08-.3,1.25,1.25,0,0,1-.42-1.09l5.5-2.17h.5c1.11-.53,2.13-1,3.08-1.39l1.91-.79a6.46,6.46,0,0,1,.84-.4,2,2,0,0,0,.83-.59c.55-.26,1.11-.49,1.66-.69s1.12-.44,1.67-.7A3.48,3.48,0,0,0,60.47,88.72Zm-35.78-12a15.63,15.63,0,0,1-3.75-1.58,7.76,7.76,0,0,1-2.16-2.47,10.64,10.64,0,0,1-1.17-3.06,9.68,9.68,0,0,1-.25-1.19,9.39,9.39,0,0,1-.08-1.19,6.38,6.38,0,0,1,.83-3.36,2.74,2.74,0,0,1,2.5-1.38,6.46,6.46,0,0,1,2,.39,7.44,7.44,0,0,1,2.33,1.39v.4A6.68,6.68,0,0,0,25,65.8a7.85,7.85,0,0,1,.08,1.08,12.48,12.48,0,0,0,1.75,3.86A23.1,23.1,0,0,0,29.44,74a8.58,8.58,0,0,0,1.91,1.48,3.42,3.42,0,0,0,1.58.5.62.62,0,0,0,.5-.2l.34-.4c.22-.39-.09-.85-.92-1.38a31.38,31.38,0,0,1-2.75-2,18.3,18.3,0,0,1-2.5-2.77,6.52,6.52,0,0,1-1.16-4,9.51,9.51,0,0,1,.08-1.19c.05-.39.14-.86.25-1.38s.22-1,.33-1.38.23-.86.34-1.39c.44-1.45.86-2.83,1.25-4.15a35.5,35.5,0,0,0,.91-4c.11-.79.22-1.61.33-2.47a19.74,19.74,0,0,0,.17-2.67,22.23,22.23,0,0,0-.58-4.94A34.13,34.13,0,0,0,27.6,36a26.1,26.1,0,0,1,3.17-2.77l3.66-2.77c1.11-.66,2.19-1.35,3.25-2.08s1.86-1.34,2.74-2.07a2.1,2.1,0,0,0,.92-1A7.4,7.4,0,0,0,41.75,24a4,4,0,0,0-.41-1.68,16.64,16.64,0,0,0-1.08-1.88q-.67-.78-1.5-1.68a17.3,17.3,0,0,0-1.84-1.68c-.89-.79-1.72-1.51-2.5-2.17a13.8,13.8,0,0,0-1.84-1.38,17.35,17.35,0,0,1,9.83,3.36,16.41,16.41,0,0,1,6,9.49l.67,2,.66,2A39.94,39.94,0,0,0,56.64,41q4.41,5,9.57,4.94A8,8,0,0,0,69,45.43h0a21.37,21.37,0,0,0,2.9-1.29c0,1.58-.06,3.06-.17,4.45a35.56,35.56,0,0,1-.5,3.85c-.22.93-.47,1.85-.75,2.77a31,31,0,0,1-1.08,3,1.79,1.79,0,0,0-.58-.7c-.28-.19-.59-.42-.92-.69A11.58,11.58,0,0,0,66,55.7q-1.08-.5-2.25-.9A8.48,8.48,0,0,0,61.46,54a11.15,11.15,0,0,0-1.91-.2,4,4,0,0,0-1.33.2c-.34.14-.5.47-.5,1,0,.27.3.46.91.6s1.31.26,2.08.39a6.38,6.38,0,0,1,1.08.1,5.67,5.67,0,0,0,1.09.1,12.37,12.37,0,0,1,4.33,1.48c1.22.73,1.38,2.08.5,4.06a2.66,2.66,0,0,0-.34.59l-.33.79a1.1,1.1,0,0,1-.08.4,1.8,1.8,0,0,1-.25.4,2.93,2.93,0,0,0-.34.5q-.16.3-.33.3a3.18,3.18,0,0,0-1.41-2.57,4.76,4.76,0,0,0-2.58-.8,5.24,5.24,0,0,0-1.67.3,9.29,9.29,0,0,0-1.5.7.26.26,0,0,0-.25.2,1,1,0,0,0-.08.39.69.69,0,0,0,.25.6.48.48,0,0,0,.58,0,3.69,3.69,0,0,1,1.08-.6,4.09,4.09,0,0,1,1.25-.2,4.56,4.56,0,0,1,1.42.2,2.49,2.49,0,0,1,1.08.79c.55.66.72,1.12.5,1.39a1.74,1.74,0,0,1-1.33.4,9.08,9.08,0,0,1-1.17-.1,8.51,8.51,0,0,0-1.33-.1,2.53,2.53,0,0,1-.67-.1,2.11,2.11,0,0,0-.66-.1,9.09,9.09,0,0,0-1.25-.3,5.75,5.75,0,0,0-.92-.1H57c-.16,0-.25.07-.25.2a.59.59,0,0,0-.16.4c0,.66.44,1.12,1.33,1.38a10.44,10.44,0,0,0,3,.4h.5c.89,0,1.72,0,2.5-.1a4.31,4.31,0,0,0,1.5-.3,26.57,26.57,0,0,0-1.17,3.46c-.33,1.26-.61,2.47-.83,3.66a5.13,5.13,0,0,0-.25.69,1.67,1.67,0,0,0-.08.49,68.47,68.47,0,0,1-2.75,8.5,10.3,10.3,0,0,1-5.41,5.74,1,1,0,0,1-.5.3,2.11,2.11,0,0,1-.5.1c-1.11.39-2.31.79-3.58,1.18a20.26,20.26,0,0,1-3.91.8,4.63,4.63,0,0,1-1.17.2h-1a13.63,13.63,0,0,1-5.49-1.09,7.51,7.51,0,0,1-3.83-4.25l-.33-.4a.5.5,0,0,0-.34-.2.72.72,0,0,0-.41.2.69.69,0,0,0-.25.59V87a.55.55,0,0,0,.16.3,9.46,9.46,0,0,0,3.83,4.65,11.88,11.88,0,0,0,5.33,1.68h1.33a5.39,5.39,0,0,0-1.5.59,1.69,1.69,0,0,0-.66,1.59,2.84,2.84,0,0,0,1,2.17,3.29,3.29,0,0,0,2,.59,4.85,4.85,0,0,0,1-.1,6.52,6.52,0,0,1,1-.1l1.33-.4a6.06,6.06,0,0,0,1.33-.59l1-.4a5.28,5.28,0,0,0,.83-.4,4.87,4.87,0,0,1-.91.79,5.4,5.4,0,0,0-1.09,1,17.22,17.22,0,0,0-1.83,2.17,4.11,4.11,0,0,0-.83,2.38v.4a1.59,1.59,0,0,0,.17.59A2,2,0,0,0,48,105a3.15,3.15,0,0,0,1.42.3,8.52,8.52,0,0,0,1.74-.2,12.55,12.55,0,0,0,1.92-.59,1.43,1.43,0,0,0,.58-.11,3.19,3.19,0,0,0,.58-.3,9.93,9.93,0,0,1,1.42-.29,9.59,9.59,0,0,1,1.42-.1,3.23,3.23,0,0,1,2.5,1.08c.66.73,1,2.21,1,4.45a2,2,0,0,1-.5,1.48,1.84,1.84,0,0,1-1.34.5,8.24,8.24,0,0,1-3-.79,34.39,34.39,0,0,1-3.81-2c-.56-.39-1.11-.76-1.67-1.09a19.5,19.5,0,0,1-1.66-1.08c-1-.79-1.91-1.55-2.75-2.28a16.94,16.94,0,0,1-1.91-1.88c-.45-.39-.92-.85-1.42-1.38s-1-1-1.58-1.58c-.77-.66-1.58-1.29-2.41-1.88s-1.64-1.15-2.42-1.68A17.06,17.06,0,0,0,33.18,94a6.76,6.76,0,0,0-2.58-.6V91a57.08,57.08,0,0,0-.33-6.13,15.76,15.76,0,0,0-1.67-5.53h.18a.41.41,0,0,0,.57-.1,1.11,1.11,0,0,0,.25-.7.46.46,0,0,0-.08-.59,1,1,0,0,0-.59-.2A42.81,42.81,0,0,1,24.69,76.76Zm58,60.7a5.17,5.17,0,0,0,2.5-.89l3.16-1.88L91,133.11a7.93,7.93,0,0,1,2.34-1c-.55,1.32-1.08,2.77-1.58,4.35a16,16,0,0,0-.75,4.75V142l-3.74,1.58a20.09,20.09,0,0,0-2.42,1.19,8.85,8.85,0,0,1-1,.69,3.43,3.43,0,0,0-.83.69c-.66.66-1.39,1.45-2.16,2.37l-3.33,4a8.41,8.41,0,0,1-1.25,1.28c-.28.2-.42.24-.42.1a5.68,5.68,0,0,1,.58-1.68,27.3,27.3,0,0,1,1.42-2.67.66.66,0,0,0,.17-.4c.44-.79.86-1.51,1.24-2.17s.7-1.19.92-1.58.25-.66.08-.79a1.51,1.51,0,0,0-.91-.2,15,15,0,0,0-2.5.3q-1.68.3-3.33.69a.47.47,0,0,1-.34.2c-1,.27-2,.49-3,.69a13.14,13.14,0,0,1-2.5.3H67a1.16,1.16,0,0,1-.59-.2c.45-.26.92-.56,1.42-.89a12.33,12.33,0,0,0,1.41-1.09A13,13,0,0,0,71.13,143c.61-.53,1.19-1,1.74-1.39a49.66,49.66,0,0,1,4.58-2.76A13,13,0,0,1,82.7,137.46Zm-.84-11.86h0a12.67,12.67,0,0,0,4.84,3h-.83c-2.23,0-3.56.36-4,1.08a6.9,6.9,0,0,0-.67,3.46,4.5,4.5,0,0,0-.17,1.09v1.09a2,2,0,0,1-.66-1.19c-.11-.52-.23-1.12-.33-1.78A7.65,7.65,0,0,0,79,129.25a11.84,11.84,0,0,0-1.58-1.88.45.45,0,0,1-.33-.2c-.45-.39-.86-.79-1.25-1.19a4,4,0,0,1-.92-1.58V124a.55.55,0,0,1-.16-.3v-1.87a5,5,0,0,0-.25-1.68c-.17-.47-.64-.76-1.42-.89h-1.5c-1.22,0-2.47,0-3.74.1s-2.53.1-3.75.1-2.47.22-3.75.3-2.58.1-3.91.1H54.57a11.33,11.33,0,0,1-6.49-2.38,48.6,48.6,0,0,1-5.5-4.94.31.31,0,0,1-.25-.1l-.24-.3A76.77,76.77,0,0,0,36.26,107a12,12,0,0,0-7-2.57.86.86,0,0,0-.67.2,1,1,0,0,0-.17.59,1.1,1.1,0,0,0,.17.5.71.71,0,0,0,.67.3,11.56,11.56,0,0,1,6.66,2.57,57.31,57.31,0,0,1,5.66,5.14l.33.4.58.69a2.26,2.26,0,0,0,.58.49,9.92,9.92,0,0,0-1.33.1,8.42,8.42,0,0,1-1.33.1,2.53,2.53,0,0,0-.67.1,2.11,2.11,0,0,1-.66.1c-.78,0-1.5,0-2.17.1a19,19,0,0,1-2,.1H33.07a4.85,4.85,0,0,1-1-.1,6,6,0,0,1-1-.3,9.67,9.67,0,0,1-5.41-4.15,12.36,12.36,0,0,1-2.08-6.92,12.12,12.12,0,0,1,.67-4,9.9,9.9,0,0,1,2.16-3.46,4.93,4.93,0,0,1,1.75-1.39,5.3,5.3,0,0,1,2.08-.39,7.35,7.35,0,0,1,2.33.39,20,20,0,0,1,2.34,1,32.43,32.43,0,0,1,2.91,2.18c.94.79,1.86,1.58,2.75,2.37a10.84,10.84,0,0,0,1.16,1.19,10.86,10.86,0,0,1,1.17,1.18,43.81,43.81,0,0,0,4.74,4A28.18,28.18,0,0,0,52.05,110a38.17,38.17,0,0,0,5,1.58c1.66.39,3.49.79,5.49,1.18.67.13,1.42.27,2.25.4l2.42.4a11.62,11.62,0,0,1,6,2.87,50.84,50.84,0,0,1,4.66,4.85C79.19,122.84,80.53,124.29,81.86,125.6Zm39.05-16.2a18.66,18.66,0,0,0-2.91,6.32,14.4,14.4,0,0,0-.25,1.58,14.12,14.12,0,0,0-.09,1.59,11.82,11.82,0,0,0,.17,2,12.22,12.22,0,0,0,.5,2c-.77,1.71-1.33,2.9-1.66,3.56s-.5.66-.5,0V125a21,21,0,0,1,.16-2.38c-1.33-.26-2.24-.46-2.74-.59s-.75-.26-.75-.4.11-.26.33-.4a2.9,2.9,0,0,0,.67-.59,1.67,1.67,0,0,0,1-.79c.22-.4.11-.86-.34-1.38s-.71-.83-1.16-1.29-.89-.88-1.33-1.28a5.8,5.8,0,0,0-.84-.8l-1-.79a11.11,11.11,0,0,1-1.08-1c-.39-.4-.75-.8-1.08-1.19a15.27,15.27,0,0,1,2.41-1c.84-.26,1.64-.52,2.42-.79a39.81,39.81,0,0,0,6.74-2.57,13.73,13.73,0,0,0,5.58-5.34l.33,3A10.54,10.54,0,0,0,120.91,109.4Zm15.64,31c-.39-.26-.8-.53-1.24-.79.66.13,1.33.29,2,.49a6.73,6.73,0,0,0,2,.3,14,14,0,0,0,1.83.3,19,19,0,0,0,2,.1c.77,0,1.58,0,2.41-.1h0c.83-.07,1.63-.17,2.41-.3-.11.4-.25.82-.41,1.28s-.31.89-.42,1.29a5,5,0,0,0-.5,1.19,5.58,5.58,0,0,1-.5,1.18q-2.16-1-4.33-2.07c-1.44-.73-2.78-1.42-4-2.08C137.36,141,136.94,140.69,136.55,140.43Zm.92,30.93c-.11,1.18-.16,2.36-.16,3.54v8.57h-13.6l-.39-.13a15.15,15.15,0,0,1-2.33-1.29,2,2,0,0,1-1-1.68V180a55.24,55.24,0,0,0,6.33,1.58q3.17.58,6.33,1l-.84-28.28a15.56,15.56,0,0,0,4.33-4.15,44.34,44.34,0,0,0,3.17-5.14,33.35,33.35,0,0,0,3,1.48,8.3,8.3,0,0,1,1.66.89l.15.1a1.2,1.2,0,0,1,.27,1.68h0q-.58,1.19-2.58,4.94a2.29,2.29,0,0,1-.33.59,2.19,2.19,0,0,0-.33.6,21.91,21.91,0,0,0-2.58,7.36A85.85,85.85,0,0,0,137.47,171.36Zm29.14-37.26a29.54,29.54,0,0,1-4.83,6.13,13.77,13.77,0,0,0-1.16,3,36.88,36.88,0,0,0-.83,3.75c-.11.79-.25,1.58-.42,2.38s-.31,1.51-.42,2.17c-.32,2.11-.77,3.26-1.33,3.46s-1.39-1.94-2.5-6.42l-2.16.59a38.36,38.36,0,0,0,2.66,7.12,27.38,27.38,0,0,0,4.16,6.13,28.94,28.94,0,0,1,1,4.5,37.77,37.77,0,0,1,.34,5.1,53.2,53.2,0,0,1-.34,5.78c-.19,1.77-.43,3.68-.71,5.71h-20.6v-2.11a7.63,7.63,0,0,1-.16-1.58v-4.85a29.53,29.53,0,0,1,.16-3.26,56.51,56.51,0,0,1,.92-8.3,20.35,20.35,0,0,1,2.41-6.72q2.34-4,4.33-8.11a56.13,56.13,0,0,0,3.33-8.7,32.89,32.89,0,0,0,10.16-5.14h0a55.68,55.68,0,0,0,8.83-8.11A23.48,23.48,0,0,1,166.61,134.1Z"/><path class="cls-1" d="M35.16,65.71a15.28,15.28,0,0,0,4.41.59h.34a14.87,14.87,0,0,0,4.24-.59v0c1.27-.39,1.8-.92,1.57-1.58-.11-.39-.27-.56-.5-.49a2.45,2.45,0,0,1-.66.1.5.5,0,0,1-.34.2H43.9a3.18,3.18,0,0,0-1.41-2.57,4.68,4.68,0,0,0-4.25-.49,8.47,8.47,0,0,0-1.5.69.26.26,0,0,0-.25.2,1.06,1.06,0,0,0-.08.4.86.86,0,0,0,.25.49c.17.2.36.17.58-.1a2.47,2.47,0,0,1,1.08-.49,7.61,7.61,0,0,1,1.25-.1h.84c.33.13.63.27.91.4a2.16,2.16,0,0,1,.75.59c.55.53.69.92.42,1.19a2.11,2.11,0,0,1-1.42.4,11.16,11.16,0,0,1-1.41-.11,12.11,12.11,0,0,0-1.59-.09,1.09,1.09,0,0,0-.58-.2h-.58a9.09,9.09,0,0,0-1.25-.3,6.59,6.59,0,0,0-1.08-.11h-.42c-.16,0-.25.07-.25.2C33.47,64.72,33.88,65.31,35.16,65.71Z"/><path class="cls-1" d="M22.68,66.77a1.68,1.68,0,0,0-1.25-.69h0a.62.62,0,0,0-.65.59,1,1,0,0,0,.17.6.63.63,0,0,0,.5.2.83.83,0,0,1,.75.4,1.9,1.9,0,0,1,.25,1v.2h.17a2.42,2.42,0,0,0,.16,1h0a.53.53,0,0,0,.49.39c.33,0,.52-.23.58-.69a2.89,2.89,0,0,0-.25-1.48A6.14,6.14,0,0,0,22.68,66.77Z"/><path class="cls-1" d="M21.26,93.08a29.21,29.21,0,0,0,1.34-5.44c.22-1.45.38-2.83.5-4.15h0c.11-1.32.17-2,.16-2.17a.9.9,0,0,0-.16-.6.5.5,0,0,0-.34-.2.67.67,0,0,0-.33.1.34.34,0,0,0-.17.3,12.21,12.21,0,0,1-.66,1.68,23.17,23.17,0,0,0-1,2.67c-.11.27-.23.56-.34.89s-.22.63-.33.89a30.94,30.94,0,0,0-1,3.66,3.46,3.46,0,0,0,.17,2.47Q20.43,95.35,21.26,93.08Z"/><path class="cls-1" d="M51.57,83.27a.5.5,0,0,1-.34-.2c-.33-.53-.61-.76-.83-.69a1.37,1.37,0,0,0-.67.49c0,.14,0,.2-.16.2l-.25.3a.31.31,0,0,1-.25.1l-.17-.2a1.05,1.05,0,0,0-1-.49c-.33.07-.72.17-1.16.3a4,4,0,0,1-.67.3,3,3,0,0,1-.67.1h-.83c-.44,0-.72.07-.83.2h0a.29.29,0,0,0,0,.4,2,2,0,0,0,.83.59,3.58,3.58,0,0,0,1.34.2h.66a4.92,4.92,0,0,0,.83,1.78,1.5,1.5,0,0,0,1.17.59A1.78,1.78,0,0,0,50,86.55a3.84,3.84,0,0,0,.75-2.08h.5a.44.44,0,0,0,.34.2h.33a1.22,1.22,0,0,0,.66-.2h0q.33-.2.33-.42v-.2c.11-.26.05-.42-.17-.49a2.11,2.11,0,0,0-.66-.1Z"/><path class="cls-1" d="M38,56.4c.72-.26,1.42-.52,2.08-.79q1.34-.39,2.58-.69a10.91,10.91,0,0,1,2.42-.3,6.42,6.42,0,0,1,2.33.4,2.83,2.83,0,0,1,1.5,1.39l.25.3a.28.28,0,0,0,.25.09.65.65,0,0,0,.83-.2h0a.83.83,0,0,0,0-1,4,4,0,0,0-1.91-2A6.82,6.82,0,0,0,45.4,53a17.55,17.55,0,0,0-2.5.2,14.41,14.41,0,0,0-2.5.59c-.89.27-1.74.56-2.58.89s-1.64.63-2.41.89-1.69.79-2.41,1.19-1.36.72-1.92,1a.9.9,0,0,0-.42.4,1.06,1.06,0,0,0-.08.4,1.38,1.38,0,0,0,.17.69q.16.3.33.3h.25c.06,0,.14-.07.25-.2q.66-.4,1.83-1c.78-.39,1.61-.79,2.5-1.19C36.58,56.93,37.27,56.66,38,56.4Z"/><path class="cls-1" d="M33.92,130.74a27.32,27.32,0,0,1-1,4.65c-.45,1.38-.89,2.74-1.33,4.05a1.24,1.24,0,0,0-.25.5,2,2,0,0,0-.09.49c-.55,1.45-1.05,2.93-1.5,4.45a18.88,18.88,0,0,0-.66,5.24v1.18a6.52,6.52,0,0,0,.17,1.39,17,17,0,0,0-7.66,6.48,48.89,48.89,0,0,0-5,9.83,4.17,4.17,0,0,0-.25.78,4.52,4.52,0,0,1-.25.79,23.82,23.82,0,0,0-6.49,5.11q-2.83,3.13-3.16,8.64H8.61l16.81-15a7.7,7.7,0,0,1,1.17.1,7.46,7.46,0,0,0,1.16.1h.5a16.94,16.94,0,0,1,6.08,1.29q2.41,1.08-1.42,5.83a1.09,1.09,0,0,0-.08.69,5.13,5.13,0,0,0,.25.69l.42.5c.17.19.3.36.42.49a2.3,2.3,0,0,1,.58.5,2.83,2.83,0,0,1,.42.69v4.14h6.78l0-.05a32.61,32.61,0,0,1-1-4.1,23.87,23.87,0,0,1-.33-4,21.13,21.13,0,0,1,1.08-6.92A44.36,44.36,0,0,1,44.24,163c.55-.92,1.08-1.87,1.58-2.86a21.56,21.56,0,0,1,1.75-2.87c.44-.79.89-1.61,1.33-2.47s.89-1.75,1.33-2.67a29.41,29.41,0,0,0,2.83-9,86.86,86.86,0,0,0,.84-9.39q-5.84-.41-11-1A39.47,39.47,0,0,1,33.92,130.74ZM21.84,170.57c-.49.47-1,.9-1.41,1.29a1.76,1.76,0,0,0-.5.4,2.15,2.15,0,0,1-.5.4c-1.22,1.19-2.47,2.37-3.75,3.56a29,29,0,0,1-4.07,3.16c-.45.27-.81.46-1.09.6a1.78,1.78,0,0,1-.75.2c-.44.13-.61-.07-.5-.6A4.89,4.89,0,0,1,9.94,178a2.63,2.63,0,0,0,.33-.49,2.85,2.85,0,0,1,.34-.49,17,17,0,0,1,2.91-2.77,21.8,21.8,0,0,1,3.58-2.18.26.26,0,0,0,.25-.2,1,1,0,0,0,.08-.39,1.38,1.38,0,0,0,.25-.5,6.37,6.37,0,0,1,.25-.69c.11-.27.28-.73.5-1.38l4.62.56Zm14.58,13.75v-2.76c1.1,1.05,1.83,1.74,2.16,2.07h0C38.92,184,38.19,184.19,36.42,184.32Zm-1.84-6.92a14.86,14.86,0,0,0,1-1.28,12.08,12.08,0,0,0,.67-1.09,4.52,4.52,0,0,0,.25-.79,4.23,4.23,0,0,0,.08-.79,9.39,9.39,0,0,0-.08-1.19,8.56,8.56,0,0,0-.42-1.58c1.56.26,2.5.82,2.83,1.68a8.86,8.86,0,0,1,.5,3.26V178c0,.79,0,1.61.09,2.47a21.18,21.18,0,0,0,.41,2.86Z"/><path class="cls-1" d="M48.82,78.54H48.4a.54.54,0,0,0-.5.3,1.09,1.09,0,0,0-.16.49.62.62,0,0,0,.08.7.78.78,0,0,0,.58.3h2.33a3.36,3.36,0,0,0,1.33-.3h0c.44-.2.61-.43.5-.7a.77.77,0,0,0-.5-.79,3.13,3.13,0,0,0-1.17-.2H49.4A1.09,1.09,0,0,1,48.82,78.54Z"/></svg>