<svg id="Layer_1" data-name="Layer 1" xmlns="http://www.w3.org/2000/svg" viewBox="0 0 118.76 181.66"><title>avatar_icons</title><path d="M47.74,63.33a1.05,1.05,0,0,1-.5-.29q-.48-.39-.81,0a1.17,1.17,0,0,0-.33.77,1,1,0,0,0,.16.48,3.08,3.08,0,0,0,.32.48A.75.75,0,0,1,47,65a4.35,4.35,0,0,0,.57.38.75.75,0,0,1,.32.1,1.81,1.81,0,0,1,.33.29,1.17,1.17,0,0,1,.41.1,1.06,1.06,0,0,0,.4.09.56.56,0,0,0,.49-.19l.34-.38a1,1,0,0,0-.32-1.06,2.72,2.72,0,0,0-1.14-.68A3.4,3.4,0,0,0,47.74,63.33Z"/><path d="M47.88,37.25v-.58a1.44,1.44,0,0,0-.25-.78c-.16-.25-.51-.32-1.06-.19Q39.88,37.05,36,38.22,32.86,39,30.08,40A12.37,12.37,0,0,0,26,42.1a1.36,1.36,0,0,0-.74,1c-.05.39.19.77.74,1.16a12.45,12.45,0,0,0,3.59,1.65,14.05,14.05,0,0,0,3.76.48h1.3a16.22,16.22,0,0,0,5.56-1.45,14.35,14.35,0,0,0,4.73-3.4,2.21,2.21,0,0,1,.57.48,2.35,2.35,0,0,0,.57.48,4.76,4.76,0,0,0,.82,1.07,1.42,1.42,0,0,0,1,.48,1,1,0,0,0,.57-.19h0a4,4,0,0,0,.58-.58,1.76,1.76,0,0,0,.4-.67,2,2,0,0,0,.09-.48,2.07,2.07,0,0,0-.41-1.17,7.76,7.76,0,0,0-1.06-1.16l-.41-.48-.41-.48a2.08,2.08,0,0,0,.33-.58C47.68,37.9,47.79,37.58,47.88,37.25Z"/><path d="M29.92,53.91a2.71,2.71,0,0,0,1-.19.46.46,0,0,1,.32-.2,1,1,0,0,1,.41-.29,1.45,1.45,0,0,1,.41-.1,5.93,5.93,0,0,1,1.39-.29,19.76,19.76,0,0,1,2-.09,7.61,7.61,0,0,1,1.71-.2,9.16,9.16,0,0,0,1.88-.19,34.1,34.1,0,0,0,4.82-.68h0c1.47-.32,2.26-.88,2.38-1.64h0a1,1,0,0,0-.66-1.26,6.59,6.59,0,0,0-2.12-.29,19.45,19.45,0,0,0-2.53.19,25,25,0,0,0-2.86.59,15.14,15.14,0,0,0-2.12.48c-.66.18-1.26.35-1.8.47a18,18,0,0,0-2.78.88l-1.63.68c-.33.13-.52.26-.57.38a2.12,2.12,0,0,0,.08,1C29.38,53.65,29.6,53.91,29.92,53.91Z"/><path d="M116.14,119.85a5.3,5.3,0,0,0,.66.68h0c.22.2.54,0,1-.48,1-.9.87-1.71-.32-2.42a20.53,20.53,0,0,0-4.25-1.84c-1.2-.26-2.32-.52-3.35-.78s-1.61-.39-1.72-.39a1,1,0,0,0-1.06.2,1.27,1.27,0,0,0-.41,1v.38a2.47,2.47,0,0,0,.41.68,2.17,2.17,0,0,0,.57.48,9.11,9.11,0,0,0,1.64.39l2.44.39c1,.26,1.91.52,2.78.77A2.73,2.73,0,0,1,116.14,119.85Z"/><path d="M44.94,2.32a30.65,30.65,0,0,1,5.63,10.57A42.17,42.17,0,0,1,52.29,25V27c0,.65.57,1.1,1.71,1.36a28.74,28.74,0,0,0,3.68.58h2.94A9.29,9.29,0,0,1,62,29a5.28,5.28,0,0,0,.9.1,19,19,0,0,1,2.2.48,18.7,18.7,0,0,1,2,.67c1,.26,1.85.52,2.62.78a6.37,6.37,0,0,0,2.12.39,2.69,2.69,0,0,0,2.37-1.55,14.82,14.82,0,0,0,1-6v-.77a16.65,16.65,0,0,0-5.63-13A39.1,39.1,0,0,0,57.35,2.53,37.28,37.28,0,0,0,51.22.78,50.36,50.36,0,0,0,45.75,0a1,1,0,0,0-.82.39,1.49,1.49,0,0,0-.32,1,1.86,1.86,0,0,0,.09.48A1.09,1.09,0,0,0,44.94,2.32Z"/><path d="M15.06,133.43a1,1,0,0,0,.81.38,2.5,2.5,0,0,0,.66-.09.78.78,0,0,0,.49-.48A27.91,27.91,0,0,1,18.89,129a11.48,11.48,0,0,1,2.7-3.3,2,2,0,0,0,.25-.39,1,1,0,0,0,.08-.39,1.09,1.09,0,0,0-.25-1.06,2.28,2.28,0,0,0-.89-.68.58.58,0,0,0-.32.1l-.49.29a11.65,11.65,0,0,0-2.29,2.71c-.33.65-.61.84-.82.58a5.77,5.77,0,0,1-.49-1.45,35.92,35.92,0,0,0-1.31-3.78,1.41,1.41,0,0,0-.4-.59,1,1,0,0,0-.57-.19,1,1,0,0,0-1.15.39,1.34,1.34,0,0,0,0,1.55,4.85,4.85,0,0,1,.49,1.26,9.27,9.27,0,0,0,.49,1.46q.33,1.35.57,2.61a15.65,15.65,0,0,1,.25,2.82v1.55A1.44,1.44,0,0,0,15.06,133.43Z"/><path d="M.1,108.71c.06.45.14.94.25,1.45.76,2.85,1.88,4.66,3.34,5.43a10.24,10.24,0,0,0,4.82,1.17h1.8a9.65,9.65,0,0,1-.9,3.29A31.13,31.13,0,0,1,7.86,123,5.77,5.77,0,0,1,7.45,124a4.21,4.21,0,0,1-.57.87v.2a1.83,1.83,0,0,0-.16.77,1.65,1.65,0,0,0,.49,1c.11.13.19.2.24.2H7.7a1.66,1.66,0,0,0,.73-.2,1.83,1.83,0,0,0,.74-.77,10.33,10.33,0,0,0,1.55-2.82c.49-1.22.95-2.49,1.39-3.78a25.72,25.72,0,0,0,.49-2.62,18.58,18.58,0,0,0,.16-2.23v-.78a.56.56,0,0,1-.16-.29v-.29a2.47,2.47,0,0,1-.16-1v-2.72a13.42,13.42,0,0,0-.25-2.61c-.16-.85-.51-1.33-1.06-1.46s-.76.29-1,.87a6.79,6.79,0,0,0-.32,2.24v1.74a4.16,4.16,0,0,1,.16,1.16,4.65,4.65,0,0,0,.16,1.17,3.31,3.31,0,0,0,.09.77,3.85,3.85,0,0,1,.08.58H8.68a8.52,8.52,0,0,1-3.75-.77,5.37,5.37,0,0,1-2.45-3.69,3.78,3.78,0,0,1-.16-1.06v-.88a4.05,4.05,0,0,1,1.8-4.17,11.1,11.1,0,0,1,4.4-1.26h.82c.76,0,1.5,0,2.21.1a15,15,0,0,1,1.88.3,6.17,6.17,0,0,1,4.81,4.07,27.1,27.1,0,0,1,1.55,7.17,22.43,22.43,0,0,0,1.47,5.92,17.42,17.42,0,0,0,2.62,4.17c.43.52.89,1,1.38,1.55s1,1,1.56,1.55a.42.42,0,0,1,.32.19,1.1,1.1,0,0,0,1.39-.19,1.7,1.7,0,0,0,.41-1.55.26.26,0,0,1-.25-.2,1.36,1.36,0,0,0-.24-.38,6,6,0,0,0-.66-.68,4.36,4.36,0,0,0-.65-.48,21.92,21.92,0,0,1-2.86-3.3,11,11,0,0,1-1.71-4.27h1a4.26,4.26,0,0,1,1.46.2,1.62,1.62,0,0,1,.82.77,3.8,3.8,0,0,1,.57,1,8.5,8.5,0,0,0,.74,1.36,29.63,29.63,0,0,0,5.55,7.86,45.34,45.34,0,0,0,6.86,5.33c.43.26.9.51,1.39.77s1,.52,1.38.78c-.22.91-.38,1.71-.49,2.43a15.29,15.29,0,0,0-.16,2,3.71,3.71,0,0,0,.09,1.75,7,7,0,0,0,.57,1.36l-24.66,9.89a37.7,37.7,0,0,0,4.24,9.69,24.4,24.4,0,0,0,9,8.34c-1.09,1.42-1.94,2.49-2.54,3.2A17.65,17.65,0,0,0,27,174.74a5.31,5.31,0,0,0-.41,1.55c-.06.52-.08,1.36-.08,2.53,0,.38,0,.87-.08,1.45,0,.41-.06.89-.07,1.39h3.18A39.75,39.75,0,0,1,33,177a29.73,29.73,0,0,1,4.74-4.37,5.27,5.27,0,0,0,1.55.48c.52.07,1,.17,1.55.29a6.79,6.79,0,0,0,1.55.2H44a9.76,9.76,0,0,0-.73,1.35,3.15,3.15,0,0,0-.25,1.17,3.45,3.45,0,0,0,.16,1.06,6.9,6.9,0,0,0,.49,1.07,10.73,10.73,0,0,0,1.23,1.55,9.83,9.83,0,0,1,1.34,1.87h2.86a39.26,39.26,0,0,1,.6-4.43q.48-2.53,1.14-5.07l2.29-.78c.76-.26,1.47-.52,2.12-.78l4.9-1.85a11.9,11.9,0,0,1,4.24-.88h1a13.13,13.13,0,0,1,2.62.69c.87.32,1.74.68,2.61,1.07a12.49,12.49,0,0,0,1.31.68,12,12,0,0,0,1.3.49c-.76-1.17-1.46-2.28-2.12-3.32s-1.25-2.08-1.8-3.12a34.4,34.4,0,0,1-2.85-7.8,39.82,39.82,0,0,1-.9-9v-2.1a6.1,6.1,0,0,1,.24-1.65c.17-.58.3-1.13.41-1.65s.25-1.32.41-2a8.67,8.67,0,0,0,.24-2,12.76,12.76,0,0,0-.15-2.14c-.11-.64-.22-1.29-.32-1.94v-.38a.65.65,0,0,0-.16-.39c-.11-.65-.22-1.33-.32-2a14,14,0,0,1-.16-2.24v-.38a1.53,1.53,0,0,1,.16-.59v-1a8.73,8.73,0,0,0,6.69-3.5,11.56,11.56,0,0,0,2.61-7.37,13.21,13.21,0,0,0-.4-3.19,8.88,8.88,0,0,0-1.39-3,19.17,19.17,0,0,0,6,2.14,34.88,34.88,0,0,0,6.29.58c1.19,0,2.42,0,3.67-.1s2.43-.16,3.52-.29a3.06,3.06,0,0,0,.73-.1,3.93,3.93,0,0,1,.9-.09h.49a1.11,1.11,0,0,0,.49-.2h1.14a3.66,3.66,0,0,1,1.31.2,1.07,1.07,0,0,1,.65.58,6.88,6.88,0,0,0,1.47,2.62,12.39,12.39,0,0,0,2.12,1.84,5,5,0,0,1,.66.48c.17.15.33.31.49.48a8.79,8.79,0,0,1,1.79,1.55,3.74,3.74,0,0,1,.82,1.94,2.62,2.62,0,0,0,.49,1c.22.26.43.32.65.19a1.24,1.24,0,0,0,.9-.39,1.86,1.86,0,0,0,.41-1.36,5.87,5.87,0,0,0-1.47-3.58,11.9,11.9,0,0,0-2.62-1.84,18.07,18.07,0,0,1-2-1.46,5,5,0,0,1-1.55-2.43,3.17,3.17,0,0,0-1.47-2A7.51,7.51,0,0,0,97,109a9.29,9.29,0,0,0-1.39.1,8.38,8.38,0,0,0-1.39.29l-3.75.38c-1.31.13-2.62.2-3.92.2H85.45a29,29,0,0,1-8.5-1.65A14.2,14.2,0,0,1,70.09,103a1.36,1.36,0,0,1-.24-.38,1.62,1.62,0,0,0-.25-.39A5.11,5.11,0,0,0,68.54,101c-.38-.33-.79-.17-1.22.48-.11.25-.22.51-.32.77v.48a.68.68,0,0,0,.16.48,4.64,4.64,0,0,0,.49.87,2,2,0,0,0,.65.68,2.86,2.86,0,0,0,.49.78l.49.58-1-.39a5,5,0,0,1-.81-.38,5.54,5.54,0,0,1-1-.1,5.32,5.32,0,0,0-1-.1,9.1,9.1,0,0,0-3.6.78,8.36,8.36,0,0,0-3.1,2.33H45.27a10.78,10.78,0,0,0-8.17,3.68,12.18,12.18,0,0,0-3.43,8.51,11.92,11.92,0,0,0,.09,1.46,8,8,0,0,0,.24,1.26,10.41,10.41,0,0,0,.41,1.45c.16.46.35.94.57,1.46a15.65,15.65,0,0,1-2.86-3.11q-1.21-1.74-2.37-3.68a2.44,2.44,0,0,0-.4-.68,2.47,2.47,0,0,1-.41-.68c-.22-.39-.44-.77-.65-1.16a8,8,0,0,1-.49-1,5.83,5.83,0,0,0-1.72-1.94,5,5,0,0,0-2.69-.58H22.08a34.83,34.83,0,0,0-.65-4.66,14.31,14.31,0,0,0-1.64-4.27,3.4,3.4,0,0,0,.9-.09,6.75,6.75,0,0,0,.9-.29,1.07,1.07,0,0,0,.4-.1,1.17,1.17,0,0,1,.41-.1,6.27,6.27,0,0,1,.58-.29,1.3,1.3,0,0,1,.4-.09A29,29,0,0,1,28,101.7a15.88,15.88,0,0,1,3.76-.48,18.92,18.92,0,0,1,3.68.39c1.25.26,2.74.65,4.49,1.16h.32c0,.13,0,.2.16.2a.6.6,0,0,0,.49-.2,2.58,2.58,0,0,0,.32-1c.11-.77-.3-1.38-1.22-1.84a13.9,13.9,0,0,0-3.19-1.06,12,12,0,0,0-2.53-.48c-.81-.07-1.38-.1-1.71-.1-.1-.65-.21-1.29-.32-1.94a4.63,4.63,0,0,1,0-1.74V90.27A4.89,4.89,0,0,0,32,89a6,6,0,0,0-.16-1.26c-.1-.45-.21-.87-.32-1.26A21.25,21.25,0,0,0,37.85,91a22.76,22.76,0,0,0,7.59,2.14,2.76,2.76,0,0,0,1.06.19h1.23A18.84,18.84,0,0,0,51.16,93a12.85,12.85,0,0,0,3.26-1.07,7.17,7.17,0,0,1,.16,1.46v3.19a5.82,5.82,0,0,1-.33,1.94c-.1.65-.21,1.26-.32,1.85a8.7,8.7,0,0,0-.16,1.45,5.32,5.32,0,0,0,.41,2.33,2,2,0,0,0,.9,1,.8.8,0,0,0,.9-.2,1.31,1.31,0,0,0,.41-1v-.38a9.37,9.37,0,0,1-.25-1.17,8.92,8.92,0,0,1-.08-1.16,3,3,0,0,1,1.22-2.72,7.06,7.06,0,0,1,3-1,16.31,16.31,0,0,1,3.26.39l3.59.78a8.6,8.6,0,0,0,.9.29,5.56,5.56,0,0,1,.9.29c1.52.39,2.94.77,4.25,1.16a11.63,11.63,0,0,0,3.26.58h.82c2.72,0,5.27.07,7.67.2a34.35,34.35,0,0,1,7.19,1.16c1.29.52,2.63,1.1,4,1.74a25.94,25.94,0,0,1,4.16,2.53,37.51,37.51,0,0,0,3.43,2.32,21,21,0,0,0,3.11,1.55,19.81,19.81,0,0,0,3.51,1.17,17.66,17.66,0,0,0,3.83.39h1.64a9,9,0,0,0,1.79-.2.94.94,0,0,0,.82-.48,1.6,1.6,0,0,0,.33-.87,1.48,1.48,0,0,0-.33-1,1.24,1.24,0,0,0-1-.39,6.79,6.79,0,0,1-1.55.2h-1.55a20.54,20.54,0,0,1-3.59-.29,12.92,12.92,0,0,1-3.27-1.07,15.58,15.58,0,0,1-2.94-1.55c-1-.65-2-1.36-3.1-2.13a44,44,0,0,0-5.72-3.4,24.45,24.45,0,0,0-5-1.85,33.8,33.8,0,0,0-3.76-.59c-1.3-.13-2.66-.19-4.08-.19H78.76c-1,0-1.91,0-2.78-.1s-1.74-.16-2.61-.29c-.65-.12-1.33-.29-2-.48a18.07,18.07,0,0,1-2-.68c-1.2-.39-2.53-.74-4-1.06a26.7,26.7,0,0,0-5.64-.48H56.88c0-.78,0-1.55-.09-2.33s-.14-1.55-.24-2.33a20.09,20.09,0,0,0,5.63-5.62,58.33,58.33,0,0,0,4.17-7.18,8.13,8.13,0,0,0,2,4.56,4.9,4.9,0,0,0,3.75,1.84A4.84,4.84,0,0,0,76.31,82a8,8,0,0,0,1.47-4.66,8.43,8.43,0,0,0-1.06-4.07,5,5,0,0,0-3.36-2.52A14.09,14.09,0,0,0,79,65.93a23.69,23.69,0,0,0,3.67-7.56c.11-.52.22-1.1.33-1.75a10.75,10.75,0,0,0-1-6.69,8.47,8.47,0,0,0-3.76-3.59,3.9,3.9,0,0,1-.9-.48,2.85,2.85,0,0,1-.57-.47A2.07,2.07,0,0,1,76.3,44a7.11,7.11,0,0,1,.33-1.94,2.8,2.8,0,0,1,.08-.58,4.13,4.13,0,0,0,.08-.78V40a4.47,4.47,0,0,0-.73-2.61,2.8,2.8,0,0,0-1.55-1.26h-.32a.42.42,0,0,0-.32.19,2.81,2.81,0,0,0-.66.58,7.13,7.13,0,0,0-.65,1,14.07,14.07,0,0,0-1.88-.68c-1-.32-2.21-.68-3.51-1.06l-1.88-.39-1.88-.39c-1.09-.26-2.15-.48-3.18-.68a16.13,16.13,0,0,0-2.86-.29,3.69,3.69,0,0,0-2.7.77c-.49.52-.19,1.43.9,2.72a3.19,3.19,0,0,1-.49.78l-.65.77c-.24.28-.45.57-.66.87a5.81,5.81,0,0,0-.49.88,1.35,1.35,0,0,0-.24.48,2.22,2.22,0,0,0-.08.68,1.87,1.87,0,0,0,.16.77,2.92,2.92,0,0,0,.49.78c.65.64,1.22.71,1.71.19a13.59,13.59,0,0,0,1.39-1.74c.33-.65.6-1.21.82-1.65s.43-.61.65-.48a15.45,15.45,0,0,0,2.2,1.26,9.78,9.78,0,0,0,2,.68,6.35,6.35,0,0,1,1.07.09,5.36,5.36,0,0,0,1.06.1,16.58,16.58,0,0,0,2.53-.19,26.82,26.82,0,0,0,2.69-.59,1.48,1.48,0,0,1,.74-.19h.57c.77,0,1.09.29,1,.87s-.28,1.26-.49,2a4.17,4.17,0,0,0-.25.78,4.29,4.29,0,0,1-.24.77,5,5,0,0,1-.08.87,7.62,7.62,0,0,0-.08,1.26q0,1.56-.09,3.69c0,1.42-.14,2.91-.24,4.46q-.16,3.89-.58,7.08c-.27,2.14-.62,3.33-1.06,3.59A59.64,59.64,0,0,1,60.38,83.3a16,16,0,0,1-13.31,7.08,16.47,16.47,0,0,1-3.83-.48,27.52,27.52,0,0,1-4.33-1.45,18.47,18.47,0,0,1-7-5.14A46.67,46.67,0,0,1,27,75.84a4.74,4.74,0,0,1-.57-.88c-.16-.32-.3-.61-.41-.87a11.07,11.07,0,0,0,2.86-3.88,13.77,13.77,0,0,0,1.23-4.84v-1a7,7,0,0,0-.49-2.72c-.33-.77-.66-1.48-1-2.13a.27.27,0,0,1-.25-.2,1.36,1.36,0,0,0-.24-.38,8.19,8.19,0,0,1-1.07-2.82c-.16-1-.3-1.9-.4-2.81v-.58a23.31,23.31,0,0,0-.57-3.11,7.45,7.45,0,0,0-1.88-3.1,5.41,5.41,0,0,0-1.06-1A4.33,4.33,0,0,0,21.92,45a1.19,1.19,0,0,0-.57-.2h-.57a7.74,7.74,0,0,0-1.07.1c-.41.08-.82.17-1.22.29a14.16,14.16,0,0,0-2.86,1.56,27.64,27.64,0,0,0-2.69,2.13L11.63,50a10.5,10.5,0,0,0-1.14,1.17,13.1,13.1,0,0,0-3.27,4.65,20.34,20.34,0,0,0-1.47,5.63V63a17.56,17.56,0,0,0,2.94,9.89,10,10,0,0,0,8.49,4.66,8.64,8.64,0,0,0-1.79,2.71,7.92,7.92,0,0,0-.66,3.11,9,9,0,0,0,1.72,5.33,5.4,5.4,0,0,0,4.65,2.42,5.86,5.86,0,0,0,4.66-2.23,8,8,0,0,0,1.87-5.34V83.2c.11.27.22.55.32.88s.22.61.33.87A17.23,17.23,0,0,0,29,86.79a7.54,7.54,0,0,1,.57,1.84,6.73,6.73,0,0,1,.32,2.14v5.14a16.31,16.31,0,0,0,.16,2.42,18.8,18.8,0,0,0-2.78.58,22.1,22.1,0,0,0-2.61,1,8.5,8.5,0,0,1-.82.29l-.81.29c-.77.26-1.53.49-2.29.68a8.88,8.88,0,0,1-2.29.29H17.33a10.3,10.3,0,0,0-3.43-1.74,14.12,14.12,0,0,0-4.08-.58,12.34,12.34,0,0,0-6.7,1.94,6.76,6.76,0,0,0-3.1,6.2A11.8,11.8,0,0,0,.1,108.71Zm31.53,66.72c-1.15,1.35-2.26,2.74-3.35,4.17a9.62,9.62,0,0,1,.49-3.49,12.42,12.42,0,0,1,1.31-2.33c.33-.39.73-.84,1.22-1.36s1-1.1,1.56-1.74a10.14,10.14,0,0,1,1.3.48,13,13,0,0,1,1.17.61A29.08,29.08,0,0,0,31.63,175.43Zm14.3-1.37a7.76,7.76,0,0,1,.49-.68.42.42,0,0,1,.32-.19.42.42,0,0,0,.32-.19h1.59a28.64,28.64,0,0,0-.76,3c-.22,1.1-.44,2.24-.66,3.4l-2.29-3.88C45.38,174.87,45.7,174.38,45.93,174.06ZM68.29,77.57a6.41,6.41,0,0,1,.9-3.39,3.11,3.11,0,0,1,2.86-1.46A3.37,3.37,0,0,1,74.83,74,5.33,5.33,0,0,1,76,76.6v.58a6,6,0,0,1-1,3.4h0A3.3,3.3,0,0,1,72.05,82a3.09,3.09,0,0,1-2.61-1.26,5.27,5.27,0,0,1-1.15-2.61ZM23.8,75.73c.16-.06.3,0,.41.29a2.75,2.75,0,0,1,.32.58h0a8.81,8.81,0,0,0,.49,1,4.65,4.65,0,0,0-2.12-1.36A7.77,7.77,0,0,1,23.8,75.73Zm1.87,7.66a7,7,0,0,1-1.14,3.88h0A3.87,3.87,0,0,1,21.1,89a3.71,3.71,0,0,1-3.19-1.46,6.29,6.29,0,0,1-1.22-3.19v-.59a6.88,6.88,0,0,1,1.14-3.88,3.69,3.69,0,0,1,3.27-1.74,3.9,3.9,0,0,1,3.26,1.45,6,6,0,0,1,1.31,3.2Z"/><path d="M40.28,74.18l.9,1.07a33.54,33.54,0,0,0,4.58,4.17,8.1,8.1,0,0,0,4.9,1.84,5.22,5.22,0,0,0,2.2-.48,15.55,15.55,0,0,0,2.21-1.26,4.23,4.23,0,0,0,1.39-1.94c.27-.77.57-1.55.89-2.33s.47-1.52.74-2.23h0a4.94,4.94,0,0,1,1.22-1.84c.87-.77.74-1.39-.4-1.84a20.77,20.77,0,0,0-4.17-1.07c-1.09-.13-2.12-.22-3.1-.29s-1.58-.09-1.8-.09a15,15,0,0,0-1.88.29,35.26,35.26,0,0,0-3.51.87A17.56,17.56,0,0,0,40.2,71c-1.2.77-1.47,1.55-.81,2.33A6.65,6.65,0,0,1,40.28,74.18ZM43.63,72l1.64-.78a20.35,20.35,0,0,1,3.26-.87A18.93,18.93,0,0,1,51.8,70a16.48,16.48,0,0,1,2.53.19h0a21.71,21.71,0,0,1,2.54.57,7.42,7.42,0,0,0-.74,1.46,7.49,7.49,0,0,1-.57,1.26,12.1,12.1,0,0,1-1.14,2.13A3.62,3.62,0,0,1,52.13,77a8.27,8.27,0,0,1-1.31.29,8,8,0,0,1-1.3.1A6.06,6.06,0,0,1,46,76.3a18.81,18.81,0,0,1-3-2.62,1.3,1.3,0,0,1-.49-.47,1.33,1.33,0,0,0-.49-.48Z"/><path d="M23.55,107.05h-.49a.93.93,0,0,0-.74.29,1.34,1.34,0,0,0-.24.87,2.47,2.47,0,0,0,.41.68.87.87,0,0,0,.73.29,6,6,0,0,1,3.59,1.07,6.13,6.13,0,0,1,2.13,3.59,1.37,1.37,0,0,0,.41.58.68.68,0,0,0,.4.19.94.94,0,0,0,.82-.48h0a1.2,1.2,0,0,0,.16-1.07A9.31,9.31,0,0,0,28,108.5,6.84,6.84,0,0,0,23.55,107.05Z"/><path d="M52.5,106.59a1.09,1.09,0,0,0,1.09-1.09,1.21,1.21,0,0,0-.49-1,3.4,3.4,0,0,0-1.3-.58,1.12,1.12,0,0,0-.49-.29,2.51,2.51,0,0,0-.66-.1,12.49,12.49,0,0,1-1.55-.87A2.7,2.7,0,0,1,48,101.23a.55.55,0,0,1-.16-.38,2.16,2.16,0,0,0-.41-.39.73.73,0,0,0-.73,0,1,1,0,0,0-.66,1.16,4.28,4.28,0,0,0,1,1.75,9,9,0,0,0,1.23,1.16c.49.39,1,.78,1.55,1.16a5.7,5.7,0,0,0,2.45.88h0Z"/><path d="M12,42.66a.31.31,0,0,0,.24.29.33.33,0,0,0,.41-.1h.33a.43.43,0,0,0,.32-.19A49.16,49.16,0,0,1,25.1,35.39a88.8,88.8,0,0,1,13.14-4.56q2.77-.58,5.39-1.17c1.74-.38,3.49-.7,5.23-.95.43,0,.74-.35.9-1.06A11,11,0,0,0,50,25.22c0-.65,0-1.4-.08-2.23s-.14-1.65-.25-2.43-.21-1.55-.32-2.33-.22-1.42-.32-1.94A20.1,20.1,0,0,0,48.62,14a10.65,10.65,0,0,0-.41-1.36,20.55,20.55,0,0,0-5.55-9.7A11.56,11.56,0,0,0,35,0a14.45,14.45,0,0,0-2.86.29,17.69,17.69,0,0,0-2.85.87,23.64,23.64,0,0,0-6.94,3.69,42.94,42.94,0,0,0-6.13,5.62l-.41.48-.4.48a54.26,54.26,0,0,0-5.72,7.76,28.76,28.76,0,0,0-3.59,8.53c-.11.65-.19,1.26-.25,1.85s-.08,1.13-.08,1.65a13.79,13.79,0,0,0,1.39,6A14.9,14.9,0,0,0,12,42.66Z"/><path d="M61.27,49.83q1.47-.18,2.94-.48a13.33,13.33,0,0,1,2.45-.29h1a.67.67,0,0,0,.82-.19,1.49,1.49,0,0,0,.32-1,1.11,1.11,0,0,0-.4-.78A2,2,0,0,0,67,46.72a2.72,2.72,0,0,0-1.23-.19H62a9.06,9.06,0,0,0-1.72.19,26.19,26.19,0,0,0-4.82.78c-1.47.39-2.09,1-1.88,1.94a1.08,1.08,0,0,0,.58,1.06,3.32,3.32,0,0,0,1.55.29,12,12,0,0,0,2.53-.29c.92-.18,1.88-.34,2.86-.48C61.21,50,61.27,50,61.27,49.83Z"/><path d="M53,62.63c-.22.39-.41.75-.57,1.07a3.62,3.62,0,0,1-.41.68.93.93,0,0,0,0,1.06q.33.48.66.48a.42.42,0,0,0,.32-.19l.33-.39a6,6,0,0,0,.4-.58,4.84,4.84,0,0,0,.41-.78,4.07,4.07,0,0,0,.33-.48,3.08,3.08,0,0,1,.32-.48,5.84,5.84,0,0,0,.41-1.35h0a1.23,1.23,0,0,0-.25-1,.37.37,0,0,0-.65,0,3.16,3.16,0,0,0-.73.68A2.85,2.85,0,0,0,53,62.63Z"/></svg>