<svg id="Layer_1" data-name="Layer 1" xmlns="http://www.w3.org/2000/svg" viewBox="0 0 108.95 178.55"><title>avatar_icons</title><path d="M11.36,68.33a19,19,0,0,1,4.28,3.51,17.55,17.55,0,0,1,3.29,5.47,14.13,14.13,0,0,0,1.32,1.36l1.32,1.18a5.57,5.57,0,0,0,1.32.58,4.47,4.47,0,0,0,1.31.19q1,3.52,1.65,7.23a44.1,44.1,0,0,1,.66,7.61v1.17a4.59,4.59,0,0,1-.16,1.17,10.39,10.39,0,0,1-.09,1.37,9.2,9.2,0,0,0-.08,1.17l-8.39,7.42q.33.78.57,1.47a8.44,8.44,0,0,0,.58,1.26,2.68,2.68,0,0,0,.41.69,2.47,2.47,0,0,1,.41.68,44.22,44.22,0,0,0,.41,5.75A17.07,17.07,0,0,0,22.56,124a13.1,13.1,0,0,0,1,1.36l1,1.17a12.24,12.24,0,0,0,1,1.37,13.1,13.1,0,0,1,1,1.36,4.32,4.32,0,0,1,.74,1.28,7.29,7.29,0,0,0,.58,1.27,4.27,4.27,0,0,0,.33.68c.12.23.23.45.33.69a40.27,40.27,0,0,0,5.76,1.17q3,.39,6.08.58L40,136.45l4.6,1c0,.66,0,1.34.09,2s.08,1.4.08,2.05a17,17,0,0,1,.16,2.25v2q0,2.93-.16,5.85a31.66,31.66,0,0,1-.82,5.66,5.36,5.36,0,0,1-1-.09,5.65,5.65,0,0,1-1-.3,5.52,5.52,0,0,1-1-.09,3.75,3.75,0,0,0-.82-.1c-.66-.13-1.32-.23-2-.3s-1.32-.09-2-.09H34.9a3,3,0,0,0-1.15.19l-1.31.39-1.32.39c.1-1.7.21-3.39.33-5.08s.22-3.45.33-5.27.21-3.42.32-5.18.23-3.48.34-5.18l-3.79-1v1.08a4.33,4.33,0,0,1-.16,1.07c0,.78,0,1.53-.08,2.25s-.08,1.4-.08,2.05q-.16,3.33-.5,6.55A41.58,41.58,0,0,1,26.68,155a8.56,8.56,0,0,1-.49,1.56,17.32,17.32,0,0,0-.66,1.76c-.11.26-.22.55-.33.88s-.22.68-.33,1.07a4.77,4.77,0,0,0-.49,1.37,6.33,6.33,0,0,0-.16,1.37,5.33,5.33,0,0,0,.08.88,3.77,3.77,0,0,0,.25.87c-.33.54-.66,1.1-1,1.69s-.66,1.15-1,1.69a6.34,6.34,0,0,0-.57.79,5.57,5.57,0,0,0-.42.8c-.55.79-1.07,1.62-1.56,2.48s-1,1.68-1.4,2.48a4.08,4.08,0,0,0-.25.89c-.06.33-.14.7-.24,1.09v1.88h3.54l.57-.67a8,8,0,0,0,.66-1,13.57,13.57,0,0,0,1-1.37l1-1.56c.77-1.31,1.43-2.54,2-3.72s.93-1.95,1.15-2.34h.49a7.6,7.6,0,0,0,1.07-.1,5,5,0,0,0,1.07-.3l.25-.29a.28.28,0,0,1,.25-.09,13,13,0,0,0,1.31-.49,3.31,3.31,0,0,1,1.32-.3H34c.05,0,.13.07.24.2h.83a.88.88,0,0,1,.41.58,6.63,6.63,0,0,1,.08,1.18v.87a2.37,2.37,0,0,1-.16.88,4.3,4.3,0,0,1-.16,1.18,3.52,3.52,0,0,0-.16,1,1.62,1.62,0,0,0-.25.39,1.09,1.09,0,0,0-.08.39.46.46,0,0,1-.08.3l-.25.29a1,1,0,0,1-.08.39.91.91,0,0,0-.08.39,1.29,1.29,0,0,0-.25.59,2.65,2.65,0,0,0,.08,1.56,1.16,1.16,0,0,0,.82.59h.16c.1,0,.16.06.16.19v1.27H39.9l-2.18-1.85a4.86,4.86,0,0,0-2.47-1.17l.16-.19a1,1,0,0,1,.08-.39.26.26,0,0,1,.25-.2,1,1,0,0,1,.08-.39,1.06,1.06,0,0,0,.09-.39,6.93,6.93,0,0,0,.82-2.35,19.58,19.58,0,0,0,.16-2.54v-2h1.64V170a8.34,8.34,0,0,0,.16,1.66q.16,1,.33,1.86c.12.59.23,1.14.33,1.66s.22,1.27.33,1.86h0c.11.55.21,1.07.33,1.56h1.48a4,4,0,0,0-.07-.69,3.56,3.56,0,0,1-.08-.8c-.11-1.06-.25-2.09-.41-3.09a16.16,16.16,0,0,0-.75-2.89.92.92,0,0,0-.08-.4,1.06,1.06,0,0,1-.08-.4c-.11-.4-.19-.73-.25-1a4.82,4.82,0,0,1-.08-1,2.62,2.62,0,0,1,.16-1c.11-.27.33-.33.66-.2l.32-8.18a3.86,3.86,0,0,1,.75.1,3.07,3.07,0,0,0,.74.1c.55.13,1.07.22,1.56.29a11.67,11.67,0,0,0,1.56.1,38.6,38.6,0,0,0,1.08-6.58q.24-3.3.24-6.78c0-1.41,0-2.8-.08-4.15s-.14-2.69-.25-4l4.77,1.18v-.39c.12-.4.23-.59.33-.59a2.5,2.5,0,0,1,.66.19h.33v40.16h1.65V138.4a5.5,5.5,0,0,0,2.72-.69c.82-.45,1.62-.94,2.39-1.46a.71.71,0,0,0,.32-.1.31.31,0,0,0,.16-.3c.44-.26.91-.52,1.4-.78s1-.52,1.4-.78h38.35v4.88h-2.3v39.38h1.62V141.12h2.31v-9H70.77a2.47,2.47,0,0,0-.41-.68,2.68,2.68,0,0,1-.41-.69,2.34,2.34,0,0,1-.33-.49,3,3,0,0,0-.33-.49,36,36,0,0,0-2.46-3.32,5.63,5.63,0,0,0-3.3-1.95H63.2a.46.46,0,0,1-.32-.2h-.66a6,6,0,0,0-3.13.78,18.74,18.74,0,0,0-2.47,1.76,1.83,1.83,0,0,0-.49.39,1,1,0,0,0-.5.29,2.63,2.63,0,0,1-.82.49c0,.13-.11.27-.33.39-.55.27-1,.46-1.31.59s-.5,0-.5-.39L51.19,128v-.3c0-.06.05-.1.16-.1v-.37H52.5a4.58,4.58,0,0,0,3.29-1.47A5.7,5.7,0,0,0,57.44,122a6.24,6.24,0,0,1-1.23-1.57,8.69,8.69,0,0,1-.91-2.15v-.58a1.89,1.89,0,0,1,.25-.49l.24-.29a24,24,0,0,0,2.56,1,7.44,7.44,0,0,0,2.39.39,8.53,8.53,0,0,0,2.87-.49,6.48,6.48,0,0,0,2.56-1.66.85.85,0,0,0,.08.39,1.28,1.28,0,0,0,.24.39c.11,0,.22.14.33.39a1,1,0,0,0,.5.3,2.39,2.39,0,0,0,.66.1,7.74,7.74,0,0,0,1.07-.1,6.34,6.34,0,0,1,1.06-.1,11.5,11.5,0,0,1,1.16-.29,5.55,5.55,0,0,0,1-.3l1-.29a1,1,0,0,0,.5-.3c1.86-1.17,3.34-2.14,4.44-2.93h.16L81,111.62a8.43,8.43,0,0,0,1.48-1.18,13.37,13.37,0,0,0,2.8-1.07c.87-.46,1.75-.89,2.63-1.28l.5-.29a1.55,1.55,0,0,0,.33-.3c1.2-.52,2.44-1,3.7-1.56a10.51,10.51,0,0,1,4-.78h1.48a.79.79,0,0,0,.74-.49,2.35,2.35,0,0,0,.25-1.08v-.78a.56.56,0,0,1-.16-.29v-.29c-.11-.26-.22-.56-.33-.88a1.23,1.23,0,0,0-.49-.69h11V81.3H80.15v9.59l-.25.29a.29.29,0,0,1-.25.1c-.32.39-.68.78-1.06,1.17s-.8.78-1.24,1.17a15.13,15.13,0,0,0-3,3.62,10,10,0,0,0-1.23,5.18v.78c-.51.13-1,.22-1.56.3a11,11,0,0,1-1.4.09H69.7a1.18,1.18,0,0,1-.58-.19H67.8a2.56,2.56,0,0,0-.82.1.76.76,0,0,0-.49.48l-.33.79-.33.78a2.55,2.55,0,0,1-.16,1,2.05,2.05,0,0,0-.16.78,1.17,1.17,0,0,0-.41.1,4.48,4.48,0,0,0-.58.29,2.78,2.78,0,0,1-.74.29,2.64,2.64,0,0,1-.74.1,1.17,1.17,0,0,1-.41-.1,1,1,0,0,1-.41-.29h-.16a1.47,1.47,0,0,0-.66-.49,3.18,3.18,0,0,0-.82-.1.74.74,0,0,0-.57.3,2.5,2.5,0,0,0-.42.68l-.32.39-.33.39a1.88,1.88,0,0,1-.5.39,1.06,1.06,0,0,1-.49.2,2.34,2.34,0,0,1-.82.19.59.59,0,0,1-.5-.19,13,13,0,0,0-1.31-1.37L54,106.92a6.13,6.13,0,0,0-.66-.69,4.71,4.71,0,0,0-.66-.49,9.11,9.11,0,0,0-1.56-2A15.59,15.59,0,0,0,49.06,102V98.9c.66.13,1.4.27,2.22.39a15.69,15.69,0,0,0,2.56.2h1.32a4.48,4.48,0,0,0,1.31-.2,17.13,17.13,0,0,0,7.25-2.35,7.06,7.06,0,0,0,3.46-6.25V90.1a6.18,6.18,0,0,0-.41-2.44,2,2,0,0,0-.91-1.08h0a.75.75,0,0,0-1.06.1c-.27.33-.25.75.08,1.27a3.32,3.32,0,0,1,.41,1.18,9.77,9.77,0,0,0,.25,1.17,4.85,4.85,0,0,1-.25,1.56,3.8,3.8,0,0,1-.74,1.37,10.58,10.58,0,0,1-4.44,3.32,14.79,14.79,0,0,1-5.76,1.17H53.19a17.35,17.35,0,0,1-5.59-1.36A11.91,11.91,0,0,1,43,93l-.16-.19a.51.51,0,0,0-.41-.2c-.17,0-.36.13-.58.39a.9.9,0,0,0-.24.78,3.14,3.14,0,0,0,.41,1,7.11,7.11,0,0,0,1.07,1,12.52,12.52,0,0,0,1.4,1c.66.46,1.35.89,2.05,1.28s.91.61.91.87a11.15,11.15,0,0,1-.09,1.18c-.05.52-.14,1.1-.24,1.75a4.15,4.15,0,0,1-.08.79,3.39,3.39,0,0,0-.09.78,9.2,9.2,0,0,1-.08,1.17,7.67,7.67,0,0,0-.08,1.17,7.08,7.08,0,0,0,.16,1.66q.16.69.66.69a.79.79,0,0,0,.82-.69,6.53,6.53,0,0,0,.16-1.46v-.39a6.54,6.54,0,0,1,.08-1.08c.06-.32.14-.35.25-.09v.37a7.87,7.87,0,0,1-1.57,5.08A5.82,5.82,0,0,1,43,112a11.29,11.29,0,0,1-7.9-3.23,52.82,52.82,0,0,1-6.25-6.94.51.51,0,0,0-.08-.29l-.25-.29c.11-.92.19-1.8.25-2.64s.08-1.73.08-2.64V94.39a7.54,7.54,0,0,0-.16-1.57,50,50,0,0,0-.74-6.45,56.09,56.09,0,0,0-1.4-5.86q.82-.39,1.56-.69a3.51,3.51,0,0,0,1.4-1.07,11.26,11.26,0,0,0,4,2,17,17,0,0,0,4.37.59h.32A28.45,28.45,0,0,1,38,85.1c-.17,1.24-.36,2.38-.58,3.42a32.79,32.79,0,0,0-.74,3.23,15.41,15.41,0,0,0-.25,2.44,3.69,3.69,0,0,0,.66,2.25,2,2,0,0,0,1.65.88,1.86,1.86,0,0,0,1.48-.88,3.69,3.69,0,0,0,.66-2.25,15.41,15.41,0,0,0-.25-2.44c-.17-1-.36-2-.58-3.23a20.83,20.83,0,0,1-.74-3.42A30.22,30.22,0,0,1,39,81.29,15.8,15.8,0,0,0,51,74.65,23.26,23.26,0,0,0,55.82,60a34.56,34.56,0,0,0-.25-4.2,16.6,16.6,0,0,0-.9-3.82,1.32,1.32,0,0,1,.33-.29,1.81,1.81,0,0,0,.33-.29,5.58,5.58,0,0,1,.82-.79,3.34,3.34,0,0,0,.82-1A12.92,12.92,0,0,0,58.45,48c.44-.6.77-1,1-1.28A25.76,25.76,0,0,1,64,45.22a20.59,20.59,0,0,1,4.36-.49,24.39,24.39,0,0,1,3,.2,22.8,22.8,0,0,1,3,.59.8.8,0,0,0,1-.3,1.85,1.85,0,0,0,.33-1.07,1.44,1.44,0,0,0-.25-.78,1.48,1.48,0,0,0-.74-.59A23.12,23.12,0,0,0,68.49,42H66.85a7,7,0,0,0-1.65.19,13.1,13.1,0,0,1-1.64.29,5.52,5.52,0,0,0-1.65.49,6.08,6.08,0,0,1,.33-.68,2.63,2.63,0,0,1,.33-.49c.22-.39.41-.75.57-1.07a6.15,6.15,0,0,0,.41-1.08,45.17,45.17,0,0,1,4-6.35,9.69,9.69,0,0,1,6.09-3.62,42.26,42.26,0,0,1,1.16,4.11c.32,1.43.6,2.87.82,4.3a2,2,0,0,1-1.07-.39c-.39-.26-.74-.52-1.07-.78-.55-.39-1.05-.75-1.48-1.08s-.88-.22-1.32.3a1.53,1.53,0,0,0-.25.39,1,1,0,0,0-.08.39,2.56,2.56,0,0,0,.91,1.85,5.3,5.3,0,0,0,2.05,1.28c.46.22.93.42,1.4.59a3.31,3.31,0,0,0,1.07.19h.16V42a16.6,16.6,0,0,1-.49,4.21,21.08,21.08,0,0,1-1.32,3.61c-.22.4-.47.81-.74,1.28l-.74,1.28a8.14,8.14,0,0,0-.49,1,2.23,2.23,0,0,1-.33.58l-.33.39-1,.39a1.31,1.31,0,0,0-.66.2v-.2a5.25,5.25,0,0,1,.09-.88,4,4,0,0,1,.24-.88,6.24,6.24,0,0,1,.58-1.56c.27-.52.52-1,.74-1.37a2.08,2.08,0,0,1,.33-.58l.33-.39.33-.39a1,1,0,0,0-.16-1,1,1,0,0,0-.83-.39c-.11.13-.19.19-.24.19s-.14.07-.25.2l-.25.29a.46.46,0,0,0-.08.3,9.17,9.17,0,0,0-1.23,1.95,18.47,18.47,0,0,0-.91,2.15,9.41,9.41,0,0,0-.24,1.08,6.35,6.35,0,0,0-.09,1.07v.78c-1.31.26-2.63.59-4,1s-2.58.78-3.78,1.17a.54.54,0,0,0-.5.3,1.48,1.48,0,0,0,0,1.36.54.54,0,0,0,.5.3c1.2.26,2.38.55,3.54.88s2.27.62,3.37.88c.44.13.71.09.82-.1a1.36,1.36,0,0,0,.16-.68v-.49a.72.72,0,0,0-.16-.49,1.68,1.68,0,0,0-.08-.59,1,1,0,0,1-.08-.39,1.27,1.27,0,0,1-.25-.49,1.62,1.62,0,0,1-.08-.49c1.75-.52,3.54-1,5.35-1.46s3.59-.88,5.35-1.27a2.05,2.05,0,0,0,.49-.39.88.88,0,0,0,.16-.59,1.2,1.2,0,0,0-.33-.78.67.67,0,0,0-.82-.2,8.52,8.52,0,0,1-1.4.3,5.12,5.12,0,0,0-1.57.49c.33-.65.64-1.3.91-2a11.73,11.73,0,0,1,.91-1.76,35.1,35.1,0,0,0,1.06-3.9,20.26,20.26,0,0,0,.42-4.11V40.07a5.85,5.85,0,0,0,2-2.63A9.14,9.14,0,0,0,80.83,34a9,9,0,0,0-1-4.1A4.71,4.71,0,0,0,77,27.37a1.42,1.42,0,0,1,.58.1,1.41,1.41,0,0,0,.58.09,8.78,8.78,0,0,1,2.14,1.08,2.54,2.54,0,0,1,1,2.25v.39a1.82,1.82,0,0,0,.33,1.17,1.06,1.06,0,0,0,.83.39,1.19,1.19,0,0,0,.82-.3,1.42,1.42,0,0,0,.33-1.07v-.39a5.06,5.06,0,0,0-2-4.89A12,12,0,0,0,77,24.43H74.58A35.06,35.06,0,0,0,61.41,7,36.39,36.39,0,0,0,39.69.19H39a.59.59,0,0,1-.5-.19H37.22Q21.58,0,10.79,13.77A50.49,50.49,0,0,0,0,45.87V48A23.33,23.33,0,0,0,3.14,60,22.2,22.2,0,0,0,11.36,68.33ZM25.94,168.48c-.17.26-.36.59-.58,1a.64.64,0,0,1-.16.39L24.54,171l-.66,1.17a7.56,7.56,0,0,1-.82,1.47,8.15,8.15,0,0,1-1.15,1.27,1.53,1.53,0,0,1-.41.59,3,3,0,0,0-.41.39,4.33,4.33,0,0,1,.16-2,11.53,11.53,0,0,1,1-2.25,6,6,0,0,0,.66-1,6.38,6.38,0,0,1,.66-1,12.51,12.51,0,0,1,1.07-1.76c.39-.52.69-.91.91-1.17v-.21a2.71,2.71,0,0,1,.66.69,1.45,1.45,0,0,1,.16.68A4.78,4.78,0,0,0,25.94,168.48ZM52.36,131H53a3.56,3.56,0,0,0,1.72-.39,6.52,6.52,0,0,0,1.4-1,4.21,4.21,0,0,0,.58-.39,2.16,2.16,0,0,0,.41-.39,16.47,16.47,0,0,1,2.63-1.75,5,5,0,0,1,2.31-.59,4.88,4.88,0,0,1,2.47.68,7.34,7.34,0,0,1,2.13,2.06,7.27,7.27,0,0,0,.74,1.07h0a7.94,7.94,0,0,1,.74,1.08h-.33a.43.43,0,0,1-.33-.2h-.66a9.22,9.22,0,0,0-3.87.79,15.29,15.29,0,0,0-3.21,1.95.58.58,0,0,0-.33.1.63.63,0,0,1-.33.09,16.1,16.1,0,0,1-2.79,1.67,7.51,7.51,0,0,1-3.13.68h-.74a2.4,2.4,0,0,1-.91-.2ZM81.49,83.07h25.84V98.9H81.49ZM74.9,103a15.37,15.37,0,0,1,.08-1.66,5.31,5.31,0,0,1,.42-1.46,7.8,7.8,0,0,1,1.31-2.74,21.39,21.39,0,0,1,3-3.13V95.2a.76.76,0,0,0-.16.49v.48a10.26,10.26,0,0,0,.16,1.66,8,8,0,0,0,.5,1.66v1.17h.49l.25.3a.28.28,0,0,0,.25.09l.24.3.25.29c.44.26.85.52,1.24.78a1.86,1.86,0,0,0,1.06.39,1.12,1.12,0,0,0,.58.2h.58a4.84,4.84,0,0,0,1.64-.29A16.92,16.92,0,0,0,88.4,102a.56.56,0,0,0,.33-.1,1.13,1.13,0,0,0,.33-.29c.43-.13,1-.29,1.56-.49a17.47,17.47,0,0,1,1.89-.49h1.15a5.25,5.25,0,0,1,2.31.49h0a2.08,2.08,0,0,1,1.15,1.67,13,13,0,0,0-4.86.88q-2.22.87-4.19,1.85c-.33.14-.64.26-.91.4s-.52.26-.74.39l-2.8,1.46a5.64,5.64,0,0,1-2.63.69,3.37,3.37,0,0,1-1.56-.39,5.58,5.58,0,0,1-1.57-1.37c-.11-.13-.19-.2-.25-.2s-.08-.06-.08-.19c-.44-.26-.77-.07-1,.58a2.23,2.23,0,0,0,.66,2.15c.22.13.47.3.74.49s.63.43,1.07.69l-.49.39H77.2a3.47,3.47,0,0,1-1.56-.88,1.75,1.75,0,0,1-.58-1.66v-2.94a3.85,3.85,0,0,1-.16-1.07Zm-8.06,8a11,11,0,0,1,.08-1.28c.06-.45.14-.94.25-1.46a4.33,4.33,0,0,1,.25-1.47c.16-.45.3-.88.41-1.27h1.48a18.43,18.43,0,0,0,2-.1,19.29,19.29,0,0,0,2-.29V106a18.74,18.74,0,0,0,.33,3.81h0a4.37,4.37,0,0,0,2.62,2.86.89.89,0,0,0-.49.29c-.23.2-.5.43-.83.68h-.16c-.44.27-.79.49-1.07.69s-.41.23-.41.1c-.66.26-1.31.48-2,.68s-1.32.36-2,.49a2.05,2.05,0,0,0-.65.1,2.5,2.5,0,0,1-.66.09q-.34-.78-.66-1.56a3.83,3.83,0,0,1-.33-1.56,2,2,0,0,1-.16-.79ZM78,31.37a5.23,5.23,0,0,1,.58,2.45,6.24,6.24,0,0,1-.25,1.66h0a6.35,6.35,0,0,1-.58,1.46,7.58,7.58,0,0,1-.24-1.17,9.37,9.37,0,0,0-.25-1.17c-.22-.78-.42-1.6-.58-2.44a17.24,17.24,0,0,0-.57-2.25A3.05,3.05,0,0,1,78,31.37ZM39.51,47.12a1.2,1.2,0,0,1,1-.39A10.8,10.8,0,0,1,48.23,52,18.1,18.1,0,0,1,51,61.77a19.29,19.29,0,0,1-.16,2.64h0a17.33,17.33,0,0,1-.51,2.46,1.52,1.52,0,0,1-.41.78.84.84,0,0,1-.57.19,1.1,1.1,0,0,1-1-.48,2,2,0,0,1-.16-1.47c.1-.35.18-.71.25-1.08a5.12,5.12,0,0,0,.08-.87,2.41,2.41,0,0,0,.16-.88V62a15.15,15.15,0,0,0-2.22-8.11,9.13,9.13,0,0,0-6.18-4.4,1,1,0,0,1-.82-.48,1.67,1.67,0,0,1-.33-.88A1.49,1.49,0,0,1,39.51,47.12ZM35.9,63.72a13.73,13.73,0,0,1,.74-4.49A7.76,7.76,0,0,1,39,55.71a.42.42,0,0,1,.33-.19h.32a.77.77,0,0,1,1,.39,1.46,1.46,0,0,1,.16,1.17,1.62,1.62,0,0,1-.08.49h0a.87.87,0,0,1-.41.49A4.34,4.34,0,0,0,38.7,60.4a10.39,10.39,0,0,0-.49,3.13,15.48,15.48,0,0,0,.16,2.25,6.83,6.83,0,0,0,.66,2,1.45,1.45,0,0,1,.16,1.46,1.06,1.06,0,0,1-1,.69,1.17,1.17,0,0,1-.41-.1,1.53,1.53,0,0,1-.58-.49,12.53,12.53,0,0,1-.82-2,7.14,7.14,0,0,1-.33-2,2,2,0,0,1-.16-.78Zm14,45.26a14.25,14.25,0,0,0,.66-3A12.29,12.29,0,0,1,53,109.86h0a13.64,13.64,0,0,1,.82,4.9h-.33a8.14,8.14,0,0,0-2.47-2,15.81,15.81,0,0,0-2.63-1.08A8.09,8.09,0,0,0,49.89,109Zm.82,21-1,6.64-7.57-1.56,1.65-8.6ZM26.84,102.81a.63.63,0,0,0,.5.2,3.49,3.49,0,0,1,.33.49A3,3,0,0,0,28,104a44.16,44.16,0,0,0,6.41,6.84A11.84,11.84,0,0,0,42.32,114h.74a2.45,2.45,0,0,0,.88-.2l-5.59,7.43q-.49-.2-.9-.39c-.28-.13-.58-.26-.91-.39a3.27,3.27,0,0,1-1.07-.2c-.39-.13-.74-.26-1.07-.39-1-.65-1.94-1.23-2.87-1.75a25.79,25.79,0,0,1-2.72-1.76c-1-.52-1.95-1.08-2.88-1.66s-1.88-1.14-2.87-1.66a10.08,10.08,0,0,1-3.13-4.5l6.42-5.67ZM22.39,59.62a20.57,20.57,0,0,1,2.06-8.21,15.64,15.64,0,0,1,5.35-6.25.5.5,0,0,1,.33-.2h.33a1,1,0,0,1,.82.39,1.22,1.22,0,0,1,.33.79,1.36,1.36,0,0,1-.16.68,4.69,4.69,0,0,1-.49.68,11.94,11.94,0,0,0-4.69,5.67,19.57,19.57,0,0,0-1.57,7.62v1a17.74,17.74,0,0,0,2.06,7.53h0a12,12,0,0,0,5.51,5.38,1.3,1.3,0,0,1,.66.49A1.61,1.61,0,0,1,32.6,77a1.21,1.21,0,0,1-1.16.19,13.85,13.85,0,0,1-6.82-6.74,21.91,21.91,0,0,1-2.23-9.68Z"/><path d="M70.62,71.16a.93.93,0,0,0,.58-.2h0a.69.69,0,0,0,.25-.57,1.08,1.08,0,0,0-.25-.69.73.73,0,0,0-.58-.29h-.33l-.32.39a.83.83,0,0,0-.16.59c0,.26,0,.42.16.48a1.3,1.3,0,0,1,.32.3Z"/><path d="M73.42,72.73a1.65,1.65,0,0,0,.58-.1,1.17,1.17,0,0,1,.41-.1h.33a3.06,3.06,0,0,0,1.81-1.28,4.78,4.78,0,0,0,1-2.24v-.59a1.42,1.42,0,0,0-.09-1.07h0a2.68,2.68,0,0,0-.75-.89c-.44-.4-.82-.72-1.15-1a5,5,0,0,1-.82-.78,5.71,5.71,0,0,1-1-1.66A9.81,9.81,0,0,1,73.26,61c-.11-.52-.22-1-.33-1.46s-.22-1-.33-1.66a2.29,2.29,0,0,0-.33-.59.62.62,0,0,0-.49-.2.91.91,0,0,0-.66.39,1,1,0,0,0-.16,1,4.86,4.86,0,0,1,.25,1,3.8,3.8,0,0,0,.24,1v.39c.11.65.22,1.27.33,1.85a8.19,8.19,0,0,0,.49,1.67A7.27,7.27,0,0,0,73,65.37l.91,1.08a10.55,10.55,0,0,1,1.48,1.27A1.35,1.35,0,0,1,75.89,69a2.25,2.25,0,0,1-1.06,1.17,6.34,6.34,0,0,1-1.57.59H73.1A7.38,7.38,0,0,0,71,71.84a2.87,2.87,0,0,0-.9,2.44v1c0,.26,0,.39-.08.39a1.35,1.35,0,0,1-.42-.2,1.27,1.27,0,0,0-.66-.19h-.65a4.27,4.27,0,0,0-1.07.1,2.42,2.42,0,0,0-.91.48l-.66.79-.82,1a4.74,4.74,0,0,1-.91.88,1.35,1.35,0,0,1-.74.3.79.79,0,0,1-.82-.1c-.33-.2-.77-.49-1.32-.88-.11-.13-.19-.2-.24-.2h-.25A.71.71,0,0,0,60,78a1.49,1.49,0,0,0-.24.79v.39a5.06,5.06,0,0,0,.49.88,9.05,9.05,0,0,0,.66.87A9.94,9.94,0,0,0,62.4,82.7a5.52,5.52,0,0,0,1.81,1.17,6.35,6.35,0,0,0,1.07-.09,2.11,2.11,0,0,0,1.48-1.47,4.13,4.13,0,0,0,.08-.78.59.59,0,0,0,.16-.39v-.39a3.28,3.28,0,0,1,.16-1.17c.11-.27.44-.2,1,.19a.64.64,0,0,1,.33.1.75.75,0,0,0,.33.1.44.44,0,0,0,.33.19h.33a2.52,2.52,0,0,0,2-.88A3.33,3.33,0,0,0,72.27,77a3.46,3.46,0,0,0-.09-.78,5,5,0,0,0-.24-.78v-.39c-.11,0-.16-.07-.16-.2a1.71,1.71,0,0,1,.49-1.27A5.75,5.75,0,0,1,73.42,72.73Z"/></svg>