<svg id="Layer_1" data-name="Layer 1" xmlns="http://www.w3.org/2000/svg" viewBox="0 0 121.26 143.54"><title>avatar_icons</title><path d="M65.16,14.44a.24.24,0,0,1,.2.07.22.22,0,0,0,.2.08h.26a.64.64,0,0,0,.8-.23,1.5,1.5,0,0,0,.26-.86,2.17,2.17,0,0,0-.13-.71.89.89,0,0,0-.52-.55,21.73,21.73,0,0,0-4.16-2.19,11.84,11.84,0,0,0-4.28-.78A13.26,13.26,0,0,0,54,9.82a12.9,12.9,0,0,0-3.76,1.8,1,1,0,0,0-.4.47,1.64,1.64,0,0,0-.13.62V13a2,2,0,0,0,.4.79.79.79,0,0,0,.65.31h.27a.34.34,0,0,0,.26-.15,14.49,14.49,0,0,1,3-1.49,8.63,8.63,0,0,1,3-.55l-.26.32a.71.71,0,0,0-.14.47v.32a2.62,2.62,0,0,0,.53.93.82.82,0,0,0,.92.32h.86a.42.42,0,0,1,.33.16,3.75,3.75,0,0,1,2,1,24.49,24.49,0,0,1,1.85,2c.61.73,1.23,1.41,1.84,2a2.53,2.53,0,0,0,1.59.94H67s.1-.06.19-.16v0a.33.33,0,0,1,.25-.16,1.32,1.32,0,0,0,.13-1.49,8.33,8.33,0,0,0-1.19-1.81,6.45,6.45,0,0,0-.86-1.09,4.67,4.67,0,0,0-1-.78,12.58,12.58,0,0,0-1.58-1.34c-.53-.36-.92-.65-1.19-.86a18.85,18.85,0,0,1,1.78.71A7.57,7.57,0,0,1,65.16,14.44Z"/><path d="M23.89,42a.5.5,0,0,0-.26-.08.9.9,0,0,0-1,.39,1.31,1.31,0,0,0-.33,1.18.82.82,0,0,0,.13.39,2,2,0,0,0,.26.39c.62.62,1.15,1.2,1.59,1.72a17.87,17.87,0,0,1,1.18,1.57,9.82,9.82,0,0,1,1.59,3.92,43.12,43.12,0,0,1,.53,5.79q.26,7.84,2.77,11.44a7.34,7.34,0,0,0,6.2,3.6,9.47,9.47,0,0,0,3.16-.55A15.16,15.16,0,0,0,43,70.07a27.13,27.13,0,0,0,3.17-2.59A31,31,0,0,0,49.35,64a19.5,19.5,0,0,0,2.84-5.56q1-3.06,1.78-6.35l.27-.94a3.74,3.74,0,0,0,.13-.94,1.2,1.2,0,0,0,.2-.39,2.51,2.51,0,0,0,.06-.55h.93a.48.48,0,0,0,.39.16h1.58a1.89,1.89,0,0,0,.53-.08,1.89,1.89,0,0,1,.53-.08,1.6,1.6,0,0,0,.8-.47h0a1.17,1.17,0,0,0,.26-.78,1.87,1.87,0,0,0-.33-1.1.85.85,0,0,0-1-.32h-.79a.42.42,0,0,1-.33.16h-.46a7.1,7.1,0,0,1-5.21-1.88A10.65,10.65,0,0,1,49,38.73a1.62,1.62,0,0,0-.39-.86,2.21,2.21,0,0,0-.66-.39,1,1,0,0,0-.73.32,1.28,1.28,0,0,0-.33.94v.47A18,18,0,0,0,47.77,43a9.82,9.82,0,0,0,1.71,3.06c-1.67.42-3.43.78-5.27,1.1a34.71,34.71,0,0,1-5.67.47,23.75,23.75,0,0,1-7.66-1.26,17.56,17.56,0,0,1-6.72-4.23A1.18,1.18,0,0,0,23.89,42Z"/><path d="M96.57,44.55v-5q-1.71-.63-2.31-.78c-.39-.1-.59.1-.59.62,0,.32,0,.71.07,1.18s.11,1.12.2,2c-1-.84-1.89-1.62-2.77-2.35s-1.76-1.41-2.64-2a22.35,22.35,0,0,0-4.69-3,13,13,0,0,0-5.73-1.18,1.3,1.3,0,0,0-1.06.47,2.4,2.4,0,0,0-.53,1.1,1.61,1.61,0,0,0,.4,1.09A1.27,1.27,0,0,0,78,37a13.36,13.36,0,0,1,6.93,2.2q3.1,2,6,4.38c0,.12.09.22.27.32,2.11,1.68,4.26,3.24,6.46,4.7a13,13,0,0,0,7.39,2.2h1.31l-.26-3.13h-.92a12.11,12.11,0,0,1-4.42-.86A20,20,0,0,1,96.57,44.55Z"/><path d="M47.44,23.45c-.66-.05-1.3-.08-1.92-.08a1,1,0,0,0-.85.39,1.3,1.3,0,0,0-.33.86v.32a1,1,0,0,0,.33.78,1.14,1.14,0,0,0,.85.32c.62,0,1.28,0,2,.08s1.41.13,2.11.24a12.06,12.06,0,0,1,4,1A9.26,9.26,0,0,1,57,30a4.73,4.73,0,0,1,.46.32.6.6,0,0,0,.33.16,1.2,1.2,0,0,0,.92-.47,1.25,1.25,0,0,0,.27-1.1.9.9,0,0,0-.13-.39h0a2.7,2.7,0,0,0-.25-.4,10.61,10.61,0,0,0-4.29-3.14,28.25,28.25,0,0,0-5-1.41C48.74,23.52,48.11,23.5,47.44,23.45Z"/><path d="M29.56,40.78h.52a8.48,8.48,0,0,0,2,1.8,3.57,3.57,0,0,0,1.85.55h.8a18.32,18.32,0,0,0,2-.86c.75-.37,1.56-.81,2.44-1.34a6.54,6.54,0,0,1,.6-.32h0c.22-.1.46-.21.72-.31.52-.21.81-.44.85-.7a1.24,1.24,0,0,0-.2-.86,2.29,2.29,0,0,0-.52-.71,3.86,3.86,0,0,0-.66-.55,6.29,6.29,0,0,0-.93-.7,1.55,1.55,0,0,0-.52-.24.5.5,0,0,1-.27-.07.5.5,0,0,0-.26-.08h-.53a5.59,5.59,0,0,0-1.58.23A15.34,15.34,0,0,1,34.3,37a1,1,0,0,0-.39.16c-.62.21-1.23.39-1.85.55a7.05,7.05,0,0,1-1.71.24,3.18,3.18,0,0,1-2.05-.71,4.9,4.9,0,0,1-1.38-2.43,1.5,1.5,0,0,0-.4-.7,1,1,0,0,0-.66-.24,1.15,1.15,0,0,0-.92.55,1.38,1.38,0,0,0-.13,1.33,7.3,7.3,0,0,0,2.11,4A4.34,4.34,0,0,0,29.56,40.78Z"/><path d="M13.47,46.84a23.88,23.88,0,0,0,1.26,4.78q.86,2.28,1.91,4.47a.71.71,0,0,0,.07.32,1,1,0,0,0,.2.32c.26.63.54,1.26.85,1.88s.6,1.26.86,1.88a22.44,22.44,0,0,1,1.58,6c.27,2.09.44,4.23.53,6.42v1.25a67.68,67.68,0,0,0,1.45,11.44q1.18,5.49,7.39,8.93a5.67,5.67,0,0,0,1.32.55,12.45,12.45,0,0,0,1.71.39,4.79,4.79,0,0,0,.73.24,5.5,5.5,0,0,1,.72.23c.53.11,1,.22,1.39.32a1,1,0,0,1,.72.47A13.08,13.08,0,0,0,35.7,98a5.5,5.5,0,0,0-.2,1.34c-.08.52-.15,1-.19,1.4a13.37,13.37,0,0,0-.07,1.42,17.87,17.87,0,0,0,.13,2.19c.09.73.22,1.51.4,2.35l-5,2.82-6.2-.63a1.12,1.12,0,0,0-.59-.39,6.18,6.18,0,0,1-.73-.23.27.27,0,0,0-.08-.07.47.47,0,0,0-.64.14,1.33,1.33,0,0,0-.33.87v.47a14.06,14.06,0,0,1,.59,2.11,10.8,10.8,0,0,1,.2,2.12,7.41,7.41,0,0,1-.33,2.19,5.13,5.13,0,0,1-1.25,2,1,1,0,0,0-.2.32,1.25,1.25,0,0,0-.07.47,1,1,0,0,0,.13.39,2.7,2.7,0,0,0,.27.39,6.38,6.38,0,0,0,1.71,1.09,3.6,3.6,0,0,0,1.32.32,10.17,10.17,0,0,0,1.32.24,11.69,11.69,0,0,0,1.32.08,14,14,0,0,0,2-.16c.73-.12,1.45-.28,2.17-.47,1.85-1.67,3.58-3.37,5.21-5.1a39.12,39.12,0,0,0,4.29-5.4A46.68,46.68,0,0,0,44.08,117a42.28,42.28,0,0,0,4.35,6.19A24.25,24.25,0,0,0,47,128.11a31.37,31.37,0,0,0-.53,5.88c0,.84,0,1.7.13,2.58s.18,1.86.27,2.9l-5.41-4.54c-.09.42-.2.83-.33,1.25s-.24.83-.33,1.26a6.74,6.74,0,0,0-.2,1.09c0,.42-.07.84-.07,1.26a13.22,13.22,0,0,0,.14,1.88c.08.57.2,1.2.36,1.87h16.8a16.71,16.71,0,0,1-2.07-5.13,30.08,30.08,0,0,1-.73-6.75c0-.73,0-1.49.07-2.27s.11-1.6.2-2.43a20.06,20.06,0,0,0,3,.71,21.83,21.83,0,0,0,3.23.23,31.88,31.88,0,0,0,6.46-.71v0a49.24,49.24,0,0,0,7.25-2.09c.08.53.15,1.07.2,1.64s.06,1.13.06,1.65,0,1-.06,1.49-.12,1-.2,1.49a6.15,6.15,0,0,1-.2,1.41c-.13.52-.29,1-.46,1.56l-2.33,9.22H89.34l.26-7.23-8.18,3.29a52,52,0,0,0,2.11-8.85,63.35,63.35,0,0,0,.66-9.33V118.6L97,118v-9.25l-9.37.32-1.71-7.52c.53,0,1.06,0,1.58-.07a14.73,14.73,0,0,0,1.58-.24,23.31,23.31,0,0,0,7.26-2.11A21,21,0,0,0,102,95.27a3.26,3.26,0,0,0,.86-1.33,5.46,5.46,0,0,0,.33-2,1.73,1.73,0,0,0,.46-.39l.33-.39a4.9,4.9,0,0,0,.73-.71l.59-.7c.44-.42.9-.84,1.39-1.25a6.41,6.41,0,0,1,2-1.1A4.13,4.13,0,0,0,110.84,86a13.24,13.24,0,0,0,1.58-2.35l.27-.32a.48.48,0,0,0,.13-.32,2,2,0,0,0,.26-.39,2.7,2.7,0,0,1,.27-.39c.44-.11,1-.22,1.58-.32a19,19,0,0,0,2-.47,10.81,10.81,0,0,0,3-1.41,3.05,3.05,0,0,0,1.38-2.67,3.38,3.38,0,0,0-.13-.94,10.07,10.07,0,0,0-.39-1.09.64.64,0,0,0-.47-.39,4.1,4.1,0,0,0-1-.08,4.89,4.89,0,0,0-.85.08,5,5,0,0,1-.86.07h-.66a11.94,11.94,0,0,1-1.19.24,7,7,0,0,1-.92.08,1.92,1.92,0,0,1,.33-.55l.33-.39c.88-1.15,1.69-2.33,2.44-3.53a17.54,17.54,0,0,0,1.78-3.83,1.14,1.14,0,0,0-.2-1,6,6,0,0,0-.72-.71l-.2-.23a.3.3,0,0,0-.2-.08,4.24,4.24,0,0,0-.73-1.8,1.33,1.33,0,0,0-1-.55,2.19,2.19,0,0,0-1.39.63,13.91,13.91,0,0,0-1.51,1.56.4.4,0,0,0-.27.16.5.5,0,0,0-.13.32l-.8.94a5.9,5.9,0,0,1-.79.79,10,10,0,0,1,.59-1.18c.22-.36.46-.75.73-1.17.45-.76.87-1.55,1.25-2.35a5.75,5.75,0,0,0,.59-2.51v-.55a1.34,1.34,0,0,0-.13-.55,1,1,0,0,0-.13-.54,3.94,3.94,0,0,1-.26-.55,2,2,0,0,0-.6-.86,1.18,1.18,0,0,0-.72-.24,2.21,2.21,0,0,0-1.39.63,9.51,9.51,0,0,0-1.51,1.72c-.44.63-.88,1.3-1.32,2a23.58,23.58,0,0,0-1.19,2.19c-.71,1.46-1.35,2.82-1.92,4.07s-.94,2-1.11,2.35a33.49,33.49,0,0,0-.53-4.23c-.27-1.35-.57-2.71-.93-4.07-.08-.21-.39-.39-.92-.55a6.75,6.75,0,0,0-1.85-.23,6.85,6.85,0,0,0-2.37.39c-.71.26-1,.7-.8,1.33a28.09,28.09,0,0,1,1.25,4.07A18.85,18.85,0,0,1,99,70.51a20.48,20.48,0,0,1-.27,3.22,14.37,14.37,0,0,1-.92,3.21,1.09,1.09,0,0,0,.13.86A12.14,12.14,0,0,0,98.56,79l.33.4.33.39c.27.31.54.6.8.86a2.4,2.4,0,0,1,.53.7,4.78,4.78,0,0,0-1.79,1.18,6.7,6.7,0,0,0-1.38,2.11.91.91,0,0,0-.46-.23.79.79,0,0,0-.6.08h-.26a.35.35,0,0,0-.26.16,7,7,0,0,1-.8.54,5.43,5.43,0,0,1-.8.4,30.27,30.27,0,0,1-6,2.9,17,17,0,0,1-5.47,1,8.69,8.69,0,0,1-4.49-1.09,5.53,5.53,0,0,1-2.5-3.45,7.42,7.42,0,0,0,3-2.12,9.77,9.77,0,0,0,2-4.47,11.33,11.33,0,0,1,2-4.62q1.45-1.95,3-3.83l.33-.39a1.77,1.77,0,0,1,.46-.4l.26-.32.27-.31a46.9,46.9,0,0,0,6.07-7.13c1.84-2.67,2.86-6.66,3-12L93.55,48a22.53,22.53,0,0,1-2.31,10.26,37.16,37.16,0,0,1-4.82,7,6.76,6.76,0,0,1-.52.55,4.59,4.59,0,0,0-.53.55A48,48,0,0,0,81.15,71a16.32,16.32,0,0,0-2.91,6.43,5.47,5.47,0,0,1-3.49,4.38A25.61,25.61,0,0,1,68.88,83h-.66q-1.73.15-3.3.39a8.67,8.67,0,0,0-2.77.86,14.24,14.24,0,0,0-4.22,3,43.81,43.81,0,0,0-3.43,3.91,8.21,8.21,0,0,0-.73,1,7.22,7.22,0,0,1-.72,1,8.21,8.21,0,0,0-.73,1,7.22,7.22,0,0,1-.72,1A17.62,17.62,0,0,1,49,98.08a4.58,4.58,0,0,1-3,1.09,6.58,6.58,0,0,1-2.9-.78,15.46,15.46,0,0,1-3.56-2.66,19.55,19.55,0,0,0,2.84-1.18A21.82,21.82,0,0,0,45,92.91c.44-.31.9-.65,1.39-1a17.18,17.18,0,0,0,1.38-1.18,1.59,1.59,0,0,0,.53-.62,1.51,1.51,0,0,0,.13-.63,1.9,1.9,0,0,0-.33-1.1,1.15,1.15,0,0,0-1-.47h-.39a.5.5,0,0,0-.27.08,1,1,0,0,0-.26.24,42.55,42.55,0,0,1-5,3.52A10,10,0,0,1,36,93.22a8.61,8.61,0,0,1-2.57-.39,14.73,14.73,0,0,1-2.7-1.18,11.55,11.55,0,0,1-6.21-8.14,75.26,75.26,0,0,1-1.31-11.28q-.27-3.45-.6-6.9a21.53,21.53,0,0,0-1.51-6.27l-.8-1.56c-.27-.52-.54-1.1-.8-1.72-.71-1.47-1.39-3-2.05-4.55a20.82,20.82,0,0,1-1.38-5C16,45.59,16,45,15.9,44.34s-.07-1.26-.07-1.88a21,21,0,0,1,4-12.93,12.7,12.7,0,0,1,10.75-5.4h1.05a2.09,2.09,0,0,0,.86-.16c.22-.11.37-.52.46-1.26a1.59,1.59,0,0,0-.66-1.49,3.39,3.39,0,0,0-1.71-.39H30a3.55,3.55,0,0,0-.73.08,4.68,4.68,0,0,0-.72.24,1.25,1.25,0,0,0-.47.07.73.73,0,0,1-.33.08c.88-1.56,1.79-3.05,2.71-4.46a29.81,29.81,0,0,1,3-3.84,4.38,4.38,0,0,1,.66.55,8.88,8.88,0,0,0,.79.71,2.5,2.5,0,0,0,.33.32,2,2,0,0,1,.33.32,3.64,3.64,0,0,0,1.12.7.75.75,0,0,0,1-.39.31.31,0,0,1,.06-.23.36.36,0,0,0,.07-.24c.09,0,.13,0,.13-.08v-.55a.46.46,0,0,0-.13-.31,2,2,0,0,0-.53-.87c-.26-.26-.57-.54-.92-.86a3.85,3.85,0,0,0-.59-.55l-.6-.39c.8-.83,1.39-1.07,1.78-.7a4.06,4.06,0,0,1,1,1.49v.16a7.16,7.16,0,0,0,.8,1.25c.26.31.66.26,1.19-.16a1.16,1.16,0,0,0,.46-1A7.61,7.61,0,0,0,40,10.82a.94.94,0,0,1-.39-.47,2.59,2.59,0,0,0-.4-.63c-.19-.22-.36-.46-.53-.7s-.31-.45-.39-.55a22.38,22.38,0,0,1,7.39-3.84,38.49,38.49,0,0,1,8-1.48h2c.88,0,1.74,0,2.57.07s1.65.13,2.44.24a31.58,31.58,0,0,1,19.59,8.22A45.67,45.67,0,0,1,92.22,31.81a2.5,2.5,0,0,0-.33-.32,2,2,0,0,1-.33-.32,3.43,3.43,0,0,0-.59-.55,1.23,1.23,0,0,0-.72-.23H90a.35.35,0,0,0-.26.16,1.18,1.18,0,0,1-.27.23.9.9,0,0,0-.26.4,1.71,1.71,0,0,0-.33,1.4,1.92,1.92,0,0,0,.59.79,20.22,20.22,0,0,0,4.62,3.21,11.46,11.46,0,0,0,5.14,1.18h1.06a1.82,1.82,0,0,0,.52-.08,2,2,0,0,1,.53-.08,1.32,1.32,0,0,0,.92-.63,3.91,3.91,0,0,0,.4-.94,1.93,1.93,0,0,0-.4-1.17,1.06,1.06,0,0,0-1.18-.39,3.72,3.72,0,0,1-1,.16h-.86a7.28,7.28,0,0,1-1.85-.24,13.09,13.09,0,0,1-1.71-.55Q92.49,19,82.92,10.11A36.46,36.46,0,0,0,60.82.16,14.87,14.87,0,0,0,58.71,0H56.6A45.7,45.7,0,0,0,46.05,1.25a25.69,25.69,0,0,0-9.9,4.86,9,9,0,0,0-2.44-1.65A6.75,6.75,0,0,0,31,3.92,11.7,11.7,0,0,0,29.82,4a3,3,0,0,0-1.19.4,5.26,5.26,0,0,0-1.25.47l-1.25.62a1.51,1.51,0,0,0-.47.47,1.19,1.19,0,0,0-.19.63,1.75,1.75,0,0,0,.26,1,.9.9,0,0,0,.8.39h.26a.37.37,0,0,0,.27-.16,10.19,10.19,0,0,1,2-.94,6.76,6.76,0,0,1,2-.32,5.64,5.64,0,0,1,1.58.23,4.79,4.79,0,0,1,1.58.87l-.79.94a3.63,3.63,0,0,1-.92.78,6.81,6.81,0,0,0-2.44-1,14.79,14.79,0,0,0-2.57-.23A13.2,13.2,0,0,0,22.9,9a28,28,0,0,0-4.42,2.11.89.89,0,0,0-.52.55,2.19,2.19,0,0,0-.14.71,1,1,0,0,0,.14.86.89.89,0,0,0,.79.39h.4a.37.37,0,0,1,.26-.16,16.78,16.78,0,0,1,3.9-2,12.73,12.73,0,0,1,4.15-.7h.86a2.34,2.34,0,0,1,.86.16,2.72,2.72,0,0,1,.85.16l.86.32c-.35.52-.81,1.15-1.38,1.88s-1.17,1.51-1.78,2.35c-.18.31-.38.62-.6.94s-.46.62-.72.94a25.7,25.7,0,0,0-1.59,2.74,14.39,14.39,0,0,0-.92,2.27,16.76,16.76,0,0,0-8,8,26.53,26.53,0,0,0-2.7,11.91v2.19a9.45,9.45,0,0,0,.07,1.18A5.8,5.8,0,0,0,13.47,46.84ZM26,116.13a4.23,4.23,0,0,1-.59,2.43c-.4.58-1.08.6-2.05.08a7.45,7.45,0,0,0,1.12-2.19,7.85,7.85,0,0,0,.33-2.35c0-.42,0-.87-.06-1.34h0a11.85,11.85,0,0,0-.2-1.33,3.4,3.4,0,0,1,.86,1.49,11.88,11.88,0,0,1,.46,2,1.69,1.69,0,0,1,.13.63ZM100.14,84c.53-.83.92-1.51,1.19-2a3.13,3.13,0,0,0,.39-1.4,3.09,3.09,0,0,0-.46-1.57,10.52,10.52,0,0,0-1.52-1.88A11.8,11.8,0,0,0,100.6,74a25.18,25.18,0,0,0,.2-3.13c0-.63,0-1.28-.07-2a12.52,12.52,0,0,0-.33-2.11,16.83,16.83,0,0,0-.39-2.12,17.36,17.36,0,0,0-.66-2,2.79,2.79,0,0,1,2.83,2,15.72,15.72,0,0,1,.86,4.54v1.88a3.38,3.38,0,0,1,.13.94v.79a.88.88,0,0,0,.27.7.81.81,0,0,0,.53.24,1.48,1.48,0,0,0,.46-.08.67.67,0,0,0,.33-.39,24.73,24.73,0,0,0,1.18-2.2L107,69a1.16,1.16,0,0,0,.2-.32.88.88,0,0,0,.07-.32q1.31-2.51,2.63-4.93a42.79,42.79,0,0,1,2.91-4.63v-.15a1.23,1.23,0,0,1,.19.31.74.74,0,0,1,.07.32.48.48,0,0,1,.13.32v.32c-.44.94-.9,1.91-1.38,2.9s-.95,2-1.39,2.9-.9,1.91-1.38,2.9-1,2-1.39,2.9v.32a1.53,1.53,0,0,0,.2.7,1.24,1.24,0,0,0,.46.55h.46s.11,0,.2-.16c1.23-1.36,2.49-2.71,3.76-4.07s2.53-2.72,3.76-4.07l.13.47a6.62,6.62,0,0,1,.13,1.09v.47c0-.1.07-.13.2-.08a7.43,7.43,0,0,1,.73.4,25.41,25.41,0,0,1-1.45,2.66l-1.59,2.5a1.66,1.66,0,0,1-.26.47,1.87,1.87,0,0,0-.26.48,9.59,9.59,0,0,0-1,1.4c-.31.53-.64,1-1,1.57s-.33.89.06,1.1a4,4,0,0,0,1.78.32h1.72a6.61,6.61,0,0,0,1-.08,4.89,4.89,0,0,1,.85-.08c.44-.1.81-.18,1.12-.23v0a5.59,5.59,0,0,1,.59-.08v.16a1.59,1.59,0,0,1-1.12,1.65,11.89,11.89,0,0,1-2.57.55h-.13c-.71.21-1.37.39-2,.55a2.37,2.37,0,0,0-1.32.7c-.27.42-.51.81-.73,1.18a3.12,3.12,0,0,1-.72.86,10,10,0,0,1-2.58,2.66,16.18,16.18,0,0,1-3.49,1.72,5.49,5.49,0,0,1-.8,1.49,5.33,5.33,0,0,1-1.19,1.18c-.43-.32-.81-.6-1.11-.86a3.05,3.05,0,0,1-.73-.87,2,2,0,0,1-.46-1.09c0-.42-.11-1-.2-1.88Zm-1.92,4.1c0-.32.11-.68.2-1.1a4.59,4.59,0,0,0,.73,2.27,8.76,8.76,0,0,0,1.51,1.65.6.6,0,0,1,.27.07v0a1.24,1.24,0,0,1,.26.25,1.52,1.52,0,0,1,.13.55v.57c0,.73-.16,1.14-.46,1.25s-.68,0-1.12-.47a5,5,0,0,1-1.06-1.57,5.67,5.67,0,0,1-.52-2.5A7.3,7.3,0,0,1,98.22,88.11ZM53,98.21l2.31-3a.34.34,0,0,1,.07-.24.27.27,0,0,1,.19-.08,50.16,50.16,0,0,1,3.3-4.38,13,13,0,0,1,4.22-3.29,13.28,13.28,0,0,1,2.38-.71c.79-.15,1.62-.28,2.5-.39H69a3.71,3.71,0,0,0,1-.16h1.59v1.57l-8.31,9.25v-.47H61.47l-.13,8A27.3,27.3,0,0,0,56.07,102a23.78,23.78,0,0,0-5.67-1A17.57,17.57,0,0,0,53,98.21Zm-7.45,12.13,2.9-5.48,3,6.73,3.16-7.82a36.65,36.65,0,0,1,4.09,1.56q2.11.94,4.49,2.2V103.3l9.36-11v2.82a42.8,42.8,0,0,1-.59,5.64,8,8,0,0,1-2.18,4.38l-13.45,13-9.63-4.39a2.72,2.72,0,0,1-1.65-1.41,12.73,12.73,0,0,1-1-2.35,3.3,3.3,0,0,1-.2-.63,2.59,2.59,0,0,1-.06-.63ZM37,102.2a10.79,10.79,0,0,1,.19-2.12c.14-.67.29-1.38.47-2.11a16.9,16.9,0,0,0,2.83,2.51v0A28,28,0,0,0,43,102l-1,.32-1,.32c-.7.21-1.38.44-2,.7a21.08,21.08,0,0,0-1.92.87,2,2,0,0,0-.07-.55,2.06,2.06,0,0,1-.06-.55Z"/><path d="M2.73,109.26A9.09,9.09,0,0,0,6,110.51a13,13,0,0,0,4.22,4.78,9.74,9.74,0,0,0,5.27,1.49,10.7,10.7,0,0,0,2.18-.24c.75-.15,1.51-.33,2.31-.55a.92.92,0,0,0,.52-.39,1,1,0,0,0,.14-.54.92.92,0,0,0-.2-.87.76.76,0,0,0-.86-.23,15.86,15.86,0,0,1-2,.47,12.78,12.78,0,0,1-2.05.16,8.45,8.45,0,0,1-4.61-1.33,11.05,11.05,0,0,1-3.7-4.32,1.66,1.66,0,0,0-.86-.7A8.64,8.64,0,0,0,5,107.85H4.77c-.62-.21-1.19-.42-1.72-.63a1.23,1.23,0,0,1-.8-1.25.77.77,0,0,1,0-.63l.27-.63c.3.2.58.41.86.63s.81.68,1.25,1.1l.53.32.52.32a8.41,8.41,0,0,0,1.78.94,1,1,0,0,0,1.26-.32.56.56,0,0,0,.13-.24v-.23a1.39,1.39,0,0,0-.46-.94,9.22,9.22,0,0,0-1.12-1c-.26-.1-.51-.21-.73-.31a2,2,0,0,1-.59-.47,12.52,12.52,0,0,1-2.11-1.41,2.4,2.4,0,0,1-.92-1.88c0-.53.33-.55,1-.08l2.3,1.64a.85.85,0,0,0,.33.24.86.86,0,0,1,.33.23,15.53,15.53,0,0,0,1.59,1.1,2.7,2.7,0,0,0,1.32.47H10a2,2,0,0,1,.33-.32.43.43,0,0,0,.2-.32c.26-.63,0-1.2-.73-1.73a21.27,21.27,0,0,0-2.7-1.56.76.76,0,0,1-.46-.16.72.72,0,0,0-.46-.16c-.71-.42-1.31-.78-1.78-1.1a1.33,1.33,0,0,1-.73-1.1c0-.42.4-.52,1.19-.31A9.59,9.59,0,0,1,7.4,99.2a1.39,1.39,0,0,1,.46.08.81.81,0,0,1,.34.24c.7.31,1.31.59,1.84.86s.88.44,1.06.54v.32a.41.41,0,0,0-.13.24v.23a2.91,2.91,0,0,0,.52,1.81c.36.47.71.91,1.06,1.33l.33.39.33.39c.23.28.45.56.66.86a1.58,1.58,0,0,1,.26.86c.09.32.2.68.33,1.1a3.37,3.37,0,0,0,.6,1.1c.26.41.54.83.85,1.25a5.11,5.11,0,0,0,.86.94,4.91,4.91,0,0,0,1,.94,1.56,1.56,0,0,0,.86.32.81.81,0,0,0,.52-.24,1.37,1.37,0,0,0,.4-.7.44.44,0,0,0,0-.47,1.66,1.66,0,0,1-.26-.47,4.92,4.92,0,0,0-.66-.63l-.8-.63a5.08,5.08,0,0,1-1.19-1.17A3.41,3.41,0,0,1,16,107a3.38,3.38,0,0,0-.59-1.56c-.31-.42-.6-.78-.86-1.1l-.4-.47a1.52,1.52,0,0,0-.39-.32c-.18-.31-.36-.62-.53-.94a1.85,1.85,0,0,1-.26-.94,2.89,2.89,0,0,1,.13-.78,3,3,0,0,1,.66-1.1c.16.35.33.69.52,1s.54,1,.8,1.49a9.33,9.33,0,0,0,.6.94c.22.31.41.57.59.78a2.61,2.61,0,0,0,.66.78,1.11,1.11,0,0,0,.66.32h.33s.11,0,.2-.16c.35-.31.31-1-.13-2a19.29,19.29,0,0,0-1.85-3.29,1.92,1.92,0,0,0-.33-.55,2.06,2.06,0,0,1-.33-.55c-.62-.94-1.19-1.78-1.71-2.51s-.88-1.24-1.06-1.56a.63.63,0,0,0-.46-.39,3,3,0,0,0-.73-.08H10.17a2,2,0,0,1-.72.16h-.6A3.6,3.6,0,0,1,7.4,94a1,1,0,0,1-.53-1h6.47c1.49,2.09,2.88,4.23,4.15,6.43s2.49,4.44,3.63,6.73a1.37,1.37,0,0,0,.4.55h0c.17.15.44.14.82-.06s.22-1.26-.4-2.82a34.59,34.59,0,0,0-2.51-5,6,6,0,0,1-.72-1.09l-.59-1.1a47.6,47.6,0,0,0-2.71-4q-1.25-1.65-1.65-1.65H11.92a10.43,10.43,0,0,1-1.85-.16H6.24a.86.86,0,0,0-.8.47,2.59,2.59,0,0,0-.27,1.25V93a1.49,1.49,0,0,0,.14.55A4.41,4.41,0,0,0,5.77,95a2.29,2.29,0,0,0,.86.94,4.23,4.23,0,0,0,1,.23,8.88,8.88,0,0,0,1.26.08h.66c.79.11,1.51.24,2.17.39s1,.5,1,1a1.6,1.6,0,0,1-.19.71l-.46.86c-.71-.31-1.39-.63-2-.94s-1.34-.62-2-.94A17.93,17.93,0,0,1,6,96.56c-.66-.32-1.34-.63-2.05-1H3.59c-.26,0-.57.32-.92,1a7.74,7.74,0,0,0-.8,2,5.39,5.39,0,0,0-.53,1.57,8.06,8.06,0,0,0-.13,1.1.46.46,0,0,0,.13.31v.32a3.4,3.4,0,0,1-.2,1.18c-.13.37-.28.76-.46,1.17a10.78,10.78,0,0,0-.59,1.41,1.36,1.36,0,0,0,.06,1.1A8.46,8.46,0,0,0,2.73,109.26Z"/><path d="M57.53,70.56a2,2,0,0,0,.53-.08.61.61,0,0,0,.39-.39,53.29,53.29,0,0,0,5.54-10,31.34,31.34,0,0,0,2.38-11.59v-.16a1.24,1.24,0,0,0-.33-.94,1,1,0,0,0-.73-.32,1.18,1.18,0,0,0-.85.32,1.44,1.44,0,0,0-.33,1.09A28.3,28.3,0,0,1,61.88,59a53.53,53.53,0,0,1-5.14,9.32.54.54,0,0,1-.13.32.45.45,0,0,0-.14.24v.23a1.56,1.56,0,0,0,.33,1A1,1,0,0,0,57.53,70.56Z"/><path d="M66.1,70.72a13.45,13.45,0,0,0,1.45,3.21,3,3,0,0,0,2.11,1.64,2.23,2.23,0,0,0,1.25-.39,4.93,4.93,0,0,0,1.12-1h.53a.35.35,0,0,0,.26.16h.27a9.35,9.35,0,0,0,7.71-4.47,22,22,0,0,0,4-9.64,13.3,13.3,0,0,1,.06-1.41A10.36,10.36,0,0,0,85,57.55a18,18,0,0,0-.2-2.74v0A10.88,10.88,0,0,0,84,52.23a7.91,7.91,0,0,0-2.38-3.92,6.16,6.16,0,0,0-3.16-1.25,8.22,8.22,0,0,0-2.31.39,9.65,9.65,0,0,0-2.44,1.18c-.35.21-.72.44-1.12.7s-.81.55-1.25.87a1,1,0,0,0-.4.39,1.11,1.11,0,0,0-.13.54,1.47,1.47,0,0,0,.4,1.34,1,1,0,0,0,1.32.07,25.22,25.22,0,0,1,2.9-1.88,7.83,7.83,0,0,1,2.77-.93,3.43,3.43,0,0,1,2.18.78,6.69,6.69,0,0,1,1.78,2.82,7.79,7.79,0,0,1,.53,2,16.6,16.6,0,0,1,.13,2.11v.94a3.68,3.68,0,0,1-.13.94,17.37,17.37,0,0,1-3.37,8.54c-1.89,2.56-4,3.83-6.26,3.83a5.31,5.31,0,0,1-1.19-.15A4.54,4.54,0,0,1,70.71,71a7.11,7.11,0,0,1-1.25-.79c-.4-.31-.81-.68-1.25-1.09a3.56,3.56,0,0,1-.14-.63,2,2,0,0,1-.26-.63,1,1,0,0,0-.4-.47,1.06,1.06,0,0,0-.52-.16,1.23,1.23,0,0,0-.86.32,1.31,1.31,0,0,0-.33.94,4.91,4.91,0,0,0,.13,1C65.92,69.91,66,70.3,66.1,70.72Z"/></svg>