<svg id="Layer_1" data-name="Layer 1" xmlns="http://www.w3.org/2000/svg" viewBox="0 0 112.49 168.58"><title>avatar_icons</title><path d="M20.56,5a9.36,9.36,0,0,1,2.54-.73A17.37,17.37,0,0,1,25.49,4a14.69,14.69,0,0,1,10.1,3.76,29,29,0,0,1,7.48,9.61,3.51,3.51,0,0,0,.54.55,3.41,3.41,0,0,1,.39.37,1.15,1.15,0,0,0,1-.64h0a1.44,1.44,0,0,0,.08-1.38A31.67,31.67,0,0,0,36.83,5.59,17.15,17.15,0,0,0,25.65,1.28a10.37,10.37,0,0,0-1.47.1,11.8,11.8,0,0,1-1.46.09l-1.47.36a9.51,9.51,0,0,0-1.46.55,1.67,1.67,0,0,0-.54.55,1.39,1.39,0,0,0-.24.74,1.35,1.35,0,0,0,.47,1.1A1.13,1.13,0,0,0,20.56,5Z"/><path d="M39.68,2.57A40.48,40.48,0,0,1,46.62,8.7a16.58,16.58,0,0,1,4,9.07,1.64,1.64,0,0,0,.46.82,3.43,3.43,0,0,0,.62.46H52a4.07,4.07,0,0,0,.69-.55A1.14,1.14,0,0,0,53,17.4a19.88,19.88,0,0,0-4.4-10.26,40,40,0,0,0-7.79-7,1,1,0,0,0-1.16,0,1.25,1.25,0,0,0-.54,1.1,1.26,1.26,0,0,0,.15.64A4.3,4.3,0,0,0,39.68,2.57Z"/><path d="M8.06,14.29h.31a.44.44,0,0,0,.31-.18,17.71,17.71,0,0,1,5.55-2.93,24.85,24.85,0,0,1,5.86-1.1h1.08A21.11,21.11,0,0,1,29,12.37,17.73,17.73,0,0,1,35.36,18a1.38,1.38,0,0,0,.31.28,1.58,1.58,0,0,1,.31.27A1.08,1.08,0,0,0,37.21,18a1.41,1.41,0,0,0,0-1.55l-.15-.18a20,20,0,0,0-7.56-6.6,20.78,20.78,0,0,0-9.25-2.2H18.4A24.61,24.61,0,0,0,12.61,9a19.66,19.66,0,0,0-5.16,2.93l-.39.46a1,1,0,0,0-.23.64,1.36,1.36,0,0,0,.31.91A1.1,1.1,0,0,0,8.06,14.29Z"/><path d="M49.93,3.57l.23.28a31.59,31.59,0,0,1,4.4,6.23,15.93,15.93,0,0,1,1.78,7.69v.91a1.39,1.39,0,0,0,.38,1.1,1.19,1.19,0,0,0,.85.37,1.23,1.23,0,0,0,.69-.27,1.18,1.18,0,0,0,.39-1v-.55a19.74,19.74,0,0,0-1.93-9.07A39.26,39.26,0,0,0,51.86,2a1.83,1.83,0,0,0-.46-.37A1.09,1.09,0,0,0,50.24,2a1.32,1.32,0,0,0-.39,1.28A.43.43,0,0,0,49.93,3.57Z"/><path d="M111.24,70.78a13.49,13.49,0,0,0-3.24-3.2,2.93,2.93,0,0,0,2.08-1.1,3.52,3.52,0,0,0,.7-2.19v-.55a3.94,3.94,0,0,0-3.7-3.48,15.27,15.27,0,0,0-2.24.19l-2.39.36c-.21,0-.31.07-.31.19l-2.16.36a12.2,12.2,0,0,1-2,.19,4.57,4.57,0,0,0-.92-1.38,6.37,6.37,0,0,0-1.24-1h-.61a1.78,1.78,0,0,0-1.16.46,2.69,2.69,0,0,0-.7,1.74c0,.13-.18.22-.54.28a7.15,7.15,0,0,1-1.31.09H89.65a1.48,1.48,0,0,1-.77-.18H87.34v-6h.77a1.46,1.46,0,0,0,.77-.18c.21-.12.31-.43.31-.92s-.11-.94-.31-1a2.58,2.58,0,0,0-.62-.09h-10a2.1,2.1,0,0,0-.61.09c-.21.07-.31.4-.31,1s.1.8.31.92a1.09,1.09,0,0,0,.61.18h.93v6a1.52,1.52,0,0,1-.16.55,1,1,0,0,0-.07.64,1.11,1.11,0,0,0,.23.46V83a4.41,4.41,0,0,0,1.23,3.48,4.09,4.09,0,0,0,2.78,1.1h.46a3.52,3.52,0,0,0,2.54-1.19A4.65,4.65,0,0,0,87.33,83V64.48c.82,0,1.7,0,2.62.09a14.54,14.54,0,0,1,2.78.46,2.25,2.25,0,0,1-.39.64,2.31,2.31,0,0,0-.38.64,2,2,0,0,0-.54.46,2.61,2.61,0,0,0-.39.64,13.64,13.64,0,0,0-2,3.2A10.8,10.8,0,0,0,88.11,74,3.87,3.87,0,0,0,88,75v1.64a2.19,2.19,0,0,0,.16.83,11.13,11.13,0,0,0,.84,3.3,11.26,11.26,0,0,0,1.78,2.93,32.16,32.16,0,0,1-5.56,5.5,52.57,52.57,0,0,1-6.32,4.21,6.38,6.38,0,0,0-2.55-2.11,7.55,7.55,0,0,0-3-.64,6.06,6.06,0,0,0-3.47,1.1,7.2,7.2,0,0,0-2.55,3.48H64.66c-1,0-1.85,0-2.47-.09a4.4,4.4,0,0,1-1.85-.64A6.84,6.84,0,0,1,59,93.33c-.51-.55-1.17-1.31-2-2.29a35,35,0,0,0,8.87-7.24A40.87,40.87,0,0,0,72.53,74a2.45,2.45,0,0,0,.93.19h1.08a9.48,9.48,0,0,0,2.31-.28A10.44,10.44,0,0,0,79,73.09l-.62-2c-.62.25-1.23.46-1.85.65a6.42,6.42,0,0,1-1.85.27,9.57,9.57,0,0,1-7.56-3.94,14.38,14.38,0,0,1-3.24-9.43q0-6,3.32-9.62a9.86,9.86,0,0,1,7.32-3.57,9.33,9.33,0,0,1,8.33,5.13l1.54-1.1a14.21,14.21,0,0,0-3.63-4.13,12,12,0,0,0-4.55-2.1v-.64a1.72,1.72,0,0,1,.16-.64V39.47a4.38,4.38,0,0,0-.16-1.19A14.63,14.63,0,0,1,77.77,37a10,10,0,0,1,1.54-.92A15.37,15.37,0,0,1,82.47,35a29.1,29.1,0,0,1,3.47-.54.79.79,0,0,0,.7-.37,1.46,1.46,0,0,0,.23-.73.68.68,0,0,0-.16-.74,1,1,0,0,0-.77-.36h-1.7a15.68,15.68,0,0,0-1.93.09q-.84.09-1.77.27a11.89,11.89,0,0,0-2.24.64,11.17,11.17,0,0,0-2.39,1.38,29.92,29.92,0,0,0-4.85-13.28,56.07,56.07,0,0,0-8.72-9.8.44.44,0,0,1-.31-.18.87.87,0,0,0-1,.27,1.34,1.34,0,0,0-.23,1.19c.1,0,.16,0,.16.09a.51.51,0,0,0,.15.28,52.6,52.6,0,0,1,8.17,10.44,30.27,30.27,0,0,1,3.86,13.19A11.92,11.92,0,0,1,68.67,39c-1.55.36-3.14.67-4.78.91-.31,0-.54.22-.7.64A4.3,4.3,0,0,0,63,42v.36a3.78,3.78,0,0,0,.31,2.2c.31.62.72.68,1.23.19a40.38,40.38,0,0,0,4.55-1.38,14.55,14.55,0,0,0,4.24-2.47v1.28a.69.69,0,0,0-.15.46v.64a11.21,11.21,0,0,0-7.4,4.31A16.78,16.78,0,0,0,62,56.42H59a18.37,18.37,0,0,0-1.23-5.86,20.1,20.1,0,0,0-2.78-5,2.78,2.78,0,0,0,1,.28,14.66,14.66,0,0,0,1.62.09H58a6,6,0,0,0,1.47-.18.86.86,0,0,0,.69-.92V39.75A17.19,17.19,0,0,1,60,37.37V34.44a1.32,1.32,0,0,0-.16-.64c-.1-.19-.36-.28-.77-.28s-.69.25-.85.74A6.25,6.25,0,0,0,58,36.09V37c0,.62,0,1.19.07,1.74a9,9,0,0,0,.23,1.38v.18l-.15.18h-.93a1.13,1.13,0,0,1-.54.19h-.54a13,13,0,0,1-6.55-1.74c-2-1.17-4-2.42-5.94-3.76s-3.93-2.59-5.94-3.75a12.78,12.78,0,0,0-6.55-1.74,6.62,6.62,0,0,0-1.54.18l-1.55.37a.59.59,0,0,0-.31.09.53.53,0,0,1-.3.09,8.85,8.85,0,0,1-1.24.27A10.42,10.42,0,0,0,25,31a.88.88,0,0,0-.7.27,1.28,1.28,0,0,0-.23.83,1,1,0,0,0,.23.64A.88.88,0,0,0,25,33c.82-.12,1.65-.21,2.47-.27s1.64-.09,2.46-.09H31.2a12,12,0,0,1,6,2,59.17,59.17,0,0,1,5.4,4l.93.73.92.74.85.64a3.5,3.5,0,0,1,.69.64,10.12,10.12,0,0,0-7.32,3.48,18.52,18.52,0,0,0-4.24,8.06c-3.09.12-6.17.21-9.26.27s-6.22.16-9.41.28h-.15a1.35,1.35,0,0,1-.62-.18l-.62-.37a3.9,3.9,0,0,1-.61-.46,6.25,6.25,0,0,1-.62-.64l-.38-.46a.79.79,0,0,1-.24-.46,54,54,0,0,1-2.39-7.32,29.73,29.73,0,0,1-.85-7,26.33,26.33,0,0,1,1.78-9.53A36.66,36.66,0,0,1,16.39,18l.15-.18a1.31,1.31,0,0,0,.24-.37.89.89,0,0,0,.07-.36h.54a1.13,1.13,0,0,0,.54-.19h.93a16.14,16.14,0,0,1,4.93.74,14.7,14.7,0,0,1,4.32,2.2,1.12,1.12,0,0,0,1.24,0,1.33,1.33,0,0,0,.46-1.1,1.89,1.89,0,0,0-.16-.74,1.17,1.17,0,0,0-.46-.55,14.21,14.21,0,0,0-3.32-1.74,27.55,27.55,0,0,0-3.47-1,12.46,12.46,0,0,0-1.62-.28A17.34,17.34,0,0,0,19,14.29a19.13,19.13,0,0,0-9.87,2.38A35.15,35.15,0,0,0,.35,23.45L0,23.82v.54a1.15,1.15,0,0,0,.39,1.2,1.18,1.18,0,0,0,1.15.27,1.87,1.87,0,0,0,.47-.37A25.64,25.64,0,0,1,7.21,20.7,22.52,22.52,0,0,1,12.69,18,31.46,31.46,0,0,0,8,26.84a29.63,29.63,0,0,0-1.47,9.25,28.51,28.51,0,0,0,.62,7.14,45.6,45.6,0,0,0,2.31,7.51H8.22A8.86,8.86,0,0,0,4.29,52a3.84,3.84,0,0,0-1.93,3.12,4.47,4.47,0,0,0,.38,1.65,20.89,20.89,0,0,0,1,2,4.25,4.25,0,0,0,2,1.65,7,7,0,0,0,2.16.37H9.29v1.83a3.8,3.8,0,0,0-.15,1v3a20.1,20.1,0,0,0,.69,3.93,10.73,10.73,0,0,0,1.78,3.56c.19.23.37.48.54.73a5.51,5.51,0,0,0,.54.73,11.93,11.93,0,0,0,3.93,3.2,10.24,10.24,0,0,0,4.55,1H22.4a4.33,4.33,0,0,0,1.24-.18,17.4,17.4,0,0,0,.54,3.2A5.76,5.76,0,0,0,26,85.51a5,5,0,0,0,.46.46,3.92,3.92,0,0,0,.62.45c.51.37,1,.71,1.47,1a11,11,0,0,0,1.46.82,11.7,11.7,0,0,0,1.31,1c.46.3.95.63,1.47,1l-.31,2.92h-.31a6,6,0,0,0-3.47,1A17.81,17.81,0,0,0,26,96.46L24.1,97.93a4.46,4.46,0,0,1-1.85.91.68.68,0,0,1-.54-.27,4.92,4.92,0,0,1-.54-.83,2.77,2.77,0,0,1-.31-.45c-.11-.21-.22-.42-.31-.64-.21-.49-.43-1-.69-1.46s-.54-.74-.85-.74H18.7a.3.3,0,0,0-.23.1.41.41,0,0,0-.08.27c-.61.85-1.26,1.71-1.93,2.56s-1.31,1.7-1.92,2.56a12.62,12.62,0,0,1-.93,1.28,12.83,12.83,0,0,0-.92,1.27,1,1,0,0,0-.24.83,3.3,3.3,0,0,0,.39,1,1.09,1.09,0,0,0,.15.46,3.58,3.58,0,0,0,.31.45,6.31,6.31,0,0,0,.31.64,2.85,2.85,0,0,0,.31.46A15.23,15.23,0,0,0,12.45,108c-.46.61-.9,1.16-1.31,1.65a19.78,19.78,0,0,1-1.31,1.74l-1.46,1.73a1.1,1.1,0,0,0-.23.37.73.73,0,0,0-.08.36v.37a.55.55,0,0,0,.15.36,25.48,25.48,0,0,0,8.56,8.86q5,3,10.41,5.58a7,7,0,0,1-.07.91A8,8,0,0,0,27,131a2.35,2.35,0,0,0-.15.91V133a3.73,3.73,0,0,0-.16,1v1c1.34,1.09,2.21,1.83,2.62,2.19s.77.67,1.08.92h.16l.61.36a.39.39,0,0,1-.3-.18h-.47c-.2,2.32-.41,4.67-.61,7s-.31,4.73-.31,7.06.1,4.39.31,6.54a63.64,63.64,0,0,0,.92,6.36l1.17,3.27h21a39.19,39.19,0,0,0-1-4.63,11.29,11.29,0,0,1-.69-1.1,6.41,6.41,0,0,0-1.16.1,7.46,7.46,0,0,1-1.16.09,5.58,5.58,0,0,0-1.15.09,7.46,7.46,0,0,1-1.16.09H45.45a1.55,1.55,0,0,1-1-.37,2.25,2.25,0,0,1-.92-1.1,7.55,7.55,0,0,1-.47-1.67,4.87,4.87,0,0,1-.23-.83,5.81,5.81,0,0,1-.07-.83c-.21-1.73-.36-3.48-.47-5.27s-.15-3.61-.15-5.45a21,21,0,0,1-.15-2.5,23,23,0,0,0-.16-2.5l2.08.36,1.93.37c1.34.24,2.7.43,4.09.55s2.7.18,3.93.18q2.16,0,3.39-.09c.83-.06,1.4-.09,1.7-.09a2,2,0,0,0,.93-.18,7.52,7.52,0,0,1,1-.46c.46-.19,1-.4,1.77-.64a3.68,3.68,0,0,0,.39.91,4.62,4.62,0,0,1,.38.73.62.62,0,0,0,.16.37,5.12,5.12,0,0,0,.38,1c.16.3.29.58.39.82a4.11,4.11,0,0,1,.15,1.1v2.22a2.4,2.4,0,0,1-.15.92,9.34,9.34,0,0,1-.15,1.67c-.11.5-.21,1-.31,1.49-.1,1-.23,1.94-.39,2.87a18.54,18.54,0,0,0-.23,2.88V161a3.6,3.6,0,0,0,.08.56,3.47,3.47,0,0,1,.08.55,11.74,11.74,0,0,0,.38,1.66h0c.15.49-.12,4.2.08,4.82h20v-3.26l-.27-.18a.56.56,0,0,0-.15-.37,2.3,2.3,0,0,0-.39-.37,5.14,5.14,0,0,0-.54-.37,2.39,2.39,0,0,0-.92-.18H79.24a7.31,7.31,0,0,0-1.62.18v-7A58.87,58.87,0,0,0,77,151a15.36,15.36,0,0,0-1.85-5.34,14.36,14.36,0,0,0-1.54-2.47,29.13,29.13,0,0,0-2-2.29c-.22-.25-.45-.5-.69-.73a9.61,9.61,0,0,1-.7-.73,4.63,4.63,0,0,1,.54-.28,1,1,0,0,0,.39-.27.32.32,0,0,0,.23-.09.4.4,0,0,0,.08-.28c.2-1.46.36-3,.46-4.48s.16-3.07.16-4.66A51.28,51.28,0,0,0,70.6,117a24.54,24.54,0,0,0-5.48-10.51l1.7.73a14.6,14.6,0,0,0,1.62,3.11,9.52,9.52,0,0,0,5.79,3.83,5,5,0,0,0,.85.28,3.93,3.93,0,0,0,.84.09,7.11,7.11,0,0,0,4.63-1.64,6.26,6.26,0,0,0,2-5.12v-.92A29.92,29.92,0,0,0,92,99.92a106.25,106.25,0,0,0,7.71-9.5H100a3.85,3.85,0,0,0,1.16-.18,3.47,3.47,0,0,0,1.15-.73,13.41,13.41,0,0,0,1.86-1.83c.61-.73,1.23-1.52,1.85-2.38.41-.73.8-1.4,1.15-2l1-1.64a1.78,1.78,0,0,1,.47-.64,2.5,2.5,0,0,1,.77-.46l.23-.27.23-.27a4.74,4.74,0,0,0,.62-.46,6.15,6.15,0,0,0,.61-.64,7.34,7.34,0,0,0,1.08-2.1,6.27,6.27,0,0,0,.31-1.92A6.14,6.14,0,0,0,111.24,70.78Zm-25.75.66H81v-7.7l4.48.37Zm0-9.89H84.33a2.62,2.62,0,0,1-1-.19H81V55.5h4.48ZM35.82,58.06a18.53,18.53,0,0,1,2.78-10,8.75,8.75,0,0,1,7.86-4.49A8.62,8.62,0,0,1,54.25,48,18.2,18.2,0,0,1,57,57.7v1.65a26.54,26.54,0,0,1-1,4.58h0a13.07,13.07,0,0,1-2.09,4,13.22,13.22,0,0,1-3.39,2.93,7.66,7.66,0,0,1-4,1.1h-.85a1.3,1.3,0,0,1-.69-.18,10.8,10.8,0,0,1-3.24-1.28A9.74,9.74,0,0,1,38.9,68a14.87,14.87,0,0,1-2-3.75A15.89,15.89,0,0,1,36,59.9a3.86,3.86,0,0,1-.15-1ZM31.66,85.91a3.43,3.43,0,0,1-.62-.46,3.92,3.92,0,0,0-.62-.45,7.21,7.21,0,0,0-.92-.64l-.77-.46a7.1,7.1,0,0,1-1.54-1.65,6.16,6.16,0,0,1-.77-2.93V79a2.46,2.46,0,0,0-.08-.46,1.78,1.78,0,0,1-.08-.45A3.35,3.35,0,0,0,26,76.75a.86.86,0,0,0-.85-.55h-.46c-.62.13-1.19.22-1.7.28a13.25,13.25,0,0,1-1.54.09,8.76,8.76,0,0,1-2.7-.37,8,8,0,0,1-2.39-1.28,11.52,11.52,0,0,1-1.24-1.28L13.76,72a8.37,8.37,0,0,1-1.46-3.38,18.32,18.32,0,0,1-.39-3.76V64a2.31,2.31,0,0,1,.15-.83V61.55h.33a.4.4,0,0,0,.3.19l.77.45a7.71,7.71,0,0,1,.93.65l.23.27.23.28a4.5,4.5,0,0,0,1.55.73h0a.86.86,0,0,0,1.06-.56.61.61,0,0,0,.15-.37v-.37a2.76,2.76,0,0,0-1.47-2.11A16.84,16.84,0,0,0,12.85,59l-2.55-.64a8.81,8.81,0,0,0-1.77-.27H7.91A10.66,10.66,0,0,1,6.53,58a1.2,1.2,0,0,1-.93-.83c-.21-.36-.39-.7-.54-1s-.29-.58-.39-.83a1.35,1.35,0,0,1,.39-.82,2,2,0,0,1,1-.64c.41-.12.74-.22,1-.28a6.45,6.45,0,0,0,.85-.27h.92a5.21,5.21,0,0,1,2,.36,8,8,0,0,1,1.7.92c.52.36,1,.76,1.55,1.19s1,.89,1.54,1.37a.43.43,0,0,0,.31.19h.3a.71.71,0,0,0,.85-.28,1.52,1.52,0,0,0,.39-1v-.36l16.66-.55a2.8,2.8,0,0,1-.08.64,2.29,2.29,0,0,0-.08.64V57.7a20.21,20.21,0,0,0,3.39,11.36,10.43,10.43,0,0,0,9.1,5.13,10.56,10.56,0,0,0,8.87-4.76A18.71,18.71,0,0,0,59,58.62h2.93A17.49,17.49,0,0,0,64,67.14h0a14.9,14.9,0,0,0,5.7,6A39.87,39.87,0,0,1,59.26,85.73a21.53,21.53,0,0,1-13.41,4.76,13.84,13.84,0,0,1-4.16-.27A37.25,37.25,0,0,1,37.37,89a20.48,20.48,0,0,1-3-1.38A23.88,23.88,0,0,1,31.66,85.91ZM56.18,99.1a22.74,22.74,0,0,0,1,2.39h0c.36.74.75,1.59,1.17,2.57a9.19,9.19,0,0,1,.46,1.37A5.78,5.78,0,0,1,59,106.8a3,3,0,0,1-.3,1.92,2.69,2.69,0,0,1-1.7,1.19.42.42,0,0,0-.31.18c-.11.13-.18.19-.23.19h-.24a.26.26,0,0,1-.23-.19c-.05-.12-.13-.3-.23-.55l-1.23-4c-.41-1.35-.77-2.69-1.08-4s-.82-2.69-1.24-4l-1.23-4,.92-.37.93-.37a2.48,2.48,0,0,0,.93-.18l.92-.37A16.56,16.56,0,0,0,55,96,12.78,12.78,0,0,0,56.18,99.1Zm-7.09-5.31-2.62,9.53a6.35,6.35,0,0,0-.62-.65,3.84,3.84,0,0,0-.61-.45,5.37,5.37,0,0,0-.62-.64,3.43,3.43,0,0,0-.62-.46l-5.55-4.86a14,14,0,0,0-4.32-2.84l.31-2.2A18.33,18.33,0,0,0,38,92.69c1.23.37,2.46.67,3.7.92.71.12,1.46.21,2.23.27s1.52.09,2.24.09H47.7A4.66,4.66,0,0,0,49.09,93.79ZM18.86,97.45,26,110.28l-2.16,2.93a15.67,15.67,0,0,1-5.32-4.13,41.77,41.77,0,0,1-4.09-5.77Zm8.79,12.18c-.21-.42-.57-1.13-1.08-2.1l4-.19,3.4,5.87a21.21,21.21,0,0,0-1.7,2.29c-.52.79-1,1.68-1.55,2.65A11.78,11.78,0,0,0,29,116.78c-.67-.43-1.31-.83-1.93-1.19a7.21,7.21,0,0,0-.92-.64,6.69,6.69,0,0,0-.93-.46,23.44,23.44,0,0,1,1.78-2.2,3.1,3.1,0,0,0,.84-1.47A1.65,1.65,0,0,0,27.65,109.63ZM18.16,122a25.2,25.2,0,0,1-7.94-7.88l1.23-1.47A20.13,20.13,0,0,0,12.69,111l1.23-1.47,1.23-1.46c.52.73,1.09,1.46,1.7,2.2a17.26,17.26,0,0,0,2,2c-.72-.12-1.41-.21-2.08-.27s-1.31-.1-1.93-.1a1,1,0,0,0-.77.37,1.23,1.23,0,0,0-.31.73,1.41,1.41,0,0,0,.24.74.74.74,0,0,0,.69.36,9.69,9.69,0,0,1,1.62.19l2.08.36a3.31,3.31,0,0,1,.77.09,1.86,1.86,0,0,0,.62.09c.93.25,1.7.46,2.31.65s.87.27.77.27a30.23,30.23,0,0,1,3.63,1.74A21.26,21.26,0,0,1,30,120q-.77,1.65-1.38,3.39a19.94,19.94,0,0,0-.93,3.57A85.49,85.49,0,0,1,18.16,122Zm49.9-6.41A47.3,47.3,0,0,1,70.22,129c0,1.58,0,3.13-.16,4.65s-.26,3.07-.46,4.65c-.93.24-1.8.49-2.62.73l-2.47.73c-.92.37-1.8.7-2.62,1s-1.7.64-2.63,1H56.8a4.33,4.33,0,0,1-1.24.18H54.33a44.11,44.11,0,0,1-11.41-1.46l-2.78-.74L37.37,139v-2.38a45.52,45.52,0,0,1,.46-6.5c.31-2.14.72-4.24,1.23-6.32v-.37a1.27,1.27,0,0,0-.23-.82.56.56,0,0,0-.69-.09.7.7,0,0,0-.39.18,1.4,1.4,0,0,0-.38.55q-.78,2.93-1.32,6.23a41.54,41.54,0,0,0-.53,6.59v2c-.52-.24-1-.48-1.47-.73s-.95-.49-1.47-.73-1-.48-1.46-.73a12.38,12.38,0,0,1-1.47-.91H28.57a41.07,41.07,0,0,1,1.85-11.49A27.73,27.73,0,0,1,35.67,114l.15-.18H36l.15-.18a6.42,6.42,0,0,0-.85-1.91q-.84-1.56-3.47-6.3A.87.87,0,0,0,31,105a8,8,0,0,0-1.38-.09h-.93c-.72.12-1.38.23-2,.36s-1,.31-1.08.55L23,100.91a7.14,7.14,0,0,0,2.23-1.1,15.92,15.92,0,0,0,1.93-1.64l.16-.18a17.77,17.77,0,0,1,2.23-1.92,4.38,4.38,0,0,1,2.55-.82h.61a.8.8,0,0,1,.31.09.57.57,0,0,0,.31.1c.93.12,2.26.94,4,2.46s3.65,3.19,5.71,5a2.6,2.6,0,0,0,.38.36,3.51,3.51,0,0,1,.54.55,3.16,3.16,0,0,0,.77.64,2.92,2.92,0,0,1,.77.63q3.56,3.11,6.71,5.39c2.11,1.52,3.73,2.09,4.86,1.73a9.53,9.53,0,0,0,2.78-1.92A4.64,4.64,0,0,0,61,107.47a9.36,9.36,0,0,0-.08-1.18c0-.42-.13-.88-.23-1.37A22.27,22.27,0,0,1,68.06,115.59Zm-1.7-16a18.51,18.51,0,0,0-.15,2.47v1.38a6.32,6.32,0,0,0,.15,1.37L61.12,103a2.09,2.09,0,0,0-.7-.55,6.56,6.56,0,0,1-.69-.37c0-.12-.06-.18-.16-.18s0-.18-.15-.18a1.1,1.1,0,0,1-.23-.37.9.9,0,0,1-.08-.36,22.33,22.33,0,0,1-1.85-3.48,10.14,10.14,0,0,1-.77-4q1.23,1.27,2.16,2.1a5.66,5.66,0,0,0,2,1.19,4.85,4.85,0,0,0,2.24.55h3.78C66.56,98,66.46,98.77,66.36,99.56Zm33-36,1.54-.37a9.82,9.82,0,0,1,1.31-.27,9.5,9.5,0,0,1,1.31-.09,3.8,3.8,0,0,1,1.16-.18h1.15A5.67,5.67,0,0,1,108,63h0a1.43,1.43,0,0,1,.93,1.47.85.85,0,0,1-.16.55,1.79,1.79,0,0,1-.46.36h-.15c-.62,0-1.24-.09-1.85-.18l-2.94-.37a2.39,2.39,0,0,0-.92-.18,2.48,2.48,0,0,1-.93-.18c-.92-.12-1.69-.25-2.31-.37s-.92-.24-.92-.37A5.08,5.08,0,0,0,99.37,63.56Zm-3.78-2.11h0a.94.94,0,0,1,.38.27H95.2v-.34A1.76,1.76,0,0,1,95.59,61.45Zm-25.3,48.18a9.67,9.67,0,0,1-2.23-5.4v-.82a3.87,3.87,0,0,0-.16-1,14.13,14.13,0,0,1,.08-1.46c0-.55.08-1.1.08-1.65a12.41,12.41,0,0,1,1.31-4.12,4,4,0,0,1,2.85-2.29h.46a9.44,9.44,0,0,1,1.85.18h0a4.33,4.33,0,0,1,1.69.73A9.27,9.27,0,0,0,72.92,98a14.94,14.94,0,0,0-1.16,5.86v1.28a13,13,0,0,0,.93,3.94,12.32,12.32,0,0,0,2,3.39A8,8,0,0,1,70.29,109.63Zm8.64,2.2c-1,.43-2,0-3-1.19a2.31,2.31,0,0,1-.54-.45,2.36,2.36,0,0,1-.38-.65c1-.24,2-.51,2.93-.82h0c.92-.31,1.85-.64,2.77-1C80.5,110,79.91,111.41,78.93,111.83Zm24.69-26.56a5.87,5.87,0,0,0-.7,1,1.2,1.2,0,0,0-.46.46,1.24,1.24,0,0,1-.46.45,3.13,3.13,0,0,1-.77.92,1.46,1.46,0,0,1-.78.37,2.35,2.35,0,0,1-.77-.19,3.46,3.46,0,0,1-.92-.55H98.6a3.77,3.77,0,0,1-.84-.45,1.2,1.2,0,0,0-.7-.28.9.9,0,0,0-.54.18,1.4,1.4,0,0,0-.38.55,1,1,0,0,0,.15,1.19,2.43,2.43,0,0,0,1.08.64.29.29,0,0,1,.23.1.29.29,0,0,0,.23.09c-.51.73-1,1.43-1.54,2.1s-1,1.32-1.54,1.93a44.53,44.53,0,0,1-9.1,8.88,31.14,31.14,0,0,1-11.57,4.86c-.1.12-.23-.06-.38-.55a6.37,6.37,0,0,1-.24-1.84,14.28,14.28,0,0,1,.08-1.46c0-.49.13-1,.23-1.65a10.75,10.75,0,0,1,.77-3.11,3.11,3.11,0,0,1,1.55-1.84,43.21,43.21,0,0,0,8.63-4.76,35.69,35.69,0,0,0,7.4-7l.31.37a.38.38,0,0,0,.08.27l.23.28a1.14,1.14,0,0,0,.31.27.56.56,0,0,0,.31.09h.46l.31-.36a1.14,1.14,0,0,0,.31-.64v-.46a.5.5,0,0,1-.16-.28.56.56,0,0,0-.15-.27c-.42-.49-.8-.92-1.16-1.28a7.41,7.41,0,0,1-1-1.29,8.43,8.43,0,0,1-1.62-2.93,14.51,14.51,0,0,1-.54-4.4,7.73,7.73,0,0,1,.85-3.11,21.25,21.25,0,0,1,1.62-2.56.26.26,0,0,0,.23-.19,1.69,1.69,0,0,1,.23-.36c.31-.49.64-1,1-1.56a16.67,16.67,0,0,0,1-1.74.56.56,0,0,1,.31.09.9.9,0,0,0,.46.09,1.24,1.24,0,0,1,.39.09,1,1,0,0,0,.38.1A26.81,26.81,0,0,1,95,70.15c-.56,1.47-1.15,2.87-1.77,4.22a1.38,1.38,0,0,0,0,1.28.9.9,0,0,0,.77.55.61.61,0,0,0,.46-.18l.31-.37a36.3,36.3,0,0,0,2.08-4.85A24.74,24.74,0,0,0,98,65.94a4.88,4.88,0,0,1,.93.09c.3.07.66.16,1.07.28a5,5,0,0,0,.93.27,4.88,4.88,0,0,0,.93.09,6.82,6.82,0,0,0-2,2.39,19.69,19.69,0,0,0-1.54,3.48,10,10,0,0,0-.85,2.56,12.54,12.54,0,0,0-.23,2.2q0,3.86,1.77,5.5a6.47,6.47,0,0,0,4.55,1.65h.63A3.42,3.42,0,0,1,103.62,85.27Zm2.07-3.21H104.3a2.24,2.24,0,0,1-.85.19H102c-.31-.12-.59-.25-.85-.37a5.7,5.7,0,0,1-.69-.37,5.17,5.17,0,0,1-1.08-2,7.85,7.85,0,0,1-.31-2.2,4.17,4.17,0,0,1,0-1.65l.31-1.47a14.57,14.57,0,0,0,2.31,3.94A11.9,11.9,0,0,0,104.76,81a4.63,4.63,0,0,0,.54.28,1.38,1.38,0,0,0,.39.09.25.25,0,0,1,.23.18h0C106,81.64,105.9,81.82,105.69,82.06Zm4.94-7.14a5.56,5.56,0,0,1-1.24,2.84,5,5,0,0,1-2.16,1.74h-.77c-.1,0-.15-.06-.15-.19a.56.56,0,0,1-.31-.09.56.56,0,0,0-.31-.09,9.78,9.78,0,0,1-2.85-2.66,8.13,8.13,0,0,1-1.62-3.57.69.69,0,0,1-.16-.45V72a5.07,5.07,0,0,1,.54-2.2A4.22,4.22,0,0,1,103.53,68a1.58,1.58,0,0,1,1.39-.1,6.36,6.36,0,0,1,1.54.83c.32.26.63.53.93.82s.61.64.92,1a7.59,7.59,0,0,1,1.08,1.19h0c.31.42.57.76.77,1a1.69,1.69,0,0,1,.39.82,5.83,5.83,0,0,1,.08.83Z"/><path d="M73.61,63.66c.31.67.67,1,1.08,1s1-.39,1.46-1.19h0A6.88,6.88,0,0,0,77,60.64v-.55a7.76,7.76,0,0,0-.38-2.66c-.26-.67-.65-1-1.16-1a1.5,1.5,0,0,0-1.16.74A5.57,5.57,0,0,0,73.45,59l1.24,1.65-1.54.55A5.83,5.83,0,0,0,73.61,63.66Z"/><path d="M50.94,62.38c.3.79.66,1.19,1.08,1.19s1-.49,1.46-1.47a9.47,9.47,0,0,0,.85-3.3v-.73A9.4,9.4,0,0,0,54,55.23c-.26-.79-.65-1.19-1.16-1.19a1.48,1.48,0,0,0-1.16.83,6.63,6.63,0,0,0-.85,2.1L52,58.8l-1.55.74A7.88,7.88,0,0,0,50.94,62.38Z"/><path d="M56.64,74.92c.1.13.23.28.39.46l.38.46a1.14,1.14,0,0,0,.31.27.67.67,0,0,0,.31.1,3.58,3.58,0,0,0,1.16-.28,4.38,4.38,0,0,0,1.31-.82.58.58,0,0,0,.46-.19,1.79,1.79,0,0,1,.46-.36,14.87,14.87,0,0,0,1.24-.83h0c.4-.3.72-.52.92-.64a.74.74,0,0,0,.39-.46,1.78,1.78,0,0,0,.08-.45,1.06,1.06,0,0,0-.24-1c-.25-.31-.64-.34-1.15-.09a8.51,8.51,0,0,1-.93.64,8.39,8.39,0,0,0-.92.64,2.09,2.09,0,0,1-.85-.18c-.24-.11-.47-.24-.7-.37h-.15a.92.92,0,0,0-.38-.27,1.47,1.47,0,0,0-.54-.1,3,3,0,0,0-.54.1,2.21,2.21,0,0,0-.7.27c-1.13.37-1.59.82-1.39,1.37A6.12,6.12,0,0,0,56.64,74.92Z"/><path d="M46,86.83h2a6.24,6.24,0,0,0,1.92-.28,1,1,0,0,0,.86-1,.85.85,0,0,0-.62-.92,4.66,4.66,0,0,0-1.39-.18H47.24a1.21,1.21,0,0,1-.62.18H46a.86.86,0,0,0-.54.18,2.72,2.72,0,0,0-.39.37v.37a.94.94,0,0,0,.16.91A1,1,0,0,0,46,86.83Z"/></svg>