<svg xmlns="http://www.w3.org/2000/svg" width="25.144" height="25.144" viewBox="0 0 25.144 25.144"><defs><style>.a{fill:none;stroke:#fff;stroke-linecap:round;stroke-linejoin:round;stroke-width:3px;}</style></defs><g transform="translate(1.5 1.5)"><path class="a" d="M5.414,3H22.731a2.414,2.414,0,0,1,2.414,2.414V22.731a2.414,2.414,0,0,1-2.414,2.414H5.414A2.414,2.414,0,0,1,3,22.731V5.414A2.414,2.414,0,0,1,5.414,3Z" transform="translate(-3 -3)"/><path class="a" d="M10.5,3V25.144" transform="translate(-4.964 -3)"/><path class="a" d="M25.5,3V25.144" transform="translate(-8.892 -3)"/><path class="a" d="M3,18H25.144" transform="translate(-3 -6.928)"/><path class="a" d="M3,10.5H8.536" transform="translate(-3 -4.964)"/><path class="a" d="M3,25.5H8.536" transform="translate(-3 -8.892)"/><path class="a" d="M25.5,25.5h5.536" transform="translate(-8.892 -8.892)"/><path class="a" d="M25.5,10.5h5.536" transform="translate(-8.892 -4.964)"/></g></svg>