<svg id="logo" xmlns="http://www.w3.org/2000/svg" viewBox="0 0 216.69 76.02"><defs><style>.cls-1,.cls-2,.cls-7{isolation:isolate;}.cls-2,.cls-7{font-size:66px;font-family:Breamcatcher-Regular, Breamcatcher;}.cls-2{fill:#e25d34;}.cls-3{letter-spacing:0.01em;}.cls-4{letter-spacing:0em;}.cls-5{letter-spacing:-0.02em;}.cls-6{letter-spacing:-0.03em;}.cls-7{fill:none;stroke:#fff;stroke-width:2px;}.cls-8{fill:#d4613c;}.cls-9{fill:#fff;}</style></defs><title>flashback</title><g id="Flashback" class="cls-1"><text class="cls-2" transform="translate(1 59.71)">F<tspan class="cls-3" x="18.28" y="0">l</tspan><tspan class="cls-4" x="36.5" y="0">a</tspan><tspan x="59.99" y="0">sh</tspan><tspan class="cls-5" x="106.45" y="0">b</tspan><tspan class="cls-6" x="127.64" y="0">a</tspan><tspan x="149.75" y="0">ck</tspan></text><text class="cls-7" transform="translate(1 59.71)">F<tspan class="cls-3" x="18.28" y="0">l</tspan><tspan class="cls-4" x="36.5" y="0">a</tspan><tspan x="59.99" y="0">sh</tspan><tspan class="cls-5" x="106.45" y="0">b</tspan><tspan class="cls-6" x="127.64" y="0">a</tspan><tspan x="149.75" y="0">ck</tspan></text></g><g id="exclamation"><ellipse class="cls-8" cx="210" cy="56.71" rx="4" ry="5.5"/><path class="cls-9" d="M210,63.21c-2.76,0-5-2.92-5-6.5s2.24-6.5,5-6.5,5,2.91,5,6.5S212.76,63.21,210,63.21Zm0-11c-1.63,0-3,2.06-3,4.5s1.37,4.5,3,4.5,3-2.06,3-4.5S211.63,52.21,210,52.21Z"/><path class="cls-8" d="M210.11,8.41c-12.61,0,0,38.8,0,38.8S222.71,8.41,210.11,8.41Z"/><path class="cls-9" d="M210.11,50.45l-1-2.93c-.4-1.21-9.55-29.69-3.66-37.8a5.75,5.75,0,0,1,9.21,0c5.9,8.11-3.26,36.59-3.65,37.8Zm0-41a3.46,3.46,0,0,0-3,1.49c-3.91,5.38.21,23.39,3,32.9,2.78-9.51,6.9-27.52,3-32.9A3.48,3.48,0,0,0,210.11,9.41Z"/></g></svg>