<svg xmlns="http://www.w3.org/2000/svg" viewBox="0 0 77.66 77.66"><title>sci_fi</title><g id="Layer_2" data-name="Layer 2"><g id="Layer_1-2" data-name="Layer 1"><g id="sci_fi"><path d="M27.63,0a22.23,22.23,0,0,1,9.25,1.73c1.6.6,3.14,1.36,4.73,2a2,2,0,0,0,1.12,0,22.25,22.25,0,0,1,9.71,0,27.76,27.76,0,0,1,13.93,7.28A25.47,25.47,0,0,1,72,19.34a27.36,27.36,0,0,1,2.18,8.32,26,26,0,0,1-.3,7.67,2,2,0,0,0,.22,1.13,38.31,38.31,0,0,1,2.56,7,25.17,25.17,0,0,1,.93,7.62,15,15,0,0,1-2.85,8.69,12.1,12.1,0,0,1-6,4.12,20.77,20.77,0,0,1-9.5.5,40,40,0,0,1-11.58-3.78A67.7,67.7,0,0,1,26.43,43.94a63,63,0,0,1-10.33-16,38.61,38.61,0,0,1-2.73-8.85A23,23,0,0,1,13.13,12a13.46,13.46,0,0,1,4.25-8.68A13.44,13.44,0,0,1,23.11.42,15.44,15.44,0,0,1,27.63,0ZM47,9.64c-1.09.14-2.45.27-3.79.51a9.06,9.06,0,0,0-5.57,3.15,8,8,0,0,0-2,5.85,13.2,13.2,0,0,0,1.76,5.46,37,37,0,0,0,6.21,8,40.6,40.6,0,0,0,9.23,7.43A14.58,14.58,0,0,0,58,42c3.55.5,6.17-1.14,8.18-3.86A11.3,11.3,0,0,0,68,32.38a19.08,19.08,0,0,0-2.41-11.9C61.52,13.49,55.26,10.08,47,9.64Z"/><path d="M19.44,51.77a2.32,2.32,0,0,1,.59,0,1.59,1.59,0,0,0,1.83-.61C23,50,24.28,48.83,25.48,47.63c.3-.3.5-.34.81,0,1.25,1.28,2.51,2.53,3.78,3.78.29.29.3.49,0,.78-1.35,1.35-2.66,2.72-4,4.06a.94.94,0,0,0-.29.93A6.45,6.45,0,1,1,17,52.29a20,20,0,0,1,2.45-.63Z"/><path d="M57.53,66.71c-.15.16-.25.29-.36.4-.63.64-1.25,1.3-1.91,1.91a1,1,0,0,0-.35,1,6.4,6.4,0,0,1-3.21,6.76,6.47,6.47,0,1,1-5.27-11.76,10.29,10.29,0,0,1,3.41-.28c1.24,0,2.24.66,3.36,1a19.74,19.74,0,0,0,4.09.87A1.21,1.21,0,0,1,57.53,66.71Z"/><path d="M11,20.15a15.4,15.4,0,0,0,.29,1.68c.46,1.61,1,3.21,1.44,4.82a7.37,7.37,0,0,1,.16,1.25,6.44,6.44,0,0,1-3,6.71,6.46,6.46,0,1,1-5-11.74,5.73,5.73,0,0,1,2.82-.1.86.86,0,0,0,.93-.3c.6-.64,1.24-1.26,1.87-1.88C10.61,20.45,10.78,20.32,11,20.15Z"/></g></g></g></svg>