<svg xmlns="http://www.w3.org/2000/svg" viewBox="0 0 95.53 81.29"><title>anime</title><g id="Layer_2" data-name="Layer 2"><g id="Layer_1-2" data-name="Layer 1"><g id="anime"><path d="M68,61.2a2.37,2.37,0,0,1,1,2.71c-.19.93-.27,1.88-.39,2.83-.33,2.75-.65,5.5-1,8.25-.19,1.51-.37,3-.59,4.54A2.11,2.11,0,0,1,64,81.06l-6.85-2.94c-1.57-.67-3.16-1.33-4.72-2a1,1,0,0,0-1,.13,6.76,6.76,0,0,1-3.83,1.05,6.42,6.42,0,0,1-3.25-1,1.36,1.36,0,0,0-1.41-.1c-2.38,1-4.78,2.09-7.18,3.13-1.38.59-2.77,1.17-4.14,1.77a2.16,2.16,0,0,1-3.15-1.89c-.23-2.15-.54-4.3-.8-6.44-.24-1.94-.46-3.88-.7-5.81-.12-1-.23-2.06-.38-3.08a2.33,2.33,0,0,1,1-2.71c-.57-.4-1.11-.81-1.66-1.2l-6.63-4.57q-2.05-1.42-4.1-2.86a1.94,1.94,0,0,1-.89-1.95,2,2,0,0,1,1.38-1.65l7.16-2.68,5.08-1.94c.64-.24,1.29-.47,1.94-.69a.6.6,0,0,0,.44-.72q-.45-4-.89-8c-.14-1.31-.24-2.62-.41-3.92a3.32,3.32,0,0,0-.47-1.14c-.42-.72-.88-1.41-1.34-2.1a2.81,2.81,0,0,0-.66-.75,9,9,0,0,1-3.92-9.45A8.53,8.53,0,0,1,27,11.42c.62-.35,1.31-.57,2-.88a.84.84,0,0,0,.38-.39A10.22,10.22,0,0,1,40.36,4.23a13.13,13.13,0,0,1,6.43,3.05,6.52,6.52,0,0,1,.7.69c.21.23.38.2.57,0a12.06,12.06,0,0,1,3.55-2.59,11.36,11.36,0,0,1,7-1.13,10.09,10.09,0,0,1,6.92,4.55,3.58,3.58,0,0,1,.49.9,1.72,1.72,0,0,0,1.25,1.1,8.9,8.9,0,0,1,5.24,5.06,9.11,9.11,0,0,1-3.35,11.06,3.12,3.12,0,0,0-.75.86c-.44.66-.88,1.33-1.28,2a2.78,2.78,0,0,0-.48,1.09c-.27,2.18-.47,4.37-.71,6.55-.19,1.8-.39,3.59-.6,5.38-.06.46.11.67.55.83,1.46.51,2.91,1.08,4.36,1.62l3.49,1.31,3.62,1.36,2.62,1a2,2,0,0,1,.48,3.58l-7.21,5L68.43,60.8A3.77,3.77,0,0,0,68,61.2ZM36.7,40.41c.79.3,1.42.41,1.79-.35a.93.93,0,0,0-.2-1.13c-.5-.47-1-.34-1.53.15a3.81,3.81,0,0,1-.13-.59c0-.46,0-.92,0-1.38a.61.61,0,0,0-.37-.67,11,11,0,0,1-1.09-.54c-.1-.06-.22-.18-.22-.28s.13-.21.23-.25a7.71,7.71,0,0,1,1-.33c.7-.15,1.41-.26,2.11-.41.11,0,.2-.13.3-.2-.08-.08-.16-.2-.26-.23a8.06,8.06,0,0,1-2.69-1.37,2.17,2.17,0,0,0-.9-.33,6.37,6.37,0,0,0-1,0c-.51,0-.57,0-.51.54.15,1.22.3,2.44.43,3.67.24,2.2.45,4.4.71,6.6a2.29,2.29,0,0,0,.42,1,23,23,0,0,0,3.9,4,54.09,54.09,0,0,0,8.78,6.08.68.68,0,0,0,.56,0c1.9-1.21,3.83-2.39,5.68-3.67a35.7,35.7,0,0,0,6.41-5.62,3.82,3.82,0,0,0,1.08-2.54c.05-1.32.29-2.64.44-4,.22-1.9.43-3.81.65-5.72,0-.29-.07-.43-.38-.4a6.49,6.49,0,0,1-.88,0,2,2,0,0,0-1.27.42,15.62,15.62,0,0,1-1.83,1,8.46,8.46,0,0,1-1,.4l0,.15c.17.06.34.13.52.18l3,.71c.1,0,.24.15.24.24a.37.37,0,0,1-.2.28,6.61,6.61,0,0,1-.76.36c-.47.19-.81.45-.73,1a5.84,5.84,0,0,1,0,1.18,2.18,2.18,0,0,1-.14.48c-.87-.39-1.18-.39-1.57,0a1.09,1.09,0,0,0-.1,1.2c.42.63,1,.56,1.72.2-.16.6-.28,1.07-.42,1.53a1.13,1.13,0,0,1-1.31.83c-1.48,0-3,0-4.43,0a.9.9,0,0,1-.95-.6,13.25,13.25,0,0,1-.85-4.61A2.56,2.56,0,0,1,52.8,35c.48-.09,1-.24,1.55-.39L54,34.5A9.3,9.3,0,0,1,52.28,34a1.78,1.78,0,0,1-1-1.9,2,2,0,0,1,1.47-1.78,3.05,3.05,0,1,0-3.42-4.75,2,2,0,0,1-3.23,0,3.08,3.08,0,0,0-4-.71,3.06,3.06,0,0,0,.63,5.49,2.14,2.14,0,0,1,1.48,2,2,2,0,0,1-1.49,1.91l-1.42.34a2.2,2.2,0,0,0,.69.21c1.79.33,2.85,1.3,2.61,3.25-.15,1.22-.37,2.43-.61,3.63-.15.71-.52,1-1,1-1.66,0-3.32,0-5,0a.93.93,0,0,1-.71-.39A16.44,16.44,0,0,1,36.7,40.41Zm38.12,11a5,5,0,0,0-.55-.32l-2.67-1-3.53-1.33c-1.15-.43-2.28-.89-3.44-1.3-.68-.24-.73-.18-1.08.48-.53,1-1.09,2-1.64,3l-3.35,6.15Q57,60,55.42,62.9c-.25.44-.47.89-.7,1.34l.1.11a6.27,6.27,0,0,0,2.44-.76C59.17,62.31,61.05,61,63,59.65l8.35-5.76C72.46,53.09,73.61,52.28,74.82,51.43Zm-54.08-.06c.08.11.1.16.14.18l7.75,5.37c2.79,1.93,5.6,3.86,8.37,5.82a8.22,8.22,0,0,0,3.3,1.55,2.35,2.35,0,0,0,.45,0,2.34,2.34,0,0,0-.12-.4c-.33-.62-.66-1.24-1-1.85q-1.7-3.12-3.4-6.24-1.53-2.82-3.08-5.64c-.43-.79-.84-1.58-1.28-2.37-.15-.28-.32-.51-.73-.33-.7.31-1.43.56-2.15.83l-6.7,2.48C21.77,50.93,21.27,51.15,20.74,51.37ZM40.79,68.91c0-.3-.32-.36-.64-.45-1.2-.33-2.4-.65-3.59-1L31.42,66c-.38-.11-.53,0-.48.37L32,75.26a3.39,3.39,0,0,0,.08.44c.12.54.21.59.74.38.29-.11.57-.23.86-.36l4.53-2c.86-.37,1.71-.74,2.55-1.13.12-.06.26-.29.23-.39A7,7,0,0,1,40.79,68.91Zm23.86-3a4.22,4.22,0,0,0-.48.09l-4.29,1.22c-1.54.44-3.09.86-4.63,1.29-.32.09-.58.25-.47.67a4.84,4.84,0,0,1-.16,2.72c-.17.59.07.75.48.93l7.52,3.23c.61.26.78.17.87-.5.14-1.16.25-2.32.39-3.47s.32-2.28.46-3.41C64.45,67.78,64.54,66.88,64.65,65.9Zm-24-11-.11.07a2.64,2.64,0,0,0,.13.46c.14.28.3.54.45.81,1.22,2.26,2.46,4.5,3.66,6.77a.72.72,0,0,0,1,.37,6.61,6.61,0,0,1,4,0c.6.18.71.13,1-.41q2.05-3.77,4.09-7.53A1.73,1.73,0,0,0,55,54.9a1.45,1.45,0,0,0-.23.05c-1.92,1.2-3.84,2.42-5.77,3.6a1.92,1.92,0,0,1-2.09.18c-1.29-.75-2.58-1.49-3.85-2.26C42.25,56,41.45,55.4,40.64,54.87Zm7.13,18.3a3,3,0,1,0-3.05-3A3.06,3.06,0,0,0,47.77,73.17ZM38.93,39.05A3.57,3.57,0,0,0,39.59,41a1.24,1.24,0,0,0,2.13,0,3.4,3.4,0,0,0,.19-3.49,1.49,1.49,0,0,0-1.27-.87,1.46,1.46,0,0,0-1.27,1A14.83,14.83,0,0,0,38.93,39.05Zm17.56,0a2.61,2.61,0,0,0-.55-1.87,1.23,1.23,0,0,0-2.14,0,3.25,3.25,0,0,0,0,3.68,1.24,1.24,0,0,0,2.13.09A2.68,2.68,0,0,0,56.49,39.08Z"/><path d="M31.1,2.09c-.71.58-1.37,1.08-2,1.63a13.7,13.7,0,0,0-2.53,3,2.39,2.39,0,0,1-.89.78,13.05,13.05,0,0,0-6.2,6.45,13.16,13.16,0,0,0,1.66,13.52.59.59,0,0,1,0,.83,51.06,51.06,0,0,0-4.94,7.83c-1.27,2.52-2.55,5.05-3.71,7.62-1,2.25-1.89,4.56-2.78,6.86-.78,2-1.54,4.06-2.25,6.11s-1.27,3.92-1.9,5.88c-.23.75-.51,1.49-.67,2.26a2.08,2.08,0,0,0,.18,1.08A7.77,7.77,0,0,0,8.7,70.3a7.27,7.27,0,0,0,5.24.59,5.41,5.41,0,0,0,3.36-2.21c1.07-1.56,1.53-4.49.17-6.2A3.09,3.09,0,0,0,14.77,61a3,3,0,0,0-2,1.11,2.64,2.64,0,0,0-.57,1.19A2.1,2.1,0,0,1,10.27,65a2,2,0,0,1-2-1.41A3.84,3.84,0,0,1,9,60.37,7.18,7.18,0,0,1,15.25,57a7.07,7.07,0,0,1,5.17,2.69,8.48,8.48,0,0,1,1.86,6.66,9,9,0,0,1-5,7.65A10.77,10.77,0,0,1,10.13,75a11,11,0,0,1-7-4.24A13.9,13.9,0,0,1,.91,66,31.33,31.33,0,0,1,.26,54.21c.19-1.82.4-3.65.73-5.45s.85-3.8,1.34-5.69c.39-1.47.81-2.93,1.3-4.37.59-1.71,1.25-3.4,1.92-5.09.59-1.47,1.21-2.93,1.88-4.36.9-1.91,1.81-3.81,2.81-5.66s2.21-4,3.39-5.91c.95-1.58,2-3.11,3-4.63a1,1,0,0,0,.14-.86,16.72,16.72,0,0,1-.51-2.88,8.71,8.71,0,0,1,3.88-7.63A8.88,8.88,0,0,1,27.53.26a8.61,8.61,0,0,1,3.11,1.42C30.79,1.79,30.93,1.94,31.1,2.09Z"/><path d="M64.34,2c.74-.44,1.36-.89,2-1.21A8.74,8.74,0,0,1,72.15.24a9,9,0,0,1,5.59,3.87,9.17,9.17,0,0,1,1.44,6.38,9.49,9.49,0,0,1-.45,1.7.83.83,0,0,0,.12.84c.94,1.33,1.88,2.65,2.7,4,1.6,2.72,3.2,5.44,4.65,8.23,1.25,2.41,2.32,4.9,3.39,7.39.82,1.91,1.58,3.84,2.25,5.8.61,1.78,1.13,3.59,1.58,5.41.52,2.07,1,4.14,1.37,6.24a48,48,0,0,1,.62,11.66,18.52,18.52,0,0,1-1.74,6.81,11.09,11.09,0,0,1-6.07,5.78,10.72,10.72,0,0,1-4.8.81c-3.65-.32-6.67-1.78-8.49-5.12a10.25,10.25,0,0,1-1-6,7.68,7.68,0,0,1,4.55-6.52c2.7-1.32,5.16-.62,7.38,1.22a6,6,0,0,1,2.17,3.57,2.23,2.23,0,0,1-1,2.44,2.08,2.08,0,0,1-2.5-.52,1.58,1.58,0,0,1-.4-.82c-.06-1.13-.85-1.64-1.68-2.13-1.4-.84-2.88.09-3.67,1.13a4.4,4.4,0,0,0-.81,3,5.75,5.75,0,0,0,2,4.25A5.94,5.94,0,0,0,82.13,71a7,7,0,0,0,7-2.68,8.23,8.23,0,0,0,1.52-3.15,3.12,3.12,0,0,0-.29-1.42c-.35-1.15-.71-2.31-1.08-3.46s-.86-2.57-1.3-3.85-.88-2.5-1.34-3.74c-.52-1.41-1-2.82-1.6-4.22s-1.07-2.6-1.63-3.88C82.66,43,82,41.36,81.17,39.76c-1-2-2-3.93-3.11-5.83s-2.43-3.76-3.68-5.62a.58.58,0,0,1,0-.82,13,13,0,0,0,2.4-4.74,13.36,13.36,0,0,0,.15-6.13,13,13,0,0,0-4-7,9.89,9.89,0,0,0-3.07-2.07,2.85,2.85,0,0,1-1.2-1.23A13.75,13.75,0,0,0,64.9,2.49C64.76,2.39,64.62,2.27,64.34,2Z"/><path d="M47.78,44.75c.67,0,1.34,0,2,0a.94.94,0,0,1,.86,1.47c-.63,1.29-1.26,2.57-1.91,3.86a1,1,0,0,1-1.93,0c-.53-1.05-1-2.1-1.56-3.15-.14-.28-.28-.56-.4-.85a.91.91,0,0,1,.81-1.36c.71,0,1.41,0,2.12,0Z"/></g></g></g></svg>