<svg xmlns="http://www.w3.org/2000/svg" viewBox="0 0 81 63.12"><title>romantic</title><g id="Layer_2" data-name="Layer 2"><g id="Layer_1-2" data-name="Layer 1"><g id="romantic"><path d="M32.34,8.43c1.06-1,2.09-2,3.15-3A21.83,21.83,0,0,1,43.27.69,15.55,15.55,0,0,1,50.44.22,16.52,16.52,0,0,1,59.16,4a16.15,16.15,0,0,1,5.37,9.89,21,21,0,0,1-.83,10.46c0,.09-.05.18-.1.36l.63-.15a12.67,12.67,0,0,1,7,0A14.14,14.14,0,0,1,79,30.17a11.78,11.78,0,0,1,2,6.26,16.22,16.22,0,0,1-4.61,12,25.7,25.7,0,0,1-7.57,5.33c-3.94,1.94-8.08,3.36-12.16,4.93a54.74,54.74,0,0,0-9.14,4.2,1.92,1.92,0,0,1-2.68-1A69.14,69.14,0,0,0,39,51a1.2,1.2,0,0,0-.14-.12c-.94.93-1.9,1.85-2.82,2.8-.75.78-1.49,1.56-2.17,2.39a1.9,1.9,0,0,1-2.83,0A94.43,94.43,0,0,0,18.86,44.67a125.79,125.79,0,0,1-10-8.8,34.05,34.05,0,0,1-6.75-9.18,20.42,20.42,0,0,1-1-15.94A15.26,15.26,0,0,1,11.9.75,17.45,17.45,0,0,1,19.83.24a16.24,16.24,0,0,1,5.9,2.42,30.35,30.35,0,0,1,6.33,5.47C32.18,8.27,32.3,8.39,32.34,8.43ZM58.42,26.87c.72-.3.72-.3,1.07-1a18,18,0,0,0,2-10.18,14,14,0,0,0-2.59-7.2A13,13,0,0,0,49.86,3.4,12.43,12.43,0,0,0,41.7,4.9,26.88,26.88,0,0,0,34,11.7c-1.09,1.38-2.07,1.41-3.16,0A28,28,0,0,0,25,6.09a15.45,15.45,0,0,0-5.17-2.52,13.07,13.07,0,0,0-6,0C8.49,4.8,5.07,8,3.78,13.36A17.82,17.82,0,0,0,6,27.1,35,35,0,0,0,13,35.3c3.2,2.85,6.5,5.6,9.77,8.39a97.4,97.4,0,0,1,9.38,8.68,2.23,2.23,0,0,1,.2.33l4.74-4.88c-.89-1.59-1.9-3.28-2.81-5A28.38,28.38,0,0,1,31,33.54a16.59,16.59,0,0,1,2.08-10.79A12.87,12.87,0,0,1,37.76,18a12.62,12.62,0,0,1,7.73-1.69,14.11,14.11,0,0,1,5,1.33,14.24,14.24,0,0,1,5.85,5.61C57.11,24.39,57.73,25.62,58.42,26.87Z"/></g></g></g></svg>