<svg xmlns="http://www.w3.org/2000/svg" viewBox="0 0 64.02 75.86"><title>pop</title><g id="Layer_2" data-name="Layer 2"><g id="Layer_1-2" data-name="Layer 1"><path d="M32.27,15.58l.3.88A16.2,16.2,0,0,1,38.33,3.7,15.15,15.15,0,0,1,51.87.41,15.58,15.58,0,0,1,64,16.06a15.18,15.18,0,0,1-5.17,11.19A16.28,16.28,0,0,1,47.26,31.4l1.15.27c-.37.3-.62.52-.89.71C40.19,37.44,32.94,42.61,26,48.2c-3.82,3.08-7.47,6.37-11.18,9.59-.43.37-.65.43-1.07,0-2.46-2.52-4.95-5-7.43-7.51-.32-.32-.5-.55-.09-1a182.84,182.84,0,0,0,16-19.59c3.25-4.44,6.37-9,9.54-13.46C31.89,16.07,32,15.89,32.27,15.58Zm24.25,7.54a10.53,10.53,0,0,0,2.74-9.66,10.67,10.67,0,0,0-8.41-8.62,10.5,10.5,0,0,0-10,2.69ZM38.1,11.85c-1.54,2.91-1.14,8.52,3,12.14,3.51,3.09,8.59,3.4,11.11,1.91Q45.15,18.9,38.1,11.85Zm-14.33,25A3.39,3.39,0,0,0,26,40a3,3,0,0,0,3.47-.65Q31.67,37.2,33.83,35a3.15,3.15,0,0,0-.1-4.63,3.2,3.2,0,0,0-4.68-.11c-1.46,1.42-2.89,2.87-4.32,4.31A3.07,3.07,0,0,0,23.77,36.81Z"/><path d="M0,63.91a11.37,11.37,0,0,1,3.57-7.65,2.94,2.94,0,0,1,4.2-.13,3,3,0,0,1,.14,4.22c-.41.49-.86.95-1.22,1.47A4.94,4.94,0,0,0,8.92,69.5a7.67,7.67,0,0,0,6.19-.13,19,19,0,0,0,6.25-4.45L38.75,47.54a11.84,11.84,0,0,1,15.16-1.66,10.83,10.83,0,0,1,2.48,15.61,39.15,39.15,0,0,1-3.2,3.5c-2.76,2.83-5.54,5.62-8.32,8.42a3.07,3.07,0,0,1-3.92.68,3,3,0,0,1-.49-4.7c1.53-1.58,3.11-3.1,4.67-4.65C47,62.84,49,61,50.86,59a5.76,5.76,0,0,0,1.9-4.75c-.25-2.64-3.95-6.09-7.53-4.2A9.8,9.8,0,0,0,43,51.79Q34.49,60.22,26,68.72a24.72,24.72,0,0,1-8.8,6,14,14,0,0,1-9.91.34C2.74,73.46,0,69.54,0,63.91Z"/></g></g></svg>