<svg xmlns="http://www.w3.org/2000/svg" viewBox="0 0 75.3 75.3"><title>music</title><g id="Layer_2" data-name="Layer 2"><g id="Layer_1-2" data-name="Layer 1"><path d="M37.62,0A37.65,37.65,0,1,1,0,37.71,37.66,37.66,0,0,1,37.62,0Zm0,52.43A14.81,14.81,0,1,0,22.87,37.75,14.77,14.77,0,0,0,37.64,52.43Zm-19,13.06A5.05,5.05,0,0,0,19,65q3.75-5.49,7.49-11c.29-.42.27-.66-.16-1A18.17,18.17,0,0,1,22.26,49c-.29-.4-.51-.5-1-.19q-5.49,3.78-11,7.52c-.4.27-.47.5-.18.91a34.6,34.6,0,0,0,8,8C18.25,65.28,18.4,65.36,18.61,65.49ZM65.49,18.58c-.13-.21-.21-.35-.31-.49a34.61,34.61,0,0,0-8-8c-.42-.31-.64-.29-.94.16q-3.73,5.58-7.52,11.12c-.27.39-.26.63.14.92a18,18,0,0,1,4.2,4.11c.27.38.52.39.87.13s1-.69,1.51-1l9.46-6.46A4.11,4.11,0,0,0,65.49,18.58Z"/><path d="M37.68,41a3.31,3.31,0,1,1,0-6.61,3.31,3.31,0,1,1,0,6.61Z"/></g></g></svg>