<svg xmlns="http://www.w3.org/2000/svg" viewBox="0 0 59.53 77.45"><title>horror</title><g id="Layer_2" data-name="Layer 2"><g id="Layer_1-2" data-name="Layer 1"><g id="horror"><path d="M29.92,77.45H5.76a4.6,4.6,0,0,1-1.34-.15A2.11,2.11,0,0,1,3,75.74C2.42,73.5,1.72,71.27,1.25,69A54.39,54.39,0,0,1,.18,53.2a71.33,71.33,0,0,1,1.05-7.86c.54-2.67,1.35-5.29,2.12-7.91C4.18,34.65,5.1,31.89,6,29.12,6.62,27.05,7.3,25,7.88,22.89c.5-1.78.88-3.6,1.29-5.41,1.56-6.82,5-12.24,11.42-15.47a19.19,19.19,0,0,1,9.94-2C38.47.5,44.17,4.42,47.84,11.4a29.79,29.79,0,0,1,2.34,7c.61,2.53,1.35,5,2.12,7.52.91,3,1.92,5.89,2.89,8.84.63,1.92,1.31,3.84,1.86,5.79s1.1,4.17,1.5,6.28a55.94,55.94,0,0,1,.93,12.72,49.46,49.46,0,0,1-1,9.08c-.57,2.49-1.26,5-1.9,7.42a1.78,1.78,0,0,1-1.88,1.44c-1.84,0-3.68,0-5.53,0Zm11.94-57.7c0-2,0-4,0-6a7.71,7.71,0,0,0-.5-2.61,5.89,5.89,0,0,0-6.28-3.58c-1.18.17-2.34.46-3.52.64a10.4,10.4,0,0,1-2.6.23,38.69,38.69,0,0,1-3.81-.72,6.51,6.51,0,0,0-5.51,1,6,6,0,0,0-2.38,5c0,4.09,0,8.17,0,12.26,0,1-.1,1.06-1.07,1.12a8.82,8.82,0,0,0-2.18.3,6.74,6.74,0,0,0-3.19,10.72c1.76,2.15,4.12,2.72,6.76,2.43a1.87,1.87,0,0,1,2.13,1.23,1.81,1.81,0,0,1-1,2.19.45.45,0,0,0-.27.66c.85,2.65,1.79,5.27,2.5,8a51.55,51.55,0,0,1,1.31,6.86c.31,2.6.39,5.24.54,7.86a7.63,7.63,0,0,0,1.09,3.85,6.43,6.43,0,0,0,6.41,3.2A6.31,6.31,0,0,0,36,69.6a14.65,14.65,0,0,0,.39-3.69,61.37,61.37,0,0,1,2-14.09c.64-2.47,1.49-4.88,2.29-7.31.14-.42,0-.55-.3-.72a1.78,1.78,0,0,1-.9-2.27,1.81,1.81,0,0,1,2.12-1.13,6.85,6.85,0,0,0,3.12,0,6.75,6.75,0,0,0,4.67-9.14,6.59,6.59,0,0,0-6.41-4.18c-.9,0-1-.15-1-1C41.85,23.92,41.86,21.83,41.86,19.75Z"/><path d="M26.52,63.43a93.39,93.39,0,0,0-1.28-12.71c-.14-.81-.29-1.62-.43-2.43a4.86,4.86,0,0,1,3.11-5A4.73,4.73,0,0,1,34,46.24a6.42,6.42,0,0,1,0,3.37c-.31,1.78-.6,3.56-.83,5.35a93,93,0,0,0-.59,12.49,3.09,3.09,0,0,1-3.27,3.31,3,3,0,0,1-2.8-2.65C26.46,66.55,26.52,65,26.52,63.43Z"/><path d="M42.52,36.25a10,10,0,0,1-6.12-2.69,15,15,0,0,1-4.75-8.29,12.42,12.42,0,0,1-.25-2.51,2.43,2.43,0,0,1,4.84-.41,23.91,23.91,0,0,0,.64,3.29A8.55,8.55,0,0,0,41,30.77a5,5,0,0,0,2.1.57,2.54,2.54,0,0,1,2.45,2.57,2.47,2.47,0,0,1-2.71,2.34Z"/><path d="M16.39,36.25a2.49,2.49,0,0,1-2.76-1.86,2.39,2.39,0,0,1,1.9-3c3.14-.17,4.9-2.12,6.22-4.66a8.86,8.86,0,0,0,1-3.78,2.66,2.66,0,0,1,.86-2.07,2.45,2.45,0,0,1,4.08,1.83,14,14,0,0,1-1.59,6.31,13.61,13.61,0,0,1-5.74,6.1A9.1,9.1,0,0,1,16.39,36.25Z"/><path d="M33.26,37.45a2,2,0,0,1-1.15,1.73,1.79,1.79,0,0,1-2-.4,2.18,2.18,0,0,1-.25-.28c-.21-.31-.38-.26-.6,0a1.85,1.85,0,0,1-2.14.7,1.76,1.76,0,0,1-1-2.47,24.77,24.77,0,0,1,2.25-3,1.67,1.67,0,0,1,2.49,0c.8.92,1.5,1.94,2.21,2.93A2.86,2.86,0,0,1,33.26,37.45Z"/></g></g></g></svg>