<svg xmlns="http://www.w3.org/2000/svg" viewBox="0 0 79.25 79.29"><title>thriller</title><g id="Layer_2" data-name="Layer 2"><g id="Layer_1-2" data-name="Layer 1"><g id="thriller"><path d="M39.62,79.29a17.25,17.25,0,0,1-6.22-1.37,23.11,23.11,0,0,1-8.94-7.06,41.28,41.28,0,0,1-5.12-8c-1.1-2.23-2.11-4.51-3.14-6.77-.28-.6-.48-1.23-.74-1.83a1,1,0,0,0-.37-.41,10.58,10.58,0,0,1-5-5.72,11.77,11.77,0,0,1-.83-5.86c0-.38-.07-.54-.44-.68-1.61-.64-3.22-1.28-4.78-2A8.58,8.58,0,0,1,.66,36.9a3,3,0,0,1-.61-2.33,4.19,4.19,0,0,1,1.16-2.09A11.06,11.06,0,0,1,4.88,30c1.65-.71,3.33-1.35,5-1.9s3.32-.9,5-1.32a.44.44,0,0,0,.38-.39c.4-1.65.83-3.28,1.26-4.92.33-1.27.65-2.53,1-3.79s.67-2.3,1-3.44.8-2.4,1.25-3.58a26.36,26.36,0,0,1,4.34-8A7.47,7.47,0,0,1,27.33.38,6.9,6.9,0,0,1,29,0a15.08,15.08,0,0,1,4.81.62,19.9,19.9,0,0,0,8.26.72c1.2-.2,2.39-.5,3.59-.76.54-.11,1.07-.27,1.62-.34C48.1.15,48.92.06,49.74,0a6.06,6.06,0,0,1,4.65,2,14.65,14.65,0,0,1,3.18,4.69q1.35,3.08,2.49,6.23c.57,1.61,1,3.26,1.48,4.9s.87,3,1.3,4.52S63.6,25,64,26.39a.51.51,0,0,0,.29.32c1.95.54,3.91,1,5.85,1.59a24.17,24.17,0,0,1,5.49,2.33,8.55,8.55,0,0,1,3,2.6,3.08,3.08,0,0,1,.61,2,3.81,3.81,0,0,1-1.12,2.29,10.06,10.06,0,0,1-3.32,2.34c-1.5.67-3,1.25-4.58,1.86-.26.11-.25.29-.24.5,0,.67.08,1.35.06,2A12.31,12.31,0,0,1,68.29,50a8.75,8.75,0,0,1-3.75,3.77c-.74.36-.88,1-1.15,1.62-1,2.12-1.87,4.28-2.89,6.38a50,50,0,0,1-4.07,6.92,28.87,28.87,0,0,1-7.14,7.4,15.78,15.78,0,0,1-4.5,2.28c-1,.28-2,.51-3,.71C41.07,79.17,40.34,79.21,39.62,79.29ZM35.42,72a4.05,4.05,0,0,0,.45.29c.29.12.59.22.89.32a9.44,9.44,0,0,0,6.52-.16,13.53,13.53,0,0,0,4.66-3.06A32.18,32.18,0,0,0,53,62.81,62,62,0,0,0,57,55.11c.68-1.57,1.31-3.15,2-4.72.16-.38-.1-.5-.37-.59a16.47,16.47,0,0,0-5-1,15,15,0,0,0-6.12.93,5.48,5.48,0,0,0-2.63,1.92c-.52.76-1.09,1.48-1.65,2.21A9.18,9.18,0,0,0,41.35,57a1.32,1.32,0,0,0,.85,1.73,19.44,19.44,0,0,0,2.42.43c.53.07.81.28.85.72a.86.86,0,0,1-.66,1,3.84,3.84,0,0,1-1,.08,42.74,42.74,0,0,0-6.4.1,3.25,3.25,0,0,0-2.2.92c-.6.72-.67,1.57.52,1.86q1.24.28,2.52.45c1.35.19,2.71.31,4.06.5a6.58,6.58,0,0,1,1.37.42c.52.21.7.6.4,1a3.94,3.94,0,0,1-1.17,1.23c-1.5.9-3,1.71-4.58,2.55A14.42,14.42,0,0,0,35.42,72Z"/></g></g></g></svg>