<svg xmlns="http://www.w3.org/2000/svg" viewBox="0 0 80.48 80.51"><title>classic</title><g id="Layer_2" data-name="Layer 2"><g id="Layer_1-2" data-name="Layer 1"><g id="classic"><path d="M35.59,24.61c-.16-.17-.3-.35-.47-.52C32,21,28.94,17.85,25.79,14.78a3.16,3.16,0,0,1,.89-5.28,3.07,3.07,0,0,1,3.52.78l4.15,4.15c1.81,1.8,3.63,3.6,5.42,5.42.37.38.6.37,1,0Q50,10.58,59.22,1.33A3.72,3.72,0,0,1,62.11,0a2.89,2.89,0,0,1,2.67,1.7A2.88,2.88,0,0,1,64.44,5a23.32,23.32,0,0,1-1.62,1.68q-8.73,8.73-17.45,17.45l-.58.64c.38,0,.62.06.87.06H71a9.1,9.1,0,0,1,7.92,4.14,8.69,8.69,0,0,1,1.56,5q0,18.69,0,37.39a9.16,9.16,0,0,1-7.5,9,9.93,9.93,0,0,1-2,.18q-30.77,0-61.54,0A9.4,9.4,0,0,1,.33,73.63,10.82,10.82,0,0,1,0,71C0,66.49,0,62,0,57.42c0-7.77,0-15.54,0-23.3a9,9,0,0,1,4.82-8.19,8,8,0,0,1,4.05-1.12l25.89,0h.75Zm-3,6.29V31C30.33,31,28,31,25.69,31c-3.74.1-7.5.1-11.17,1.05a9.07,9.07,0,0,0-6.84,6.06A26.45,26.45,0,0,0,6.37,46c-.13,3.39-.14,6.78-.11,10.18A37.87,37.87,0,0,0,7.47,66.55a9.22,9.22,0,0,0,7.17,6.7,36,36,0,0,0,8.13.93c5.51,0,11,.09,16.53.07a47.31,47.31,0,0,0,11.13-1,9.17,9.17,0,0,0,7.14-6.81,34.55,34.55,0,0,0,1.14-8.52c.08-3,.07-6,0-8.92a38.19,38.19,0,0,0-1.19-10.32A8.75,8.75,0,0,0,52,32.47a26.37,26.37,0,0,0-8.06-1.32C40.15,31,36.4,31,32.64,30.9ZM74.46,57.37a4.79,4.79,0,0,0-4.72-4.93,4.85,4.85,0,0,0-4.92,4.69,4.82,4.82,0,1,0,9.64.24Zm0-12.47a4.81,4.81,0,0,0-4.8-4.85,4.84,4.84,0,0,0,0,9.68A4.77,4.77,0,0,0,74.46,44.9Z"/></g></g></g></svg>