<svg xmlns="http://www.w3.org/2000/svg" viewBox="0 0 79.68 79.94"><title>comedy</title><g id="Layer_2" data-name="Layer 2"><g id="Layer_1-2" data-name="Layer 1"><g id="comedy"><path d="M40.77,0a35.49,35.49,0,0,1,6.75.73A22.14,22.14,0,0,1,58.67,6.18a18.2,18.2,0,0,1,4.86,8,28.36,28.36,0,0,1,.9,8.89c0,1.17,0,1.18-1.07,1.62a79.81,79.81,0,0,1-9.64,3.27,58.75,58.75,0,0,1-10.84,2,39.41,39.41,0,0,1-8.75-.3,64.89,64.89,0,0,1-6.78-1.31c-1.68-.41-3.35-.89-5-1.4-2.22-.67-4.4-1.44-6.56-2.28a.68.68,0,0,1-.5-.71,50.1,50.1,0,0,1,.19-6.37c.87-6.93,4.32-12,10.76-15A26.9,26.9,0,0,1,33.93.41,50.28,50.28,0,0,1,40.77,0Z"/><path d="M79.68,36.94a9.27,9.27,0,0,1-3.33,6.88,18.37,18.37,0,0,1-6.13,3.51c-1.23.45-2.49.78-3.76,1.11-.32.08-.59.14-.62-.35a5.34,5.34,0,0,0-2.1-3.8,14.23,14.23,0,0,0-5.07-2.57,50.3,50.3,0,0,0-11.5-1.93A121.51,121.51,0,0,0,35,39.64a66.36,66.36,0,0,0-9.94,1,26.15,26.15,0,0,0-7.48,2.29,7.6,7.6,0,0,0-3.83,3.73,4.35,4.35,0,0,0-.39,1.7c0,.34-.16.43-.47.35a23.18,23.18,0,0,1-7.92-3.2A10.62,10.62,0,0,1,.3,39.38a8.72,8.72,0,0,1,1.45-7.47,9.6,9.6,0,0,1,4.46-3.64,6.54,6.54,0,0,1,4.17,0c2.07.56,4,1.42,6,2.13a64.79,64.79,0,0,0,7.63,2.24,73,73,0,0,0,18.59,1.55,59.53,59.53,0,0,0,10.21-1.29,81.75,81.75,0,0,0,10.16-3,45.9,45.9,0,0,1,5.66-1.78A8.1,8.1,0,0,1,76.13,30,9.42,9.42,0,0,1,79.68,36.94Z"/><path d="M40.5,79.94a21.8,21.8,0,0,1-11-2.93,25.91,25.91,0,0,1-8.32-7.23,13.2,13.2,0,0,1-2.54-5.26c-.45-2.36.07-4.32,2.57-5.57a4,4,0,0,1,3.54.21A30.53,30.53,0,0,1,29.24,62a24.93,24.93,0,0,0,6.21,3.27,14.27,14.27,0,0,0,5.19.71c3.71-.2,6.91-1.76,10-3.72a37.64,37.64,0,0,1,4.71-2.86,4,4,0,0,1,4-.09,3.63,3.63,0,0,1,1.9,2.95,9.18,9.18,0,0,1-1.53,5.49,25.57,25.57,0,0,1-12,10.5A18.32,18.32,0,0,1,40.5,79.94ZM55.28,65.28a1.41,1.41,0,0,0-.58.24l-1.78,1.15a25.66,25.66,0,0,1-10.29,4.16,19.44,19.44,0,0,1-10.82-1.6,41,41,0,0,1-6.24-3.72c-.53-.36-1.08-.7-1.63-1.05A.53.53,0,0,0,24,65a15.32,15.32,0,0,0,1.44,2.22,21.78,21.78,0,0,0,8.06,6.27,14.13,14.13,0,0,0,10.95.7,21.25,21.25,0,0,0,10-7.54A4,4,0,0,0,55.28,65.28Z"/><path d="M34.82,49.32c0,2.35.93,3.59,2.59,3.66a2.78,2.78,0,0,0,3-2.68A2.71,2.71,0,0,0,39.46,48a3,3,0,0,0-2.41-.68c1.27-1.2,4.4-1.32,6.54.44a5.92,5.92,0,0,1-7.51,9.15A5.82,5.82,0,0,1,34.82,49.32Z"/></g></g></g></svg>