<svg xmlns="http://www.w3.org/2000/svg" viewBox="0 0 75.42 79.97"><title>family</title><g id="Layer_2" data-name="Layer 2"><g id="Layer_1-2" data-name="Layer 1"><g id="family"><path d="M27.83,64.07v.77q0,5.26,0,10.53a4.34,4.34,0,0,1-8.63.81A11.51,11.51,0,0,1,19.13,75V53.89c-.52,0-1,0-1.42,0-.11,0-.26.19-.3.32a1.55,1.55,0,0,0,0,.53V75.21A4.48,4.48,0,0,1,16,78.82a4.14,4.14,0,0,1-4.63.76,4.28,4.28,0,0,1-2.63-4c0-.22,0-.44,0-.65V34.77c-.52,0-1,0-1.41,0-.12,0-.27.19-.31.31a1.55,1.55,0,0,0,0,.53c0,5.38,0,10.76,0,16.14A3.57,3.57,0,0,1,5.49,55,3.44,3.44,0,0,1,.05,52.5a7.56,7.56,0,0,1,0-.83C0,44.09,0,36.5,0,28.91A9.38,9.38,0,0,1,5.63,20a9.3,9.3,0,0,1,4.19-.86q7.61,0,15.2,0a9.86,9.86,0,0,1,4.72,1.15,5.86,5.86,0,0,1,2.75,2.81c.16.36.33.4.68.25a8.17,8.17,0,0,1,7.29.29c.34.18.54.17.79-.14a23.33,23.33,0,0,1,1.91-2.17,7.82,7.82,0,0,1,5.58-2.19c3.43,0,6.86,0,10.29,0a8.16,8.16,0,0,1,7.85,5.52c1.21,3.23,2.23,6.52,3.32,9.79q2.52,7.55,5,15.1a3.16,3.16,0,1,1-5.94,2.09c-.63-1.85-1.21-3.71-1.81-5.56l-3.57-11c-.07-.21-.15-.4-.24-.65L62,35c.08.25.14.47.21.69l6.63,20.22a3.53,3.53,0,0,1-3.47,4.93c-5.42,0-10.84,0-16.26,0-.51,0-.85.07-1,.62a5.71,5.71,0,0,1-.65,1.1h6.43c0,.27,0,.46,0,.65,0,4.32,0,8.64,0,13A3.48,3.48,0,0,1,47,77a8.44,8.44,0,0,1-.08-1.12V63.06c-.19.1-.29.14-.38.2a4.74,4.74,0,0,1-2.54,1c-.44,0-.55.19-.55.62,0,3.51,0,7,0,10.52a4.32,4.32,0,0,1-3.22,4.37,2.43,2.43,0,0,1-.75.14c-2,0-4,.1-6,0a4.14,4.14,0,0,1-3.9-4c-.09-2.17,0-4.34-.05-6.51,0-1.51,0-3,0-4.55,0-.37-.12-.53-.49-.55S28.32,64.15,27.83,64.07ZM45.21,52.16c0-2.21,0-4.42,0-6.62a4.83,4.83,0,0,0-.38-1.89,3.4,3.4,0,0,0-3.43-1.94H31.75c-2.56,0-3.92,1.37-3.92,4V57c0,.72,0,1.45,0,2.18a1.63,1.63,0,0,0,1.63,1.62c.47,0,.94,0,1.42,0,1.5,0,2.14.65,2.14,2.17V75.11c0,1.15.2,1.36,1.33,1.37h4.31c1.1,0,1.31-.21,1.31-1.32v-12a5.62,5.62,0,0,1,0-.71,1.72,1.72,0,0,1,1.73-1.61c.47,0,.94,0,1.41,0,1.42,0,2.06-.64,2.06-2Zm-3.5-20.88a5.18,5.18,0,0,0-5.22-5.21,5.21,5.21,0,1,0,.07,10.42A5.14,5.14,0,0,0,41.71,31.28Z"/><path d="M17.38,17.37a8.69,8.69,0,1,1,8.69-8.68A8.69,8.69,0,0,1,17.38,17.37Z"/><path d="M45.22,8.69a8.69,8.69,0,1,1,8.69,8.68A8.7,8.7,0,0,1,45.22,8.69Z"/><path d="M62.55,62.59c0,.23,0,.38,0,.54,0,4.37,0,8.74,0,13.12a3.48,3.48,0,0,1-6.89.85,5.62,5.62,0,0,1-.08-1c0-4.28,0-8.55,0-12.83,0-.52.11-.71.68-.7C58.35,62.61,60.42,62.59,62.55,62.59Z"/></g></g></g></svg>