<svg xmlns="http://www.w3.org/2000/svg" viewBox="0 0 75.85 75.94"><title>sports</title><g id="Layer_2" data-name="Layer 2"><g id="Layer_1-2" data-name="Layer 1"><g id="sports"><path d="M75.85,29.8a16.86,16.86,0,0,1-2.91,9.82,8.41,8.41,0,0,1-4.7,3.24c-4.78,1.5-9.62,2.87-14.25,4.83a31.37,31.37,0,0,0-6.46,3.4c-.91.67-1.73,1.49-2.58,2.25A26,26,0,0,1,35.19,59a19,19,0,0,1-8.73.77,12.44,12.44,0,0,1-7.14-3.41,11.32,11.32,0,0,1-2.79-5,19.16,19.16,0,0,1,1.09-12.81,25.05,25.05,0,0,1,5.46-8.26,20.61,20.61,0,0,0,4.1-6.46,101.71,101.71,0,0,0,3.68-10.62c.66-2.16,1.39-4.31,2.16-6.44a9.08,9.08,0,0,1,4.27-4.54A16.44,16.44,0,0,1,45.67,0,25.8,25.8,0,0,1,59.1,3.78,34.77,34.77,0,0,1,73,18.55,25.15,25.15,0,0,1,75.85,29.8Zm-3.32,0a22.35,22.35,0,0,0-1.64-7.89A31.35,31.35,0,0,0,60.42,8.62,24.9,24.9,0,0,0,46.83,3.34a13.31,13.31,0,0,0-7.9,1.79,5.23,5.23,0,0,0-2.46,2.32q-1.19,3-2.24,6.11c-1.25,3.67-2.37,7.38-3.7,11a21.17,21.17,0,0,1-4.87,7.83,22.05,22.05,0,0,0-4.16,5.84,1.53,1.53,0,0,0-.15,1,36.83,36.83,0,0,0,1,3.74,16.47,16.47,0,0,0,3.81,6.5c3,2.95,6.68,4.33,10.69,5.1a1.15,1.15,0,0,0,.69-.17,26.48,26.48,0,0,0,6-4.25,22.68,22.68,0,0,1,2.31-2,33.07,33.07,0,0,1,8.69-4.3c4.17-1.46,8.4-2.77,12.6-4.17a5.16,5.16,0,0,0,2.76-1.6A13,13,0,0,0,72.53,29.78Z"/><path d="M5.63,75.94a5.24,5.24,0,0,1-1.19-.65q-2-1.91-3.91-3.89a1.71,1.71,0,0,1,.14-2.59L9,60.54l4.94-4.94c.5-.5.53-.5.86.1a13.1,13.1,0,0,0,5.41,5.4c.58.31.58.36.11.84L7.1,75.11A2.4,2.4,0,0,1,5.63,75.94Z"/><path d="M59.09,10c-.33,0-.66,0-1,0s-.53.1-.53.48c0,1.89,0,3.79,0,5.69,0,.36.19.49.53.49h5.64c.34,0,.48-.14.47-.47a10.37,10.37,0,0,1,.07-1.57,23.07,23.07,0,0,1,3.59,5,5.49,5.49,0,0,0-.3,1.05c0,1.78,0,3.57,0,5.35,0,.49.11.73.66.68s1.2,0,1.8,0c.35,0,.53.11.57.46.07.8.15,1.6.22,2.41,0,.34-.18.45-.5.45-.7,0-1.39,0-2.08,0-.54,0-.67.18-.67.69,0,1.74,0,3.49,0,5.24,0,.56.13.81.72.72a2.16,2.16,0,0,1,.48,0,1.46,1.46,0,0,1-1,1.1c-2.24.73-4.47,1.51-6.75,2.14a9.24,9.24,0,0,1-2.58.06c-.51,0-.89,0-.83.7a.6.6,0,0,1-.31.47c-.94.37-1.89.69-3,1.08,0-.6,0-1.11,0-1.62s-.12-.63-.6-.63q-2.76,0-5.52,0c-.45,0-.59.17-.58.6,0,1.37,0,2.75,0,4.12a.77.77,0,0,1-.43.77,24.82,24.82,0,0,0-5.42,4.09,1.63,1.63,0,0,1-.93.37c-.9,0-1.8,0-2.71,0-.36,0-.5.12-.49.49,0,.54,0,1.09,0,1.63s-.3.89-.82.8a18.68,18.68,0,0,1-2.29-.57c-.11,0-.21-.29-.22-.45a13.26,13.26,0,0,1,0-1.41c0-.37-.15-.49-.51-.49-1.29,0-2.59,0-3.89,0a1.88,1.88,0,0,1-.92-.29,12.82,12.82,0,0,1-4.58-6.13,4,4,0,0,1-.07-1.34c0-.58,0-1.16,0-1.75,0-.31-.11-.42-.42-.44a.82.82,0,0,1-.75-1.25,22.19,22.19,0,0,1,4.17-5.56c.06-.06.16-.07.3-.13,0,.23,0,.4,0,.58,0,.85,0,1.69,0,2.54,0,.32.1.48.45.48,1.92,0,3.84,0,5.75,0,.32,0,.43-.14.43-.44q0-2.85,0-5.7c0-.41-.19-.51-.55-.5-1.09,0-2.18,0-3.27,0-.62,0-.66-.1-.37-.65.4-.76.78-1.53,1.22-2.27a.87.87,0,0,1,.59-.38,14.27,14.27,0,0,1,1.85,0c.4,0,.53-.15.53-.53,0-1.88.12-3.77-.05-5.63a7.72,7.72,0,0,1,.57-3c.65-2.23,1.38-4.44,2.09-6.65.24-.73.52-1.45.79-2.17a4.2,4.2,0,0,1,2-2,1.09,1.09,0,0,1,.55-.08c1.12,0,2.25,0,3.38,0,.49,0,.72-.12.7-.66,0-.85,0-.88.85-.91.66,0,1.32,0,2,0,.36,0,.5.17.49.52,0,1.06-.1,1,1,1s2.48,0,3.72,0A3.85,3.85,0,0,1,54.39,7l4.48,2.56a2.65,2.65,0,0,1,.26.21ZM37.58,23.26c0,.94,0,1.88,0,2.82,0,.4.1.56.54.56q2.76,0,5.52,0c.48,0,.61-.2.61-.64,0-1.8,0-3.61,0-5.41,0-.48-.17-.67-.67-.66-1.8,0-3.6,0-5.41,0-.49,0-.6.19-.59.64C37.6,21.46,37.58,22.36,37.58,23.26Zm16.67,0c0-.92,0-1.84,0-2.76,0-.47-.17-.63-.63-.62q-2.73,0-5.46,0c-.42,0-.61.15-.61.59,0,1.86,0,3.72,0,5.57,0,.43.19.55.58.55q2.79,0,5.58,0c.42,0,.55-.17.54-.57C54.23,25.15,54.25,24.23,54.25,23.31Zm0-10c0-.94,0-1.88,0-2.81,0-.38-.12-.54-.51-.54H48.11c-.41,0-.56.14-.56.56,0,1.83,0,3.67,0,5.51,0,.45.19.6.61.59,1.84,0,3.67,0,5.51,0,.45,0,.59-.18.58-.61C54.23,15.11,54.25,14.21,54.25,13.31Zm0,20c0-.93,0-1.87,0-2.81,0-.39-.13-.55-.52-.55-1.88,0-3.76,0-5.64,0-.37,0-.54.14-.54.53q0,2.79,0,5.58c0,.39.15.53.53.53q2.82,0,5.64,0c.42,0,.54-.16.53-.57C54.23,35.12,54.25,34.22,54.25,33.31ZM40.93,10c-.93,0-1.87,0-2.81,0-.43,0-.55.15-.54.56q0,2.76,0,5.52c0,.42.12.6.57.6q2.73,0,5.46,0c.46,0,.64-.18.64-.64q0-2.73,0-5.46c0-.45-.19-.58-.61-.57C42.74,10,41.84,10,40.93,10ZM64.21,23.29c0-.94,0-1.88,0-2.82,0-.37-.11-.54-.52-.54q-2.79,0-5.58,0c-.39,0-.54.17-.54.54q0,2.82,0,5.64c0,.38.15.53.54.53q2.79,0,5.58,0c.4,0,.53-.14.52-.53C64.19,25.17,64.21,24.23,64.21,23.29ZM40.88,36.59c.94,0,1.88,0,2.81,0,.37,0,.56-.11.55-.51,0-1.86,0-3.72,0-5.57,0-.42-.18-.56-.57-.56-1.86,0-3.72,0-5.57,0-.4,0-.52.15-.52.54,0,1.87,0,3.75,0,5.62,0,.37.12.5.49.49C39,36.58,39.94,36.59,40.88,36.59Zm-6.64,6.67c0-.92,0-1.84,0-2.76,0-.39-.09-.57-.53-.57-1.86,0-3.71,0-5.57,0-.39,0-.53.13-.53.52,0,1.86,0,3.72,0,5.57,0,.42.15.56.56.56h5.52c.41,0,.56-.15.55-.56C34.22,45.1,34.24,44.18,34.24,43.26Zm6.67-3.32c-.93,0-1.87,0-2.81,0-.39,0-.53.12-.52.52,0,1.85,0,3.71,0,5.57,0,.4.11.57.54.56h5.51c.47,0,.62-.19.62-.64q0-2.7,0-5.4c0-.48-.18-.62-.64-.61C42.72,40,41.81,39.94,40.91,39.94Zm23.3-6.63c0-.94,0-1.88,0-2.81,0-.43-.15-.56-.56-.56-1.84,0-3.68,0-5.52,0-.41,0-.56.16-.56.56q0,2.76,0,5.52c0,.41.13.57.55.56,1.86,0,3.72,0,5.57,0,.4,0,.53-.13.52-.52C64.19,35.15,64.21,34.23,64.21,33.31Z"/></g></g></g></svg>