<svg xmlns="http://www.w3.org/2000/svg" viewBox="0 0 89.23 70.05"><title>drama</title><g id="Layer_2" data-name="Layer 2"><g id="Layer_1-2" data-name="Layer 1"><g id="drama"><path d="M89.19,18.93c0,2.66,0,5.31,0,8a39.23,39.23,0,0,1-1.37,9.39A42.39,42.39,0,0,1,75.63,56.73a22.24,22.24,0,0,1-7.88,5.18,19.75,19.75,0,0,1-9.76.84c-5-.78-8.83-3.61-12.26-7.1A42.89,42.89,0,0,1,33.27,25c0-5,0-9.94,0-14.91a3.47,3.47,0,0,1,2-3.36A52.89,52.89,0,0,1,44.81,2.6,53.39,53.39,0,0,1,87.74,7,2.65,2.65,0,0,1,89.23,9.6c0,3.11,0,6.22,0,9.33ZM61.31,48.06a10.24,10.24,0,0,0,5.74-1.48,11.39,11.39,0,0,0,5.79-9.31c0-.53-.11-.71-.66-.7-2,0-4,0-6,0l-4.91,0c0-.13,0-.26,0-.39q0-15.37,0-30.77c0-.6-.25-.73-.79-.72a47.94,47.94,0,0,0-21.84,5.6,1.18,1.18,0,0,0-.75,1.2c0,4.53,0,9.07,0,13.61A38.54,38.54,0,0,0,52.42,55.33a14,14,0,0,0,11,2.94,5.37,5.37,0,0,0,1-.31,6.35,6.35,0,0,1-3.06-6.14C61.39,50.57,61.32,49.31,61.31,48.06Zm11.25-24.6h0c1.14,0,2.28,0,3.42,0a2.23,2.23,0,0,0,2.32-2.32,2.26,2.26,0,0,0-2.39-2.26c-2.24,0-4.49,0-6.73,0a3,3,0,0,0-1.39.42,2.27,2.27,0,0,0-.91,2.56,2.18,2.18,0,0,0,2,1.57C70.1,23.49,71.33,23.46,72.56,23.46Z"/><path d="M38.58,70.05a21.69,21.69,0,0,1-7.92-1.53A43.31,43.31,0,0,1,18,61.07,42.84,42.84,0,0,1,7.87,48.37a71,71,0,0,1-3.73-9.08C2.86,35.75,1.59,32.21.28,28.67A3.33,3.33,0,0,1,.91,25,52.93,52.93,0,0,1,14.72,13.54a51.75,51.75,0,0,1,12.63-5.2,2.35,2.35,0,0,1,2.81,1.59A2.32,2.32,0,0,1,28.5,12.8a.65.65,0,0,0-.58.76c0,4.69,0,9.38.09,14.06a43.76,43.76,0,0,0,1.51,9.89,49.9,49.9,0,0,0,2.72,7.73.74.74,0,0,1-.24,1,11.41,11.41,0,0,0-3.76,11c.28,1.62.33,1.64,1.91,1.08,2.53-.9,5.06-1.83,7.58-2.77a.86.86,0,0,1,1.12.29,51.89,51.89,0,0,0,6.62,6.72c.41.35.7.49,1.22.13a2.38,2.38,0,0,1,3.28.59,2.41,2.41,0,0,1-.76,3.25A19.1,19.1,0,0,1,38.58,70.05ZM16,37.16a2.25,2.25,0,0,0,.55-.07c2.25-.82,4.5-1.62,6.73-2.49a2.25,2.25,0,0,0,1.34-2.86,2.15,2.15,0,0,0-2.86-1.4c-2.3.79-4.58,1.65-6.85,2.52a2.12,2.12,0,0,0-1.25,2.38A2.26,2.26,0,0,0,16,37.16Z"/><path d="M61.33,36.53V48.08A11.27,11.27,0,0,1,50.68,41a10.85,10.85,0,0,1-.87-3.89c0-.59.34-.54.71-.54h10C60.77,36.58,61.05,36.54,61.33,36.53Z"/><path d="M49.46,23.46c-1.21,0-2.42,0-3.62,0a2.15,2.15,0,0,1-2.09-1.8,2.22,2.22,0,0,1,1-2.35,2.88,2.88,0,0,1,1.33-.41c2.27,0,4.54,0,6.8,0a2.25,2.25,0,0,1,2.28,1.74,2.22,2.22,0,0,1-1.25,2.63,3,3,0,0,1-1.2.22c-1.08,0-2.16,0-3.24,0Z"/></g></g></g></svg>