<svg xmlns="http://www.w3.org/2000/svg" viewBox="0 0 79.69 81.44"><title>action</title><g id="Layer_2" data-name="Layer 2"><g id="Layer_1-2" data-name="Layer 1"><g id="action"><path d="M31.71,36a3.5,3.5,0,0,1,.79.49c.67.71,1.27,1.49,2,2.19.39.38.15.7,0,1A10.58,10.58,0,0,0,34,45.22a10.46,10.46,0,0,0,3.84,6.45,1.74,1.74,0,0,1,.75,1.68,10.48,10.48,0,0,0,7.55,10.59,10.27,10.27,0,0,0,9.47-1.74c1.55-1.16,3.07-2.38,4.6-3.57.25-.19.52-.38.78-.56l.13.12c-.49.64-1,1.3-1.47,1.93a48.36,48.36,0,0,1-10.57,9.46,44.64,44.64,0,0,1-9.43,5.24,66.86,66.86,0,0,1-6.48,2.07,22.69,22.69,0,0,0-7.93,3.86c-1.26,1-1.84.93-3-.07L1.12,62.85c-.19-.16-.38-.32-.55-.49a1.73,1.73,0,0,1-.14-2.42A12.17,12.17,0,0,0,3.22,54.1C3.9,50.83,4.43,47.53,5,44.24c.53-3.13.76-6.34,2-9.31q1.55-3.7,3.32-7.29c.85-1.73,1.89-3.37,2.82-5.06a5.63,5.63,0,0,1,4.49-2.77,38.92,38.92,0,0,1,11.2.15c.77.11,1.53.27,2.3.39,1.4.23,2.34,1.24,3.4,2q5.63,4.24,11.21,8.55a18.31,18.31,0,0,1,1.44,1.2,1.89,1.89,0,0,1,.32,2.8c-2.14,3.07-6,4.63-9.7,2a18.56,18.56,0,0,1-3-3,3,3,0,0,0-1.71-1q-3.06-.69-6.12-1.42a1.89,1.89,0,0,0-2.52,1c-1.1,1.8-2.21,3.6-3.31,5.41a1.65,1.65,0,0,0,0,1.94,1.5,1.5,0,0,0,1.7.66,2.19,2.19,0,0,0,1.14-.81c.92-1.37,1.73-2.81,2.61-4.2.13-.2.44-.44.63-.42s.41.35.48.58a46.83,46.83,0,0,1,1.55,5.24c1.05,5.39.26,10.41-3.31,14.8-.95,1.16-.67,2.47.6,2.93A1.72,1.72,0,0,0,28.4,58a18.65,18.65,0,0,0,3.92-7.37,23.87,23.87,0,0,0-.61-13.75c-.07-.23-.12-.46-.18-.69Z"/><path d="M70.67,13.79a2.94,2.94,0,0,0-.44,0,38.06,38.06,0,0,1-10-.38c-5-.92-9.52-2.79-13-6.68a24,24,0,0,1-1.68-2.32c-.21-.31-.37-.42-.75-.2a19.68,19.68,0,0,1-9.32,2.52c-2.69.13-5.39.08-8.09.11a1.76,1.76,0,0,1-1.75-.87,1.62,1.62,0,0,1,1.26-2.44c1-.07,2.06,0,3.08,0,2.8-.13,5.62-.18,8.4-.51A11.19,11.19,0,0,0,44.68.43,1.66,1.66,0,0,1,47.33,1c1.83,4.31,5.32,6.67,9.53,8.17a30.67,30.67,0,0,0,12.87,1.36c.84-.07,1.68-.18,2.52-.31,1.76-.26,2.67.8,2.2,2.52a45.4,45.4,0,0,0-1.27,5.11,17,17,0,0,0,3.7,14.07c.67.81,1.4,1.56,2.12,2.32a1.73,1.73,0,0,1,.27,2.51c-2.81,4.17-3.39,8.8-2.63,13.63A44.68,44.68,0,0,0,78,55.68a1.72,1.72,0,0,1-1,2.19,1.62,1.62,0,0,1-2.14-1,43.27,43.27,0,0,1-1.35-4.6A24.46,24.46,0,0,1,73,45.59a20.3,20.3,0,0,1,2.63-9.15.85.85,0,0,0-.16-1.21,22.16,22.16,0,0,1-5.08-8.38,19.17,19.17,0,0,1-.49-9.51C70.15,16.16,70.41,15,70.67,13.79Z"/><path d="M59.16,29.39a16.24,16.24,0,0,1,1.44,1.43,7.14,7.14,0,0,1-1,9.87c-1.94,1.64-4,3.14-6,4.7-1.66,1.29-3.3,2.59-5,3.84a7.1,7.1,0,0,1-8.31.1,7.42,7.42,0,0,1-2.8-8c.15-.5.41-.47.81-.36a22.81,22.81,0,0,0,2.71.67,8.14,8.14,0,0,0,3.93-.55,19.11,19.11,0,0,0,6.35-3.58c1.28-1.13,2.69-2.13,4.05-3.17A11,11,0,0,0,58.83,30Z"/><path d="M42,53.79a7.06,7.06,0,0,1,.72,0A10,10,0,0,0,51,51.74c3.37-2.58,6.7-5.23,10.06-7.85a11.73,11.73,0,0,0,3.24-3.75,14,14,0,0,1,1,1,7.14,7.14,0,0,1-1.11,10q-5.33,4.31-10.78,8.43a6.77,6.77,0,0,1-7.27.7,7,7,0,0,1-4.16-6A5.48,5.48,0,0,1,42,53.79Z"/><path d="M30.18,16.71c.24-.23.37-.37.52-.49,1.21-.95,2.41-1.9,3.63-2.84a7.28,7.28,0,0,1,11.43,3.25,7.36,7.36,0,0,1-1.9,7.72.63.63,0,0,1-1,0c-2.27-1.72-4.6-3.37-6.82-5.15a10.92,10.92,0,0,0-5.34-2.4Z"/><path d="M46.16,26.93c.59-.75,1.17-1.39,1.65-2.11a10.51,10.51,0,0,0,1.72-5.94c0-.54.15-.7.7-.63a7.41,7.41,0,0,1,3,13.39c-.59.47-1.18.92-1.88,1.46C50.74,30,48.2,28.68,46.16,26.93Z"/></g></g></g></svg>