<svg xmlns="http://www.w3.org/2000/svg" viewBox="0 0 63.67 86.42"><title>documentary</title><g id="Layer_2" data-name="Layer 2"><g id="Layer_1-2" data-name="Layer 1"><g id="documentary"><path d="M26.58,62.51c-.32,0-.57,0-.83,0h-15A2.28,2.28,0,0,1,8.49,61.3a3.81,3.81,0,0,1-.38-1.7c0-5.29,0-10.59,0-15.88v-.45c0-.65,0-.67-.65-.67-1.57,0-3.13,0-4.69,0A2.65,2.65,0,0,1,.16,40.9a2.34,2.34,0,0,1,1.48-3,6.12,6.12,0,0,1,1.27-.15c1.46,0,2.92,0,4.39,0,.62,0,.68-.06.68-.67,0-.78,0-1.55,0-2.32a1,1,0,0,0-.5-.94,14.36,14.36,0,0,1-5-6.7,13.58,13.58,0,0,1-.59-7.67,14.16,14.16,0,0,1,5.64-8.76A13.89,13.89,0,0,1,17.89,8a13.9,13.9,0,0,1,7.83,3.81c.66.62.65.62,1-.21a18.66,18.66,0,0,1,4.77-6.9A17.39,17.39,0,0,1,37.91,1a18.37,18.37,0,0,1,19.81,5.5A17.7,17.7,0,0,1,61,12.22a17.24,17.24,0,0,1,1.07,6.62,18,18,0,0,1-6.84,13.68,2.68,2.68,0,0,0-1.13,2.38c.07,3.39,0,6.77,0,10.16a2.53,2.53,0,0,0,1.71,2.43,2.4,2.4,0,0,0,3-2c0-.28,0-.56,0-.84V34.8a2.42,2.42,0,0,1,1.53-2.41,2.39,2.39,0,0,1,3.2,1.83c0,.22,0,.43,0,.64q0,10.13,0,20.23a2.41,2.41,0,0,1-1.56,2.43,2.2,2.2,0,0,1-2.2-.27c-1.74-1.13-3.46-2.31-5.18-3.47-.13-.09-.27-.16-.5-.29,0,.29-.07.49-.07.69,0,1.87,0,3.75,0,5.62a2.52,2.52,0,0,1-2.66,2.68c-5.8,0-11.61,0-17.41,0-.24,0-.48,0-.81,0,.2.67.37,1.26.57,1.84.46,1.4.92,2.8,1.39,4.2s.9,2.63,1.34,4,.87,2.65,1.31,4,.9,2.67,1.34,4c.33,1,.7,1.92.95,2.9a2.43,2.43,0,0,1-2.49,3,2.67,2.67,0,0,1-2.16-2.1c-.43-1.39-.92-2.76-1.38-4.14s-.87-2.65-1.31-4-.89-2.64-1.34-4-.87-2.61-1.3-3.91L30.09,68l-.15,0c-.2.52-.42,1-.6,1.56-.47,1.36-.93,2.73-1.39,4.1s-.86,2.57-1.3,3.86l-1.35,4-1,3A2.64,2.64,0,0,1,23,86.17a2.15,2.15,0,0,1-2.58-.45,2.2,2.2,0,0,1-.63-2.51C20.51,81,21.23,78.67,22,76.4s1.57-4.72,2.36-7.08l2.19-6.52C26.55,62.74,26.55,62.67,26.58,62.51ZM57.41,18.32a13.51,13.51,0,1,0-13.54,13.5A13.51,13.51,0,0,0,57.41,18.32Zm-50.88,4a9.53,9.53,0,1,0,9.59-9.52A9.55,9.55,0,0,0,6.53,22.34Z"/><path d="M43.88,14.45a4,4,0,1,1,0,7.9,4,4,0,1,1,0-7.9Z"/></g></g></g></svg>