<svg xmlns="http://www.w3.org/2000/svg" viewBox="0 0 71.02 71.03"><title>classical</title><g id="Layer_2" data-name="Layer 2"><g id="Layer_1-2" data-name="Layer 1"><path d="M35.52,71H6.11C2.06,71,0,69,0,65V11.5C0,4.71,4.69,0,11.47,0c4.71,0,9.42,0,14.13,0A11.05,11.05,0,0,1,36,6.43c1.54,3,3,6,4.49,8.93A11.2,11.2,0,0,0,51,21.87c3,0,5.92,0,8.88,0A10.9,10.9,0,0,1,71,33.05q0,16.1,0,32.19C71,68.87,68.86,71,65.23,71Q50.38,71,35.52,71Zm-30-5.54h60V49.24H57.33V60H51.84V49.23H49.13V60H43.7V49.23H35.48V60H30V49.23H27.29V60H21.81V49.23H19.1V60H13.61V49.24H5.5Z"/></g></g></svg>