<svg xmlns="http://www.w3.org/2000/svg" viewBox="0 0 91.6 85.17"><title>rock</title><g id="Layer_2" data-name="Layer 2"><g id="Layer_1-2" data-name="Layer 1"><path d="M43.93,36c.27-.25.45-.41.62-.58Q58.86,21,73.15,6.68a7.71,7.71,0,0,1,4.18-2.13c3.31-.63,6.63-1.26,9.94-1.91a2.34,2.34,0,0,1,2.47.79c.4.47.89.87,1.3,1.33A1.72,1.72,0,0,1,91,7.3c-1.56,1.6-3.13,3.2-4.76,4.72a6.85,6.85,0,0,1-4.75,1.65,3.31,3.31,0,0,0-2.38,1.13Q62.43,31.57,45.67,48.32c-.3.3-.76.94-.67,1.07.34.47.86,1,1.37,1.11,1.21.13,2.45,0,3.68,0a13.74,13.74,0,0,1,3.08.26,2.34,2.34,0,0,1,1.74,2.34,6.69,6.69,0,0,1-3.07,6.53,52.38,52.38,0,0,1-5.69,2.89,5.06,5.06,0,0,0-3.24,4.6c0,.64-.16,1.28-.23,1.92a16.91,16.91,0,0,1-6.43,11.44A18.74,18.74,0,0,1,22.4,85.11a20.89,20.89,0,0,1-10.45-4,29.12,29.12,0,0,1-10.24-12A18.89,18.89,0,0,1,10,44.6a17.53,17.53,0,0,1,8.57-1.88c.39,0,.79,0,1.19,0a3.49,3.49,0,0,0,3.42-3.22,11.81,11.81,0,0,1,6-9.19A10.57,10.57,0,0,1,41,31.4a9.52,9.52,0,0,1,2.62,3.84ZM86.46,6.67a4.17,4.17,0,0,0-.62,0C83.43,7.11,81,7.58,78.6,8a6.15,6.15,0,0,0-3.47,1.86Q56.85,28.25,38.52,46.63c-1.16,1.17-1.13,1.15,0,2.33.51.55.81.57,1.36,0Q56,32.77,72.22,16.59c1.53-1.53,3.07-3,4.57-4.59A6.35,6.35,0,0,1,81,10a4.57,4.57,0,0,0,2.89-.78C84.77,8.49,85.54,7.61,86.46,6.67ZM35.6,58.76c-.06-.18-.06-.24-.09-.27q-3.78-3.81-7.58-7.59a.7.7,0,0,0-.67,0c-.69.63-1.34,1.32-2,2a.45.45,0,0,0,0,.75c2.44,2.43,4.88,4.88,7.33,7.31a.73.73,0,0,0,.67.06C34.07,60.28,34.85,59.49,35.6,58.76Zm-7.52,7.35c-.11-.14-.18-.27-.28-.38L27.07,65c-2.13-2.12-4.26-4.23-6.36-6.38-.46-.47-.76-.47-1.19,0s-1.14,1.17-1.73,1.74c-.33.31-.31.55,0,.87Q21.39,64.8,25,68.39c.32.33.57.41.92,0,.61-.65,1.26-1.26,1.89-1.9A3.51,3.51,0,0,0,28.08,66.11Zm4.86,8.09a1.78,1.78,0,0,0,1.82-1.84,1.82,1.82,0,1,0-3.64,0A1.77,1.77,0,0,0,32.94,74.2Zm-5.52,0a1.72,1.72,0,0,0-1.8,1.83,1.82,1.82,0,1,0,3.64,0A1.7,1.7,0,0,0,27.42,74.22Zm-7.33,0a1.67,1.67,0,0,0-1.77,1.83,1.72,1.72,0,0,0,1.82,1.8A1.74,1.74,0,0,0,21.93,76,1.7,1.7,0,0,0,20.09,74.22Z"/><path d="M85.71,1.49a1.15,1.15,0,0,1-1.13,1.07,1.07,1.07,0,0,1-1-1.12A1.05,1.05,0,0,1,84.63.38,1.13,1.13,0,0,1,85.71,1.49Z"/><path d="M75.65,4.4a1.13,1.13,0,0,1-1.12-1.06A1.14,1.14,0,0,1,75.64,2.2,1.08,1.08,0,0,1,76.7,3.3,1.07,1.07,0,0,1,75.65,4.4Z"/><path d="M79.81,2.59a1.11,1.11,0,0,1-1.1,1.06,1.06,1.06,0,0,1-1-1.13,1,1,0,0,1,1-1A1.07,1.07,0,0,1,79.81,2.59Z"/><path d="M86.46,1a1.11,1.11,0,0,1,1.2-1,1.08,1.08,0,0,1,1,1.12,1.05,1.05,0,0,1-1.16,1A1,1,0,0,1,86.46,1Z"/><path d="M81.64,3.09a1.07,1.07,0,0,1-1-1.13,1,1,0,0,1,1-1A1.07,1.07,0,0,1,82.75,2,1.17,1.17,0,0,1,81.64,3.09Z"/></g></g></svg>