<svg xmlns="http://www.w3.org/2000/svg" xmlns:xlink="http://www.w3.org/1999/xlink" width="52.476" height="46.037" viewBox="0 0 52.476 46.037">
  <defs>
    <style>
      .cls-1 {
        fill: #fff;
        stroke: #e25d34;
        stroke-width: 2px;
      }

      .cls-2 {
        filter: url(#Icon_awesome-twitter);
      }
    </style>
    <filter id="Icon_awesome-twitter" x="0" y="0" width="52.476" height="46.037" filterUnits="userSpaceOnUse">
      <feOffset dy="3" input="SourceAlpha"/>
      <feGaussianBlur stdDeviation="3" result="blur"/>
      <feFlood flood-opacity="0.161"/>
      <feComposite operator="in" in2="blur"/>
      <feComposite in="SourceGraphic"/>
    </filter>
  </defs>
  <g class="cls-2" transform="matrix(1, 0, 0, 1, 0, 0)">
    <path id="Icon_awesome-twitter-2" data-name="Icon awesome-twitter" class="cls-1" d="M27.945,9.685c.02.277.02.553.02.83,0,8.439-6.423,18.163-18.162,18.163A18.039,18.039,0,0,1,0,25.812a13.206,13.206,0,0,0,1.542.079,12.784,12.784,0,0,0,7.925-2.727A6.4,6.4,0,0,1,3.5,18.737a8.05,8.05,0,0,0,1.206.1,6.751,6.751,0,0,0,1.68-.217,6.384,6.384,0,0,1-5.119-6.265v-.079a6.429,6.429,0,0,0,2.885.81A6.393,6.393,0,0,1,2.174,4.547a18.145,18.145,0,0,0,13.162,6.68,7.206,7.206,0,0,1-.158-1.462A6.39,6.39,0,0,1,26.226,5.4a12.568,12.568,0,0,0,4.051-1.542,6.366,6.366,0,0,1-2.806,3.518,12.8,12.8,0,0,0,3.676-.988,13.722,13.722,0,0,1-3.2,3.3Z" transform="translate(9.54 4.36)"/>
  </g>
</svg>
